G04 #@! TF.FileFunction,Soldermask,Top*
%FSLAX46Y46*%
G04 Gerber Fmt 4.6, Leading zero omitted, Abs format (unit mm)*
G04 Created by KiCad (PCBNEW 4.0.2-stable) date 01/06/2016 17:52:26*
%MOMM*%
G01*
G04 APERTURE LIST*
%ADD10C,0.150000*%
%ADD11R,0.500000X3.000000*%
%ADD12C,1.800000*%
%ADD13C,3.400000*%
%ADD14C,1.500000*%
%ADD15C,1.000000*%
%ADD16R,1.250000X2.000000*%
%ADD17R,3.500000X2.500000*%
%ADD18R,2.000000X10.500000*%
%ADD19R,3.000000X1.000000*%
%ADD20R,4.000000X8.500000*%
%ADD21R,1.250000X1.500000*%
%ADD22R,2.500000X3.000000*%
%ADD23R,2.000000X0.700000*%
%ADD24C,1.300000*%
%ADD25R,2.800000X1.500000*%
%ADD26R,0.400000X2.000000*%
%ADD27R,1.800000X1.400000*%
%ADD28R,2.300000X1.400000*%
%ADD29R,2.000000X2.000000*%
%ADD30C,2.000000*%
%ADD31R,2.000000X3.000000*%
%ADD32R,1.500000X1.250000*%
%ADD33R,6.000000X2.000000*%
%ADD34R,2.000000X0.500000*%
%ADD35R,0.500000X2.000000*%
G04 APERTURE END LIST*
D10*
D11*
X84590000Y-126200000D03*
X85860000Y-126200000D03*
X87130000Y-126200000D03*
X88400000Y-126200000D03*
X89670000Y-126200000D03*
X90940000Y-126200000D03*
X92210000Y-126200000D03*
X92210000Y-119200000D03*
X90940000Y-119200000D03*
X89670000Y-119200000D03*
X88400000Y-119200000D03*
X87130000Y-119200000D03*
X85860000Y-119200000D03*
X84590000Y-119200000D03*
D12*
X67960000Y-94490000D03*
X51700000Y-94490000D03*
D13*
X66180000Y-91060000D03*
X53480000Y-91060000D03*
D14*
X52970000Y-100200000D03*
X66690000Y-100200000D03*
X64400000Y-100200000D03*
X55260000Y-100200000D03*
D15*
X56760000Y-93600000D03*
X58800000Y-93600000D03*
X60840000Y-93600000D03*
X62880000Y-93600000D03*
X57780000Y-95380000D03*
X59820000Y-95380000D03*
X61860000Y-95380000D03*
X63900000Y-95380000D03*
D16*
X75200000Y-97200000D03*
X72900000Y-97200000D03*
X77500000Y-97200000D03*
D17*
X75200000Y-103400000D03*
D18*
X53400000Y-107300000D03*
D19*
X67150000Y-107300000D03*
X67150000Y-105600000D03*
X67150000Y-103900000D03*
X67150000Y-109000000D03*
X67150000Y-110700000D03*
D20*
X57400000Y-107300000D03*
D21*
X52000000Y-133250000D03*
X52000000Y-130750000D03*
D22*
X71200000Y-109500000D03*
X71200000Y-104500000D03*
D21*
X54300000Y-133250000D03*
X54300000Y-130750000D03*
D23*
X81400000Y-112325000D03*
X81400000Y-111125000D03*
X81400000Y-109805000D03*
X81400000Y-108175000D03*
X81400000Y-105675000D03*
X81400000Y-103175000D03*
X81400000Y-100675000D03*
X81400000Y-98175000D03*
X81400000Y-95675000D03*
X81400000Y-93175000D03*
X81400000Y-90675000D03*
D24*
X84450000Y-111550000D03*
X84450000Y-90550000D03*
D25*
X83400000Y-113700000D03*
X98000000Y-113700000D03*
X98000000Y-86400000D03*
X83400000Y-88825000D03*
D26*
X75950000Y-89300000D03*
X75300000Y-89300000D03*
X76600000Y-89300000D03*
X77250000Y-89300000D03*
X74650000Y-89300000D03*
D27*
X74800000Y-86150000D03*
X77100000Y-86150000D03*
D28*
X72200000Y-86150000D03*
X79700000Y-86150000D03*
D29*
X94750000Y-126860000D03*
D30*
X97290000Y-126860000D03*
X94750000Y-129400000D03*
X97290000Y-129400000D03*
X94750000Y-131940000D03*
X97290000Y-131940000D03*
D31*
X57330000Y-133300000D03*
X60100000Y-133300000D03*
X62870000Y-133300000D03*
X65640000Y-133300000D03*
X68410000Y-133300000D03*
X71180000Y-133300000D03*
X73950000Y-133300000D03*
X76720000Y-133300000D03*
X79490000Y-133300000D03*
X82260000Y-133300000D03*
X85030000Y-133300000D03*
X87800000Y-133300000D03*
X90570000Y-133300000D03*
D32*
X75150000Y-94600000D03*
X77650000Y-94600000D03*
X86500000Y-129150000D03*
X89000000Y-129150000D03*
D21*
X79200000Y-103350000D03*
X79200000Y-105850000D03*
D33*
X62000000Y-118800000D03*
X54000000Y-118800000D03*
D21*
X66300000Y-122300000D03*
X66300000Y-119800000D03*
X68400000Y-119800000D03*
X68400000Y-122300000D03*
X82700000Y-119950000D03*
X82700000Y-122450000D03*
D34*
X80400000Y-124600000D03*
X80400000Y-123800000D03*
X80400000Y-123000000D03*
X80400000Y-122200000D03*
X80400000Y-121400000D03*
X80400000Y-120600000D03*
X80400000Y-119800000D03*
X80400000Y-119000000D03*
D35*
X78600000Y-117200000D03*
X77800000Y-117200000D03*
X77000000Y-117200000D03*
X76200000Y-117200000D03*
X75400000Y-117200000D03*
X74600000Y-117200000D03*
X73800000Y-117200000D03*
X73000000Y-117200000D03*
D34*
X71200000Y-119000000D03*
X71200000Y-119800000D03*
X71200000Y-120600000D03*
X71200000Y-121400000D03*
X71200000Y-122200000D03*
X71200000Y-123000000D03*
X71200000Y-123800000D03*
X71200000Y-124600000D03*
D35*
X73000000Y-126400000D03*
X73800000Y-126400000D03*
X74600000Y-126400000D03*
X75400000Y-126400000D03*
X76200000Y-126400000D03*
X77000000Y-126400000D03*
X77800000Y-126400000D03*
X78600000Y-126400000D03*
M02*
