G04 #@! TF.FileFunction,Copper,L1,Top,Signal*
%FSLAX46Y46*%
G04 Gerber Fmt 4.6, Leading zero omitted, Abs format (unit mm)*
G04 Created by KiCad (PCBNEW 4.0.2-stable) date 01/06/2016 17:52:26*
%MOMM*%
G01*
G04 APERTURE LIST*
%ADD10C,0.150000*%
%ADD11R,0.500000X3.000000*%
%ADD12C,1.800000*%
%ADD13C,3.400000*%
%ADD14C,1.500000*%
%ADD15C,1.000000*%
%ADD16R,1.250000X2.000000*%
%ADD17R,3.500000X2.500000*%
%ADD18R,2.000000X10.500000*%
%ADD19R,3.000000X1.000000*%
%ADD20R,4.000000X8.500000*%
%ADD21R,1.250000X1.500000*%
%ADD22R,2.500000X3.000000*%
%ADD23R,2.000000X0.700000*%
%ADD24C,1.300000*%
%ADD25R,2.800000X1.500000*%
%ADD26R,0.400000X2.000000*%
%ADD27R,1.800000X1.400000*%
%ADD28R,2.300000X1.400000*%
%ADD29R,2.000000X2.000000*%
%ADD30C,2.000000*%
%ADD31R,2.000000X3.000000*%
%ADD32R,1.500000X1.250000*%
%ADD33R,6.000000X2.000000*%
%ADD34R,2.000000X0.500000*%
%ADD35R,0.500000X2.000000*%
%ADD36C,0.500000*%
%ADD37C,0.250000*%
%ADD38C,0.254000*%
G04 APERTURE END LIST*
D10*
D11*
X84590000Y-126200000D03*
X85860000Y-126200000D03*
X87130000Y-126200000D03*
X88400000Y-126200000D03*
X89670000Y-126200000D03*
X90940000Y-126200000D03*
X92210000Y-126200000D03*
X92210000Y-119200000D03*
X90940000Y-119200000D03*
X89670000Y-119200000D03*
X88400000Y-119200000D03*
X87130000Y-119200000D03*
X85860000Y-119200000D03*
X84590000Y-119200000D03*
D12*
X67960000Y-94490000D03*
X51700000Y-94490000D03*
D13*
X66180000Y-91060000D03*
X53480000Y-91060000D03*
D14*
X52970000Y-100200000D03*
X66690000Y-100200000D03*
X64400000Y-100200000D03*
X55260000Y-100200000D03*
D15*
X56760000Y-93600000D03*
X58800000Y-93600000D03*
X60840000Y-93600000D03*
X62880000Y-93600000D03*
X57780000Y-95380000D03*
X59820000Y-95380000D03*
X61860000Y-95380000D03*
X63900000Y-95380000D03*
D16*
X75200000Y-97200000D03*
X72900000Y-97200000D03*
X77500000Y-97200000D03*
D17*
X75200000Y-103400000D03*
D18*
X53400000Y-107300000D03*
D19*
X67150000Y-107300000D03*
X67150000Y-105600000D03*
X67150000Y-103900000D03*
X67150000Y-109000000D03*
X67150000Y-110700000D03*
D20*
X57400000Y-107300000D03*
D21*
X52000000Y-133250000D03*
X52000000Y-130750000D03*
D22*
X71200000Y-109500000D03*
X71200000Y-104500000D03*
D21*
X54300000Y-133250000D03*
X54300000Y-130750000D03*
D23*
X81400000Y-112325000D03*
X81400000Y-111125000D03*
X81400000Y-109805000D03*
X81400000Y-108175000D03*
X81400000Y-105675000D03*
X81400000Y-103175000D03*
X81400000Y-100675000D03*
X81400000Y-98175000D03*
X81400000Y-95675000D03*
X81400000Y-93175000D03*
X81400000Y-90675000D03*
D24*
X84450000Y-111550000D03*
X84450000Y-90550000D03*
D25*
X83400000Y-113700000D03*
X98000000Y-113700000D03*
X98000000Y-86400000D03*
X83400000Y-88825000D03*
D26*
X75950000Y-89300000D03*
X75300000Y-89300000D03*
X76600000Y-89300000D03*
X77250000Y-89300000D03*
X74650000Y-89300000D03*
D27*
X74800000Y-86150000D03*
X77100000Y-86150000D03*
D28*
X72200000Y-86150000D03*
X79700000Y-86150000D03*
D29*
X94750000Y-126860000D03*
D30*
X97290000Y-126860000D03*
X94750000Y-129400000D03*
X97290000Y-129400000D03*
X94750000Y-131940000D03*
X97290000Y-131940000D03*
D31*
X57330000Y-133300000D03*
X60100000Y-133300000D03*
X62870000Y-133300000D03*
X65640000Y-133300000D03*
X68410000Y-133300000D03*
X71180000Y-133300000D03*
X73950000Y-133300000D03*
X76720000Y-133300000D03*
X79490000Y-133300000D03*
X82260000Y-133300000D03*
X85030000Y-133300000D03*
X87800000Y-133300000D03*
X90570000Y-133300000D03*
D32*
X75150000Y-94600000D03*
X77650000Y-94600000D03*
X86500000Y-129150000D03*
X89000000Y-129150000D03*
D21*
X79200000Y-103350000D03*
X79200000Y-105850000D03*
D33*
X62000000Y-118800000D03*
X54000000Y-118800000D03*
D21*
X66300000Y-122300000D03*
X66300000Y-119800000D03*
X68400000Y-119800000D03*
X68400000Y-122300000D03*
X82700000Y-119950000D03*
X82700000Y-122450000D03*
D34*
X80400000Y-124600000D03*
X80400000Y-123800000D03*
X80400000Y-123000000D03*
X80400000Y-122200000D03*
X80400000Y-121400000D03*
X80400000Y-120600000D03*
X80400000Y-119800000D03*
X80400000Y-119000000D03*
D35*
X78600000Y-117200000D03*
X77800000Y-117200000D03*
X77000000Y-117200000D03*
X76200000Y-117200000D03*
X75400000Y-117200000D03*
X74600000Y-117200000D03*
X73800000Y-117200000D03*
X73000000Y-117200000D03*
D34*
X71200000Y-119000000D03*
X71200000Y-119800000D03*
X71200000Y-120600000D03*
X71200000Y-121400000D03*
X71200000Y-122200000D03*
X71200000Y-123000000D03*
X71200000Y-123800000D03*
X71200000Y-124600000D03*
D35*
X73000000Y-126400000D03*
X73800000Y-126400000D03*
X74600000Y-126400000D03*
X75400000Y-126400000D03*
X76200000Y-126400000D03*
X77000000Y-126400000D03*
X77800000Y-126400000D03*
X78600000Y-126400000D03*
D36*
X90000000Y-116100000D03*
X84600000Y-124000000D03*
X91499994Y-130600000D03*
X51999998Y-129300000D03*
X64100010Y-124690932D03*
X59100000Y-129474980D03*
X78986983Y-95912999D03*
X74700000Y-124399980D03*
X70200000Y-86725020D03*
X84250000Y-98749998D03*
X81500000Y-104525002D03*
X86443311Y-116038274D03*
X60900000Y-117000000D03*
X83800000Y-117400000D03*
X84000004Y-128200000D03*
X83000004Y-100600000D03*
X82700000Y-116300000D03*
X89800000Y-104700000D03*
X58140255Y-112827263D03*
X70750000Y-116250000D03*
X67400000Y-112700014D03*
X64250000Y-112599998D03*
X58000000Y-119750000D03*
X73300000Y-92700000D03*
X78385870Y-122039973D03*
X93624990Y-122750000D03*
X68500000Y-118049998D03*
X69319216Y-95817606D03*
X71200000Y-101900000D03*
X80400000Y-118100010D03*
X80500000Y-126200000D03*
X81300002Y-118100000D03*
X81300000Y-126200000D03*
X82264981Y-131475042D03*
X63300000Y-128800000D03*
X85026910Y-131477265D03*
X65100000Y-128800000D03*
X87799997Y-131480962D03*
X66900000Y-128800002D03*
X90547078Y-131455165D03*
X68500000Y-128800014D03*
X73661758Y-121377685D03*
X86200000Y-110600000D03*
X66000048Y-118049988D03*
X88252624Y-121747376D03*
X85700000Y-115100000D03*
X76400000Y-111400000D03*
X90800000Y-117200000D03*
X78299984Y-124300000D03*
X78500000Y-89500000D03*
X78500012Y-93100000D03*
X85200000Y-110500000D03*
X78500000Y-118999996D03*
X78717783Y-113974970D03*
X83750000Y-108750000D03*
X94400000Y-118000000D03*
X96000000Y-124100002D03*
X70300000Y-129025013D03*
X56491991Y-130708009D03*
X73499537Y-110249555D03*
X73249992Y-107000000D03*
X74299994Y-121799982D03*
X84300000Y-116500000D03*
X85500000Y-121200000D03*
X60000000Y-102600000D03*
X55500000Y-96600000D03*
X62374990Y-99500000D03*
X62700000Y-105100000D03*
X77800000Y-120200000D03*
D37*
X89750001Y-116349999D02*
X90000000Y-116100000D01*
X89700000Y-116400000D02*
X89750001Y-116349999D01*
X89700000Y-119200000D02*
X89700000Y-116400000D01*
X90249999Y-115850001D02*
X90000000Y-116100000D01*
X90449999Y-103889337D02*
X90449999Y-115650001D01*
X84250000Y-98749998D02*
X85310660Y-98749998D01*
X85310660Y-98749998D02*
X90449999Y-103889337D01*
X90449999Y-115650001D02*
X90249999Y-115850001D01*
X86443311Y-116038274D02*
X86443311Y-114171307D01*
X86443311Y-114171307D02*
X85971996Y-113699992D01*
X85860000Y-126200000D02*
X85860000Y-124160000D01*
X85860000Y-124160000D02*
X85700000Y-124000000D01*
X85700000Y-124000000D02*
X84600000Y-124000000D01*
X84600000Y-124000000D02*
X84600000Y-126190000D01*
X84600000Y-126190000D02*
X84590000Y-126200000D01*
X97290000Y-131940000D02*
X98704213Y-131940000D01*
X98704213Y-131940000D02*
X99300000Y-131344213D01*
X99300000Y-131344213D02*
X99300000Y-116400000D01*
X99300000Y-116400000D02*
X98000000Y-115100000D01*
X98000000Y-115100000D02*
X98000000Y-113700000D01*
X97290000Y-131940000D02*
X97290000Y-133410000D01*
X97290000Y-133410000D02*
X96400000Y-134300000D01*
X96400000Y-134300000D02*
X93200000Y-134300000D01*
X93200000Y-134300000D02*
X92000000Y-133100000D01*
X92000000Y-133100000D02*
X92000000Y-131100000D01*
X92000000Y-131100000D02*
X91500000Y-130600000D01*
X91500000Y-130600000D02*
X91499994Y-130600000D01*
X91499994Y-130600000D02*
X89575000Y-130600000D01*
X89575000Y-130600000D02*
X89000000Y-130025000D01*
X89000000Y-130025000D02*
X89000000Y-129150000D01*
X89000000Y-129150000D02*
X90150000Y-129150000D01*
X84620000Y-126200000D02*
X84620000Y-125280000D01*
X77525000Y-94600000D02*
X77650000Y-94600000D01*
X52000000Y-129300002D02*
X51999998Y-129300000D01*
X52000000Y-130750000D02*
X52000000Y-129300002D01*
X64100010Y-124690932D02*
X59315962Y-129474980D01*
X59315962Y-129474980D02*
X59100000Y-129474980D01*
X64100010Y-124690932D02*
X66300000Y-122490942D01*
X66300000Y-122490942D02*
X66300000Y-122300000D01*
X53150020Y-129474980D02*
X59100000Y-129474980D01*
X52000000Y-130750000D02*
X52000000Y-130625000D01*
X52000000Y-130625000D02*
X53150020Y-129474980D01*
X79700000Y-86150000D02*
X81950000Y-86150000D01*
X81950000Y-86150000D02*
X83400000Y-87600000D01*
X83400000Y-87600000D02*
X83400000Y-88825000D01*
X77650000Y-94600000D02*
X79000000Y-94600000D01*
X79000000Y-94600000D02*
X79200000Y-94800000D01*
X79200000Y-94800000D02*
X79200000Y-95699982D01*
X79200000Y-95699982D02*
X78986983Y-95912999D01*
X80400000Y-123000000D02*
X79150000Y-123000000D01*
X79150000Y-123000000D02*
X78975397Y-123174603D01*
X76500020Y-124399980D02*
X74700000Y-124399980D01*
X78975397Y-123174603D02*
X77725397Y-123174603D01*
X77725397Y-123174603D02*
X76500020Y-124399980D01*
X72575001Y-123335641D02*
X73639340Y-124399980D01*
X73639340Y-124399980D02*
X74700000Y-124399980D01*
X72325002Y-122200000D02*
X72575001Y-122449999D01*
X71200000Y-122200000D02*
X72325002Y-122200000D01*
X72575001Y-122449999D02*
X72575001Y-123335641D01*
X77100000Y-86150000D02*
X79700000Y-86150000D01*
X74800000Y-86150000D02*
X77100000Y-86150000D01*
X72200000Y-86150000D02*
X74800000Y-86150000D01*
X70200000Y-86725020D02*
X71624980Y-86725020D01*
X71624980Y-86725020D02*
X72200000Y-86150000D01*
X77650000Y-94600000D02*
X79400000Y-94600000D01*
X79400000Y-94600000D02*
X79940999Y-94059001D01*
X79940999Y-94059001D02*
X79940999Y-90108999D01*
X79940999Y-90108999D02*
X81224998Y-88825000D01*
X81224998Y-88825000D02*
X83400000Y-88825000D01*
X81400000Y-98175000D02*
X79975000Y-98175000D01*
X79975000Y-98175000D02*
X79000000Y-97200000D01*
X79000000Y-97200000D02*
X77500000Y-97200000D01*
X92240000Y-126200000D02*
X92240000Y-128260000D01*
X92240000Y-128260000D02*
X91350000Y-129150000D01*
X91350000Y-129150000D02*
X89000000Y-129150000D01*
X84825000Y-86400000D02*
X83400000Y-87825000D01*
X83400000Y-87825000D02*
X83400000Y-88825000D01*
X75200000Y-103400000D02*
X75200000Y-101400000D01*
X75200000Y-101400000D02*
X74200000Y-100400000D01*
X74200000Y-100400000D02*
X70900000Y-100400000D01*
X70900000Y-100400000D02*
X69974999Y-101325001D01*
X69974999Y-101325001D02*
X65525001Y-101325001D01*
X65525001Y-101325001D02*
X64400000Y-100200000D01*
X52970000Y-100200000D02*
X50424999Y-97654999D01*
X50424999Y-97654999D02*
X50424999Y-88575001D01*
X50424999Y-88575001D02*
X53300000Y-85700000D01*
X53300000Y-85700000D02*
X68114320Y-85700000D01*
X68114320Y-85700000D02*
X69139340Y-86725020D01*
X69139340Y-86725020D02*
X70200000Y-86725020D01*
X89000000Y-129150000D02*
X88875000Y-129150000D01*
X85971988Y-113700000D02*
X85971996Y-113699992D01*
X83400000Y-113700000D02*
X85971988Y-113700000D01*
X80400000Y-121400000D02*
X81650000Y-121400000D01*
X81650000Y-121400000D02*
X82700000Y-122450000D01*
X98000000Y-113700000D02*
X98000000Y-86400000D01*
X81400000Y-98175000D02*
X83675002Y-98175000D01*
X83675002Y-98175000D02*
X84250000Y-98749998D01*
X85890000Y-119200000D02*
X85890000Y-116591585D01*
X81400000Y-105675000D02*
X81400000Y-104625002D01*
X81400000Y-104625002D02*
X81500000Y-104525002D01*
X88430000Y-126200000D02*
X88430000Y-128580000D01*
X88430000Y-128580000D02*
X89000000Y-129150000D01*
X98000000Y-86400000D02*
X84825000Y-86400000D01*
X77500000Y-97200000D02*
X77500000Y-94750000D01*
X77500000Y-94750000D02*
X77650000Y-94600000D01*
X66300000Y-122300000D02*
X68400000Y-122300000D01*
X79200000Y-105850000D02*
X81225000Y-105850000D01*
X81225000Y-105850000D02*
X81400000Y-105675000D01*
X82800000Y-122450000D02*
X82250000Y-123000000D01*
X82250000Y-123000000D02*
X80400000Y-123000000D01*
X68400000Y-122300000D02*
X71100000Y-122300000D01*
X71100000Y-122300000D02*
X71200000Y-122200000D01*
X85890000Y-116591585D02*
X86443311Y-116038274D01*
X60900000Y-117000000D02*
X58140255Y-114240255D01*
X58140255Y-114240255D02*
X58140255Y-112827263D01*
X60900000Y-117000000D02*
X63500000Y-117000000D01*
X63500000Y-117000000D02*
X64800000Y-115700000D01*
X64800000Y-113149998D02*
X64250000Y-112599998D01*
X64800000Y-115700000D02*
X64800000Y-113149998D01*
X60546447Y-117000000D02*
X60900000Y-117000000D01*
X58000000Y-119750000D02*
X58000000Y-118222051D01*
X59222051Y-117000000D02*
X60546447Y-117000000D01*
X58000000Y-118222051D02*
X59222051Y-117000000D01*
X83800000Y-117400000D02*
X82700000Y-116300000D01*
X84620000Y-118220000D02*
X83800000Y-117400000D01*
X84950004Y-129150000D02*
X84250003Y-128449999D01*
X84250003Y-128449999D02*
X84000004Y-128200000D01*
X86500000Y-129150000D02*
X84950004Y-129150000D01*
X89800000Y-104700000D02*
X89800000Y-104300000D01*
X89800000Y-104300000D02*
X86100000Y-100600000D01*
X86100000Y-100600000D02*
X83353557Y-100600000D01*
X83353557Y-100600000D02*
X83000004Y-100600000D01*
X81400000Y-100675000D02*
X81475000Y-100600000D01*
X81475000Y-100600000D02*
X83000004Y-100600000D01*
X83000000Y-100500000D02*
X83000000Y-100599996D01*
X83000000Y-100599996D02*
X83000004Y-100600000D01*
X84620000Y-119200000D02*
X84620000Y-118220000D01*
X75200000Y-97200000D02*
X75200000Y-98400000D01*
X75200000Y-98400000D02*
X76050000Y-99250000D01*
X76050000Y-99250000D02*
X79975000Y-99250000D01*
X79975000Y-99250000D02*
X81400000Y-100675000D01*
X67400000Y-112700014D02*
X67400000Y-115400000D01*
X67400000Y-115400000D02*
X68250000Y-116250000D01*
X68250000Y-116250000D02*
X70750000Y-116250000D01*
X70750000Y-116250000D02*
X70750000Y-114590113D01*
X70750000Y-114590113D02*
X78199999Y-107140114D01*
X78199999Y-107140114D02*
X78199999Y-104475001D01*
X78199999Y-104475001D02*
X79200000Y-103475000D01*
X79200000Y-103475000D02*
X79200000Y-103350000D01*
X86500000Y-129150000D02*
X86534999Y-129115001D01*
X80125000Y-100675000D02*
X79200000Y-101600000D01*
X79200000Y-101600000D02*
X79200000Y-103350000D01*
X81400000Y-100675000D02*
X80125000Y-100675000D01*
X75200000Y-97200000D02*
X75200000Y-97575000D01*
X75150000Y-94600000D02*
X75150000Y-97150000D01*
X75150000Y-97150000D02*
X75200000Y-97200000D01*
X97290000Y-126860000D02*
X97290000Y-123690000D01*
X97290000Y-123690000D02*
X96350000Y-122750000D01*
X96350000Y-122750000D02*
X93624990Y-122750000D01*
X72575001Y-121742877D02*
X73257126Y-122425002D01*
X72575001Y-119925001D02*
X72575001Y-121742877D01*
X78000841Y-122425002D02*
X78385870Y-122039973D01*
X71200000Y-119800000D02*
X72450000Y-119800000D01*
X72450000Y-119800000D02*
X72575001Y-119925001D01*
X73257126Y-122425002D02*
X78000841Y-122425002D01*
X82800000Y-120075000D02*
X82275000Y-120600000D01*
X82275000Y-120600000D02*
X80400000Y-120600000D01*
X78425002Y-121647288D02*
X78385870Y-121686420D01*
X78385870Y-121686420D02*
X78385870Y-122039973D01*
X80400000Y-120600000D02*
X79150000Y-120600000D01*
X78425002Y-121324998D02*
X78425002Y-121647288D01*
X79150000Y-120600000D02*
X78425002Y-121324998D01*
X72900000Y-93100000D02*
X73300000Y-92700000D01*
X72900000Y-97200000D02*
X72900000Y-93100000D01*
X78545897Y-122200000D02*
X78385870Y-122039973D01*
X80400000Y-122200000D02*
X78545897Y-122200000D01*
X82800000Y-119950000D02*
X82800000Y-120075000D01*
X68400000Y-119800000D02*
X71200000Y-119800000D01*
X66300000Y-119800000D02*
X66300000Y-119675000D01*
X66300000Y-119675000D02*
X67925002Y-118049998D01*
X67925002Y-118049998D02*
X68500000Y-118049998D01*
X62000000Y-118800000D02*
X62657120Y-118800000D01*
X62657120Y-118800000D02*
X65375001Y-116082119D01*
X66900000Y-110700000D02*
X66150000Y-110700000D01*
X65375001Y-116082119D02*
X65375001Y-112224999D01*
X64700000Y-102500000D02*
X63000000Y-100800000D01*
X65375001Y-112224999D02*
X66900000Y-110700000D01*
X66150000Y-110700000D02*
X64700000Y-109250000D01*
X64700000Y-109250000D02*
X64700000Y-102500000D01*
X63000000Y-100800000D02*
X63000000Y-98560000D01*
X63000000Y-98560000D02*
X60700000Y-96260000D01*
X60700000Y-96260000D02*
X59820000Y-95380000D01*
X69319216Y-95817606D02*
X68258556Y-95817606D01*
X68258556Y-95817606D02*
X67376162Y-96700000D01*
X67376162Y-96700000D02*
X61140000Y-96700000D01*
X61140000Y-96700000D02*
X59820000Y-95380000D01*
X62880000Y-93600000D02*
X61680000Y-92400000D01*
X54200000Y-94400000D02*
X54200000Y-97200000D01*
X61680000Y-92400000D02*
X56200000Y-92400000D01*
X56200000Y-92400000D02*
X54200000Y-94400000D01*
X57400000Y-100400000D02*
X57400000Y-107300000D01*
X54200000Y-97200000D02*
X57400000Y-100400000D01*
X67150000Y-107300000D02*
X66150000Y-107300000D01*
X66150000Y-107300000D02*
X65274999Y-106424999D01*
X65274999Y-106424999D02*
X65274999Y-104775001D01*
X65274999Y-104775001D02*
X66150000Y-103900000D01*
X66150000Y-103900000D02*
X67150000Y-103900000D01*
X54000000Y-118800000D02*
X52900000Y-117700000D01*
X52900000Y-117700000D02*
X52900000Y-107800000D01*
X67900000Y-103900000D02*
X70600000Y-103900000D01*
X70600000Y-103900000D02*
X71200000Y-104500000D01*
X67900000Y-107300000D02*
X66900000Y-107300000D01*
X66900000Y-103900000D02*
X67900000Y-103900000D01*
X57400000Y-107800000D02*
X53400000Y-107800000D01*
X71200000Y-104500000D02*
X71200000Y-101900000D01*
X71100000Y-104400000D02*
X71200000Y-104500000D01*
X57330000Y-134000000D02*
X57330000Y-132670000D01*
X57330000Y-132670000D02*
X66200000Y-123800000D01*
X66200000Y-123800000D02*
X71200000Y-123800000D01*
X71596479Y-129650031D02*
X71846477Y-129400033D01*
X62049975Y-129650031D02*
X71596479Y-129650031D01*
X74496422Y-128924944D02*
X75475056Y-128924944D01*
X77000000Y-127400000D02*
X77000000Y-126400000D01*
X74021333Y-129400033D02*
X74496422Y-128924944D01*
X75475056Y-128924944D02*
X77000000Y-127400000D01*
X60100000Y-131600006D02*
X62049975Y-129650031D01*
X71846477Y-129400033D02*
X74021333Y-129400033D01*
X60100000Y-134000000D02*
X60100000Y-131600006D01*
X62870000Y-134000000D02*
X62870000Y-131630000D01*
X64349958Y-130150042D02*
X71803591Y-130150041D01*
X77800000Y-127400000D02*
X77800000Y-126400000D01*
X74228445Y-129900043D02*
X74703531Y-129424957D01*
X71803591Y-130150041D02*
X72053589Y-129900043D01*
X62870000Y-131630000D02*
X64349958Y-130150042D01*
X72053589Y-129900043D02*
X74228445Y-129900043D01*
X75775045Y-129424955D02*
X77800000Y-127400000D01*
X74703531Y-129424957D02*
X75775045Y-129424955D01*
X65640000Y-132770800D02*
X67760747Y-130650053D01*
X76075034Y-129924966D02*
X78600000Y-127400000D01*
X74910644Y-129924966D02*
X76075034Y-129924966D01*
X74410633Y-130424977D02*
X74910644Y-129924966D01*
X72235777Y-130424977D02*
X74410633Y-130424977D01*
X65640000Y-134000000D02*
X65640000Y-132770800D01*
X78600000Y-127400000D02*
X78600000Y-126400000D01*
X67760747Y-130650053D02*
X72010701Y-130650053D01*
X72010701Y-130650053D02*
X72235777Y-130424977D01*
X69635267Y-131150070D02*
X72217806Y-131150070D01*
X72442888Y-130924988D02*
X74617744Y-130924988D01*
X79370058Y-125629942D02*
X80275010Y-124724990D01*
X76375023Y-130424977D02*
X79370058Y-127429942D01*
X68410000Y-134000000D02*
X68410000Y-132375337D01*
X75117755Y-130424977D02*
X76375023Y-130424977D01*
X79370058Y-127429942D02*
X79370058Y-125629942D01*
X68410000Y-132375337D02*
X69635267Y-131150070D01*
X72217806Y-131150070D02*
X72442888Y-130924988D01*
X74617744Y-130924988D02*
X75117755Y-130424977D01*
X80275010Y-124724990D02*
X80400000Y-124600000D01*
X81650000Y-123800000D02*
X80400000Y-123800000D01*
X81700001Y-125225001D02*
X81775001Y-125150001D01*
X81775001Y-123925001D02*
X81650000Y-123800000D01*
X79874998Y-125832124D02*
X80482121Y-125225001D01*
X76667890Y-130924988D02*
X79874998Y-127717880D01*
X74824855Y-131424999D02*
X75324866Y-130924988D01*
X75324866Y-130924988D02*
X76667890Y-130924988D01*
X72649999Y-131424999D02*
X74824855Y-131424999D01*
X81775001Y-125150001D02*
X81775001Y-123925001D01*
X80482121Y-125225001D02*
X81700001Y-125225001D01*
X71180000Y-132894998D02*
X72649999Y-131424999D01*
X79874998Y-127717880D02*
X79874998Y-125832124D01*
X71180000Y-134000000D02*
X71180000Y-132894998D01*
X79499990Y-117200000D02*
X80150001Y-117850011D01*
X78600000Y-117200000D02*
X79499990Y-117200000D01*
X80150001Y-117850011D02*
X80400000Y-118100010D01*
X80500000Y-126553553D02*
X80500000Y-126200000D01*
X75531976Y-131424998D02*
X76928555Y-131424998D01*
X73950000Y-133006974D02*
X75531976Y-131424998D01*
X73950000Y-133300000D02*
X73950000Y-133006974D01*
X80500000Y-127853553D02*
X80500000Y-126553553D01*
X76928555Y-131424998D02*
X80500000Y-127853553D01*
X73950000Y-134000000D02*
X73950000Y-133006976D01*
X77800000Y-117200000D02*
X77800000Y-115950000D01*
X77800000Y-115950000D02*
X78550011Y-115199989D01*
X78550011Y-115199989D02*
X79599989Y-115199989D01*
X79599989Y-115199989D02*
X81300002Y-116900002D01*
X81300002Y-116900002D02*
X81300002Y-118100000D01*
X81300000Y-126553553D02*
X81300000Y-126200000D01*
X81300000Y-128220000D02*
X81300000Y-126553553D01*
X76720000Y-132800000D02*
X81300000Y-128220000D01*
X76720000Y-133300000D02*
X76720000Y-132800000D01*
X76720000Y-134000000D02*
X76720000Y-132380000D01*
X78250021Y-114699979D02*
X80107101Y-114699979D01*
X79490000Y-131610000D02*
X79490000Y-134000000D01*
X83874999Y-127225001D02*
X79490000Y-131610000D01*
X83874999Y-118467877D02*
X83874999Y-127225001D01*
X80107101Y-114699979D02*
X83874999Y-118467877D01*
X77000000Y-115950000D02*
X78250021Y-114699979D01*
X77000000Y-117200000D02*
X77000000Y-115950000D01*
X82260000Y-133500000D02*
X82264981Y-133495019D01*
X82264981Y-131828595D02*
X82264981Y-131475042D01*
X82264981Y-133495019D02*
X82264981Y-131828595D01*
X67500000Y-124600000D02*
X63300000Y-128800000D01*
X71200000Y-124600000D02*
X67500000Y-124600000D01*
X73000000Y-126400000D02*
X72500000Y-126400000D01*
X72500000Y-126400000D02*
X71625010Y-127274990D01*
X71625010Y-127274990D02*
X66625010Y-127274990D01*
X66625010Y-127274990D02*
X65100000Y-128800000D01*
X85026910Y-131830818D02*
X85026910Y-131477265D01*
X85026910Y-133996910D02*
X85026910Y-131830818D01*
X85030000Y-134000000D02*
X85026910Y-133996910D01*
X73800000Y-126400000D02*
X73800000Y-127500000D01*
X67800002Y-127900000D02*
X66900000Y-128800002D01*
X73400000Y-127900000D02*
X67800002Y-127900000D01*
X73800000Y-127500000D02*
X73400000Y-127900000D01*
X87799997Y-131834515D02*
X87799997Y-131480962D01*
X87800000Y-134000000D02*
X87799997Y-133999997D01*
X87799997Y-133999997D02*
X87799997Y-131834515D01*
X68900003Y-128400011D02*
X68500000Y-128800014D01*
X73607111Y-128400011D02*
X68900003Y-128400011D01*
X74600000Y-126400000D02*
X74600000Y-127407122D01*
X74600000Y-127407122D02*
X73607111Y-128400011D01*
X90547078Y-131808718D02*
X90547078Y-131455165D01*
X90547078Y-133977078D02*
X90547078Y-131808718D01*
X90570000Y-134000000D02*
X90547078Y-133977078D01*
X73661758Y-119111758D02*
X73661758Y-121377685D01*
X73000000Y-118450000D02*
X73661758Y-119111758D01*
X73000000Y-117200000D02*
X73000000Y-118450000D01*
X83528553Y-107575000D02*
X86200000Y-110246447D01*
X82650000Y-107575000D02*
X83528553Y-107575000D01*
X82050000Y-108175000D02*
X82650000Y-107575000D01*
X86200000Y-110246447D02*
X86200000Y-110600000D01*
X81400000Y-108175000D02*
X82050000Y-108175000D01*
X73000000Y-113754355D02*
X73000000Y-117200000D01*
X78579355Y-108175000D02*
X73000000Y-113754355D01*
X81400000Y-108175000D02*
X78579355Y-108175000D01*
X67300025Y-116750011D02*
X66000048Y-118049988D01*
X71200000Y-118500000D02*
X69450011Y-116750011D01*
X71200000Y-119000000D02*
X71200000Y-118500000D01*
X69450011Y-116750011D02*
X67300025Y-116750011D01*
X71200000Y-119000000D02*
X72206736Y-117993264D01*
X88125002Y-110209998D02*
X88125002Y-116728709D01*
X84908674Y-106993670D02*
X88125002Y-110209998D01*
X72206736Y-113840497D02*
X79053563Y-106993670D01*
X79053563Y-106993670D02*
X84908674Y-106993670D01*
X87130000Y-117723711D02*
X87130000Y-120450000D01*
X72206736Y-117993264D02*
X72206736Y-113840497D01*
X88125002Y-116728709D02*
X87130000Y-117723711D01*
X88252624Y-121747376D02*
X87160000Y-120654752D01*
X87160000Y-120654752D02*
X87160000Y-119200000D01*
X85346447Y-115100000D02*
X85700000Y-115100000D01*
X82087844Y-115100000D02*
X85346447Y-115100000D01*
X78387844Y-111400000D02*
X82087844Y-115100000D01*
X76400000Y-111400000D02*
X78387844Y-111400000D01*
X97290000Y-129400000D02*
X98700000Y-127990000D01*
X98700000Y-127990000D02*
X98700000Y-123450000D01*
X98700000Y-123450000D02*
X97050000Y-121800000D01*
X97050000Y-121800000D02*
X91900000Y-121800000D01*
X91900000Y-121800000D02*
X90970000Y-120870000D01*
X90970000Y-120870000D02*
X90970000Y-119200000D01*
X73800000Y-114000000D02*
X76400000Y-111400000D01*
X73800000Y-117200000D02*
X73800000Y-114000000D01*
X90940000Y-119200000D02*
X90940000Y-117340000D01*
X90940000Y-117340000D02*
X90800000Y-117200000D01*
X77307122Y-124300000D02*
X78299984Y-124300000D01*
X76200000Y-125407122D02*
X77307122Y-124300000D01*
X76200000Y-126400000D02*
X76200000Y-125407122D01*
X78500000Y-89500000D02*
X77450000Y-89500000D01*
X77450000Y-89500000D02*
X77250000Y-89300000D01*
X77200000Y-93100000D02*
X78500012Y-93100000D01*
X74650000Y-89300000D02*
X74650000Y-90550000D01*
X74650000Y-90550000D02*
X77200000Y-93100000D01*
X83982998Y-110500000D02*
X84846447Y-110500000D01*
X82157998Y-112325000D02*
X83982998Y-110500000D01*
X84846447Y-110500000D02*
X85200000Y-110500000D01*
X81400000Y-112325000D02*
X82157998Y-112325000D01*
X78500004Y-119000000D02*
X78500000Y-118999996D01*
X80400000Y-119000000D02*
X78500004Y-119000000D01*
X78175030Y-113974970D02*
X78364230Y-113974970D01*
X76200000Y-115950000D02*
X78175030Y-113974970D01*
X76200000Y-117200000D02*
X76200000Y-115950000D01*
X78364230Y-113974970D02*
X78717783Y-113974970D01*
X81400000Y-111125000D02*
X82375000Y-111125000D01*
X82375000Y-111125000D02*
X83700000Y-109800000D01*
X83700000Y-109800000D02*
X83700000Y-108800000D01*
X83700000Y-108800000D02*
X83750000Y-108750000D01*
X84975000Y-103175000D02*
X81400000Y-103175000D01*
X88625012Y-106825012D02*
X84975000Y-103175000D01*
X88625012Y-118974988D02*
X88625012Y-106825012D01*
X88400000Y-119200000D02*
X88625012Y-118974988D01*
X83632122Y-95675000D02*
X81400000Y-95675000D01*
X92210000Y-104252878D02*
X83632122Y-95675000D01*
X92210000Y-119200000D02*
X92210000Y-104252878D01*
X94400000Y-117646447D02*
X94400000Y-118000000D01*
X94400000Y-105525000D02*
X94400000Y-117646447D01*
X81400000Y-93175000D02*
X82050000Y-93175000D01*
X82050000Y-93175000D02*
X94400000Y-105525000D01*
X95646447Y-124100002D02*
X96000000Y-124100002D01*
X91789998Y-124100002D02*
X95646447Y-124100002D01*
X90940000Y-124950000D02*
X91789998Y-124100002D01*
X90940000Y-126200000D02*
X90940000Y-124950000D01*
X54300000Y-133250000D02*
X52000000Y-133250000D01*
X75400000Y-127650000D02*
X74625065Y-128424935D01*
X70653553Y-129025013D02*
X70300000Y-129025013D01*
X73814222Y-128900022D02*
X70778544Y-128900022D01*
X74289309Y-128424935D02*
X73814222Y-128900022D01*
X75400000Y-126400000D02*
X75400000Y-127650000D01*
X70778544Y-128900022D02*
X70653553Y-129025013D01*
X74625065Y-128424935D02*
X74289309Y-128424935D01*
X56491991Y-130708009D02*
X54341991Y-130708009D01*
X54341991Y-130708009D02*
X54300000Y-130750000D01*
X67900000Y-109000000D02*
X70700000Y-109000000D01*
X70700000Y-109000000D02*
X71200000Y-109500000D01*
X72749982Y-109500000D02*
X73499537Y-110249555D01*
X71200000Y-109500000D02*
X72749982Y-109500000D01*
X73249992Y-107000000D02*
X70300000Y-107000000D01*
X70300000Y-107000000D02*
X68900000Y-105600000D01*
X68900000Y-105600000D02*
X67900000Y-105600000D01*
X74600000Y-121499976D02*
X74299994Y-121799982D01*
X74600000Y-117200000D02*
X74600000Y-121499976D01*
X83474999Y-115674999D02*
X84050001Y-116250001D01*
X79464212Y-113349968D02*
X81789243Y-115674999D01*
X78000032Y-113349968D02*
X79464212Y-113349968D01*
X81789243Y-115674999D02*
X83474999Y-115674999D01*
X75400000Y-115950000D02*
X78000032Y-113349968D01*
X75400000Y-117200000D02*
X75400000Y-115950000D01*
X84050001Y-116250001D02*
X84300000Y-116500000D01*
X85853553Y-121200000D02*
X85500000Y-121200000D01*
X89670000Y-126200000D02*
X89670000Y-124950000D01*
X85920000Y-121200000D02*
X85853553Y-121200000D01*
X89670000Y-124950000D02*
X85920000Y-121200000D01*
X60000000Y-102246447D02*
X60000000Y-102600000D01*
X55500000Y-96600000D02*
X60000000Y-101100000D01*
X60000000Y-101100000D02*
X60000000Y-102246447D01*
X62400000Y-99500000D02*
X62374990Y-99500000D01*
X62700000Y-105100000D02*
X62400000Y-104800000D01*
X62400000Y-104800000D02*
X62400000Y-99500000D01*
X78750000Y-120200000D02*
X77800000Y-120200000D01*
X80400000Y-119800000D02*
X79150000Y-119800000D01*
X79150000Y-119800000D02*
X78750000Y-120200000D01*
D38*
G36*
X68601939Y-87262421D02*
X68848500Y-87427168D01*
X69139340Y-87485020D01*
X69722527Y-87485020D01*
X69873000Y-87547502D01*
X69873000Y-95119685D01*
X69821183Y-95067777D01*
X69496026Y-94932760D01*
X69438244Y-94932710D01*
X69494733Y-94796670D01*
X69495265Y-94186009D01*
X69262068Y-93621629D01*
X68830643Y-93189449D01*
X68266670Y-92955267D01*
X67656009Y-92954735D01*
X67538313Y-93003366D01*
X68158362Y-92384398D01*
X68514593Y-91526498D01*
X68515404Y-90597578D01*
X68160671Y-89739057D01*
X67504398Y-89081638D01*
X66646498Y-88725407D01*
X65717578Y-88724596D01*
X64859057Y-89079329D01*
X64201638Y-89735602D01*
X63845407Y-90593502D01*
X63844596Y-91522422D01*
X64199329Y-92380943D01*
X64855602Y-93038362D01*
X65713502Y-93394593D01*
X66642422Y-93395404D01*
X67054259Y-93225237D01*
X66659449Y-93619357D01*
X66425267Y-94183330D01*
X66424735Y-94793991D01*
X66657932Y-95358371D01*
X67089357Y-95790551D01*
X67175174Y-95826186D01*
X67061360Y-95940000D01*
X64896427Y-95940000D01*
X65034803Y-95606756D01*
X65035197Y-95155225D01*
X64862767Y-94737914D01*
X64543765Y-94418355D01*
X64126756Y-94245197D01*
X63704436Y-94244828D01*
X63670107Y-94210499D01*
X63885217Y-94173352D01*
X64028112Y-93745028D01*
X63996217Y-93294625D01*
X63885217Y-93026648D01*
X63670104Y-92989501D01*
X63059605Y-93600000D01*
X63073748Y-93614143D01*
X62894143Y-93793748D01*
X62880000Y-93779605D01*
X62865858Y-93793748D01*
X62686253Y-93614143D01*
X62700395Y-93600000D01*
X62089896Y-92989501D01*
X61874783Y-93026648D01*
X61855299Y-93085051D01*
X61802767Y-92957914D01*
X61655007Y-92809896D01*
X62269501Y-92809896D01*
X62880000Y-93420395D01*
X63490499Y-92809896D01*
X63453352Y-92594783D01*
X63025028Y-92451888D01*
X62574625Y-92483783D01*
X62306648Y-92594783D01*
X62269501Y-92809896D01*
X61655007Y-92809896D01*
X61483765Y-92638355D01*
X61066756Y-92465197D01*
X60615225Y-92464803D01*
X60197914Y-92637233D01*
X59878355Y-92956235D01*
X59820071Y-93096599D01*
X59762767Y-92957914D01*
X59443765Y-92638355D01*
X59026756Y-92465197D01*
X58575225Y-92464803D01*
X58157914Y-92637233D01*
X57838355Y-92956235D01*
X57780071Y-93096599D01*
X57722767Y-92957914D01*
X57403765Y-92638355D01*
X56986756Y-92465197D01*
X56535225Y-92464803D01*
X56117914Y-92637233D01*
X55798355Y-92956235D01*
X55625197Y-93373244D01*
X55624803Y-93824775D01*
X55797233Y-94242086D01*
X56116235Y-94561645D01*
X56533244Y-94734803D01*
X56819539Y-94735053D01*
X56818355Y-94736235D01*
X56645197Y-95153244D01*
X56644803Y-95604775D01*
X56817233Y-96022086D01*
X57136235Y-96341645D01*
X57553244Y-96514803D01*
X58004775Y-96515197D01*
X58422086Y-96342767D01*
X58741645Y-96023765D01*
X58799929Y-95883401D01*
X58857233Y-96022086D01*
X59176235Y-96341645D01*
X59593244Y-96514803D01*
X59880251Y-96515053D01*
X62044275Y-98679077D01*
X61874333Y-98749296D01*
X61625161Y-98998033D01*
X61490144Y-99323190D01*
X61489837Y-99675265D01*
X61624286Y-100000657D01*
X61640000Y-100016398D01*
X61640000Y-104800000D01*
X61697852Y-105090839D01*
X61814855Y-105265947D01*
X61814847Y-105275265D01*
X61949296Y-105600657D01*
X62198033Y-105849829D01*
X62523190Y-105984846D01*
X62875265Y-105985153D01*
X63200657Y-105850704D01*
X63449829Y-105601967D01*
X63584846Y-105276810D01*
X63585153Y-104924735D01*
X63450704Y-104599343D01*
X63201967Y-104350171D01*
X63160000Y-104332745D01*
X63160000Y-102034802D01*
X63940000Y-102814802D01*
X63940000Y-109250000D01*
X63997852Y-109540839D01*
X64162599Y-109787401D01*
X65002560Y-110627362D01*
X65002560Y-111200000D01*
X65046838Y-111435317D01*
X65063691Y-111461507D01*
X64837600Y-111687598D01*
X64733968Y-111842695D01*
X64426810Y-111715152D01*
X64074735Y-111714845D01*
X63749343Y-111849294D01*
X63500171Y-112098031D01*
X63365154Y-112423188D01*
X63364847Y-112775263D01*
X63499296Y-113100655D01*
X63748033Y-113349827D01*
X64040000Y-113471062D01*
X64040000Y-115385198D01*
X63185198Y-116240000D01*
X61377473Y-116240000D01*
X61099291Y-116124489D01*
X58900255Y-113925453D01*
X58900255Y-113304736D01*
X59025101Y-113004073D01*
X59025408Y-112651998D01*
X58890959Y-112326606D01*
X58642222Y-112077434D01*
X58317065Y-111942417D01*
X57964990Y-111942110D01*
X57639598Y-112076559D01*
X57390426Y-112325296D01*
X57255409Y-112650453D01*
X57255102Y-113002528D01*
X57380255Y-113305422D01*
X57380255Y-114240255D01*
X57438107Y-114531094D01*
X57602854Y-114777656D01*
X59091222Y-116266024D01*
X58931212Y-116297852D01*
X58684650Y-116462599D01*
X57587715Y-117559534D01*
X57538327Y-117440302D01*
X57359699Y-117261673D01*
X57126310Y-117165000D01*
X54285750Y-117165000D01*
X54127000Y-117323750D01*
X54127000Y-118673000D01*
X54147000Y-118673000D01*
X54147000Y-118927000D01*
X54127000Y-118927000D01*
X54127000Y-120276250D01*
X54285750Y-120435000D01*
X57126310Y-120435000D01*
X57343508Y-120345034D01*
X57498033Y-120499829D01*
X57823190Y-120634846D01*
X58175265Y-120635153D01*
X58500657Y-120500704D01*
X58663218Y-120338427D01*
X58748110Y-120396431D01*
X59000000Y-120447440D01*
X65000000Y-120447440D01*
X65027560Y-120442254D01*
X65027560Y-120550000D01*
X65071838Y-120785317D01*
X65210910Y-121001441D01*
X65280711Y-121049134D01*
X65223559Y-121085910D01*
X65078569Y-121298110D01*
X65027560Y-121550000D01*
X65027560Y-122688580D01*
X63900233Y-123815907D01*
X63599353Y-123940228D01*
X63350181Y-124188965D01*
X63224499Y-124491641D01*
X59126137Y-128590003D01*
X58924735Y-128589827D01*
X58621841Y-128714980D01*
X53150020Y-128714980D01*
X52859181Y-128772832D01*
X52765588Y-128835369D01*
X52750702Y-128799343D01*
X52501965Y-128550171D01*
X52176808Y-128415154D01*
X51824733Y-128414847D01*
X51499341Y-128549296D01*
X51250169Y-128798033D01*
X51115152Y-129123190D01*
X51114899Y-129412786D01*
X50923559Y-129535910D01*
X50778569Y-129748110D01*
X50727560Y-130000000D01*
X50727560Y-131500000D01*
X50771838Y-131735317D01*
X50910910Y-131951441D01*
X50980711Y-131999134D01*
X50923559Y-132035910D01*
X50778569Y-132248110D01*
X50727560Y-132500000D01*
X50727560Y-134000000D01*
X50771838Y-134235317D01*
X50823113Y-134315000D01*
X50685000Y-134315000D01*
X50685000Y-120356842D01*
X50873690Y-120435000D01*
X53714250Y-120435000D01*
X53873000Y-120276250D01*
X53873000Y-118927000D01*
X53853000Y-118927000D01*
X53853000Y-118673000D01*
X53873000Y-118673000D01*
X53873000Y-117323750D01*
X53714250Y-117165000D01*
X53412110Y-117165000D01*
X53326980Y-112397733D01*
X53318315Y-112353841D01*
X53291035Y-112311447D01*
X53273000Y-112299124D01*
X53273000Y-107427000D01*
X53527000Y-107427000D01*
X53527000Y-113026250D01*
X53685750Y-113185000D01*
X54526310Y-113185000D01*
X54759699Y-113088327D01*
X54938327Y-112909698D01*
X55035000Y-112676309D01*
X55035000Y-107585750D01*
X54876250Y-107427000D01*
X53527000Y-107427000D01*
X53273000Y-107427000D01*
X51923750Y-107427000D01*
X51765000Y-107585750D01*
X51765000Y-112676309D01*
X51861673Y-112909698D01*
X52040301Y-113088327D01*
X52273690Y-113185000D01*
X52473000Y-113185000D01*
X52473000Y-117165000D01*
X50873690Y-117165000D01*
X50685000Y-117243158D01*
X50685000Y-98989802D01*
X51594998Y-99899800D01*
X51585241Y-99923298D01*
X51584760Y-100474285D01*
X51795169Y-100983515D01*
X52184436Y-101373461D01*
X52284473Y-101415000D01*
X52273690Y-101415000D01*
X52040301Y-101511673D01*
X51861673Y-101690302D01*
X51765000Y-101923691D01*
X51765000Y-107014250D01*
X51923750Y-107173000D01*
X53273000Y-107173000D01*
X53273000Y-107153000D01*
X53527000Y-107153000D01*
X53527000Y-107173000D01*
X54876250Y-107173000D01*
X55035000Y-107014250D01*
X55035000Y-101923691D01*
X54938327Y-101690302D01*
X54759699Y-101511673D01*
X54526310Y-101415000D01*
X53685750Y-101415000D01*
X53527002Y-101573748D01*
X53527002Y-101468424D01*
X53753515Y-101374831D01*
X54115289Y-101013687D01*
X54474436Y-101373461D01*
X54983298Y-101584759D01*
X55534285Y-101585240D01*
X56043515Y-101374831D01*
X56433461Y-100985564D01*
X56644759Y-100476702D01*
X56645240Y-99925715D01*
X56434831Y-99416485D01*
X56045564Y-99026539D01*
X55536702Y-98815241D01*
X54985715Y-98814760D01*
X54476485Y-99025169D01*
X54114711Y-99386313D01*
X53755564Y-99026539D01*
X53246702Y-98815241D01*
X52695715Y-98814760D01*
X52670132Y-98825330D01*
X51184999Y-97340197D01*
X51184999Y-96775265D01*
X54614847Y-96775265D01*
X54749296Y-97100657D01*
X54998033Y-97349829D01*
X55300709Y-97475511D01*
X59240000Y-101414802D01*
X59240000Y-102122527D01*
X59115154Y-102423190D01*
X59114847Y-102775265D01*
X59249296Y-103100657D01*
X59498033Y-103349829D01*
X59823190Y-103484846D01*
X60175265Y-103485153D01*
X60500657Y-103350704D01*
X60749829Y-103101967D01*
X60884846Y-102776810D01*
X60885153Y-102424735D01*
X60760000Y-102121841D01*
X60760000Y-101100000D01*
X60702148Y-100809161D01*
X60537401Y-100562599D01*
X56375025Y-96400223D01*
X56250704Y-96099343D01*
X56001967Y-95850171D01*
X55676810Y-95715154D01*
X55324735Y-95714847D01*
X54999343Y-95849296D01*
X54750171Y-96098033D01*
X54615154Y-96423190D01*
X54614847Y-96775265D01*
X51184999Y-96775265D01*
X51184999Y-95938226D01*
X51393330Y-96024733D01*
X52003991Y-96025265D01*
X52568371Y-95792068D01*
X53000551Y-95360643D01*
X53234733Y-94796670D01*
X53235265Y-94186009D01*
X53002068Y-93621629D01*
X52606879Y-93225749D01*
X53013502Y-93394593D01*
X53942422Y-93395404D01*
X54800943Y-93040671D01*
X55458362Y-92384398D01*
X55814593Y-91526498D01*
X55815404Y-90597578D01*
X55460671Y-89739057D01*
X54804398Y-89081638D01*
X53946498Y-88725407D01*
X53017578Y-88724596D01*
X52159057Y-89079329D01*
X51501638Y-89735602D01*
X51184999Y-90498154D01*
X51184999Y-88889803D01*
X53614802Y-86460000D01*
X67799518Y-86460000D01*
X68601939Y-87262421D01*
X68601939Y-87262421D01*
G37*
X68601939Y-87262421D02*
X68848500Y-87427168D01*
X69139340Y-87485020D01*
X69722527Y-87485020D01*
X69873000Y-87547502D01*
X69873000Y-95119685D01*
X69821183Y-95067777D01*
X69496026Y-94932760D01*
X69438244Y-94932710D01*
X69494733Y-94796670D01*
X69495265Y-94186009D01*
X69262068Y-93621629D01*
X68830643Y-93189449D01*
X68266670Y-92955267D01*
X67656009Y-92954735D01*
X67538313Y-93003366D01*
X68158362Y-92384398D01*
X68514593Y-91526498D01*
X68515404Y-90597578D01*
X68160671Y-89739057D01*
X67504398Y-89081638D01*
X66646498Y-88725407D01*
X65717578Y-88724596D01*
X64859057Y-89079329D01*
X64201638Y-89735602D01*
X63845407Y-90593502D01*
X63844596Y-91522422D01*
X64199329Y-92380943D01*
X64855602Y-93038362D01*
X65713502Y-93394593D01*
X66642422Y-93395404D01*
X67054259Y-93225237D01*
X66659449Y-93619357D01*
X66425267Y-94183330D01*
X66424735Y-94793991D01*
X66657932Y-95358371D01*
X67089357Y-95790551D01*
X67175174Y-95826186D01*
X67061360Y-95940000D01*
X64896427Y-95940000D01*
X65034803Y-95606756D01*
X65035197Y-95155225D01*
X64862767Y-94737914D01*
X64543765Y-94418355D01*
X64126756Y-94245197D01*
X63704436Y-94244828D01*
X63670107Y-94210499D01*
X63885217Y-94173352D01*
X64028112Y-93745028D01*
X63996217Y-93294625D01*
X63885217Y-93026648D01*
X63670104Y-92989501D01*
X63059605Y-93600000D01*
X63073748Y-93614143D01*
X62894143Y-93793748D01*
X62880000Y-93779605D01*
X62865858Y-93793748D01*
X62686253Y-93614143D01*
X62700395Y-93600000D01*
X62089896Y-92989501D01*
X61874783Y-93026648D01*
X61855299Y-93085051D01*
X61802767Y-92957914D01*
X61655007Y-92809896D01*
X62269501Y-92809896D01*
X62880000Y-93420395D01*
X63490499Y-92809896D01*
X63453352Y-92594783D01*
X63025028Y-92451888D01*
X62574625Y-92483783D01*
X62306648Y-92594783D01*
X62269501Y-92809896D01*
X61655007Y-92809896D01*
X61483765Y-92638355D01*
X61066756Y-92465197D01*
X60615225Y-92464803D01*
X60197914Y-92637233D01*
X59878355Y-92956235D01*
X59820071Y-93096599D01*
X59762767Y-92957914D01*
X59443765Y-92638355D01*
X59026756Y-92465197D01*
X58575225Y-92464803D01*
X58157914Y-92637233D01*
X57838355Y-92956235D01*
X57780071Y-93096599D01*
X57722767Y-92957914D01*
X57403765Y-92638355D01*
X56986756Y-92465197D01*
X56535225Y-92464803D01*
X56117914Y-92637233D01*
X55798355Y-92956235D01*
X55625197Y-93373244D01*
X55624803Y-93824775D01*
X55797233Y-94242086D01*
X56116235Y-94561645D01*
X56533244Y-94734803D01*
X56819539Y-94735053D01*
X56818355Y-94736235D01*
X56645197Y-95153244D01*
X56644803Y-95604775D01*
X56817233Y-96022086D01*
X57136235Y-96341645D01*
X57553244Y-96514803D01*
X58004775Y-96515197D01*
X58422086Y-96342767D01*
X58741645Y-96023765D01*
X58799929Y-95883401D01*
X58857233Y-96022086D01*
X59176235Y-96341645D01*
X59593244Y-96514803D01*
X59880251Y-96515053D01*
X62044275Y-98679077D01*
X61874333Y-98749296D01*
X61625161Y-98998033D01*
X61490144Y-99323190D01*
X61489837Y-99675265D01*
X61624286Y-100000657D01*
X61640000Y-100016398D01*
X61640000Y-104800000D01*
X61697852Y-105090839D01*
X61814855Y-105265947D01*
X61814847Y-105275265D01*
X61949296Y-105600657D01*
X62198033Y-105849829D01*
X62523190Y-105984846D01*
X62875265Y-105985153D01*
X63200657Y-105850704D01*
X63449829Y-105601967D01*
X63584846Y-105276810D01*
X63585153Y-104924735D01*
X63450704Y-104599343D01*
X63201967Y-104350171D01*
X63160000Y-104332745D01*
X63160000Y-102034802D01*
X63940000Y-102814802D01*
X63940000Y-109250000D01*
X63997852Y-109540839D01*
X64162599Y-109787401D01*
X65002560Y-110627362D01*
X65002560Y-111200000D01*
X65046838Y-111435317D01*
X65063691Y-111461507D01*
X64837600Y-111687598D01*
X64733968Y-111842695D01*
X64426810Y-111715152D01*
X64074735Y-111714845D01*
X63749343Y-111849294D01*
X63500171Y-112098031D01*
X63365154Y-112423188D01*
X63364847Y-112775263D01*
X63499296Y-113100655D01*
X63748033Y-113349827D01*
X64040000Y-113471062D01*
X64040000Y-115385198D01*
X63185198Y-116240000D01*
X61377473Y-116240000D01*
X61099291Y-116124489D01*
X58900255Y-113925453D01*
X58900255Y-113304736D01*
X59025101Y-113004073D01*
X59025408Y-112651998D01*
X58890959Y-112326606D01*
X58642222Y-112077434D01*
X58317065Y-111942417D01*
X57964990Y-111942110D01*
X57639598Y-112076559D01*
X57390426Y-112325296D01*
X57255409Y-112650453D01*
X57255102Y-113002528D01*
X57380255Y-113305422D01*
X57380255Y-114240255D01*
X57438107Y-114531094D01*
X57602854Y-114777656D01*
X59091222Y-116266024D01*
X58931212Y-116297852D01*
X58684650Y-116462599D01*
X57587715Y-117559534D01*
X57538327Y-117440302D01*
X57359699Y-117261673D01*
X57126310Y-117165000D01*
X54285750Y-117165000D01*
X54127000Y-117323750D01*
X54127000Y-118673000D01*
X54147000Y-118673000D01*
X54147000Y-118927000D01*
X54127000Y-118927000D01*
X54127000Y-120276250D01*
X54285750Y-120435000D01*
X57126310Y-120435000D01*
X57343508Y-120345034D01*
X57498033Y-120499829D01*
X57823190Y-120634846D01*
X58175265Y-120635153D01*
X58500657Y-120500704D01*
X58663218Y-120338427D01*
X58748110Y-120396431D01*
X59000000Y-120447440D01*
X65000000Y-120447440D01*
X65027560Y-120442254D01*
X65027560Y-120550000D01*
X65071838Y-120785317D01*
X65210910Y-121001441D01*
X65280711Y-121049134D01*
X65223559Y-121085910D01*
X65078569Y-121298110D01*
X65027560Y-121550000D01*
X65027560Y-122688580D01*
X63900233Y-123815907D01*
X63599353Y-123940228D01*
X63350181Y-124188965D01*
X63224499Y-124491641D01*
X59126137Y-128590003D01*
X58924735Y-128589827D01*
X58621841Y-128714980D01*
X53150020Y-128714980D01*
X52859181Y-128772832D01*
X52765588Y-128835369D01*
X52750702Y-128799343D01*
X52501965Y-128550171D01*
X52176808Y-128415154D01*
X51824733Y-128414847D01*
X51499341Y-128549296D01*
X51250169Y-128798033D01*
X51115152Y-129123190D01*
X51114899Y-129412786D01*
X50923559Y-129535910D01*
X50778569Y-129748110D01*
X50727560Y-130000000D01*
X50727560Y-131500000D01*
X50771838Y-131735317D01*
X50910910Y-131951441D01*
X50980711Y-131999134D01*
X50923559Y-132035910D01*
X50778569Y-132248110D01*
X50727560Y-132500000D01*
X50727560Y-134000000D01*
X50771838Y-134235317D01*
X50823113Y-134315000D01*
X50685000Y-134315000D01*
X50685000Y-120356842D01*
X50873690Y-120435000D01*
X53714250Y-120435000D01*
X53873000Y-120276250D01*
X53873000Y-118927000D01*
X53853000Y-118927000D01*
X53853000Y-118673000D01*
X53873000Y-118673000D01*
X53873000Y-117323750D01*
X53714250Y-117165000D01*
X53412110Y-117165000D01*
X53326980Y-112397733D01*
X53318315Y-112353841D01*
X53291035Y-112311447D01*
X53273000Y-112299124D01*
X53273000Y-107427000D01*
X53527000Y-107427000D01*
X53527000Y-113026250D01*
X53685750Y-113185000D01*
X54526310Y-113185000D01*
X54759699Y-113088327D01*
X54938327Y-112909698D01*
X55035000Y-112676309D01*
X55035000Y-107585750D01*
X54876250Y-107427000D01*
X53527000Y-107427000D01*
X53273000Y-107427000D01*
X51923750Y-107427000D01*
X51765000Y-107585750D01*
X51765000Y-112676309D01*
X51861673Y-112909698D01*
X52040301Y-113088327D01*
X52273690Y-113185000D01*
X52473000Y-113185000D01*
X52473000Y-117165000D01*
X50873690Y-117165000D01*
X50685000Y-117243158D01*
X50685000Y-98989802D01*
X51594998Y-99899800D01*
X51585241Y-99923298D01*
X51584760Y-100474285D01*
X51795169Y-100983515D01*
X52184436Y-101373461D01*
X52284473Y-101415000D01*
X52273690Y-101415000D01*
X52040301Y-101511673D01*
X51861673Y-101690302D01*
X51765000Y-101923691D01*
X51765000Y-107014250D01*
X51923750Y-107173000D01*
X53273000Y-107173000D01*
X53273000Y-107153000D01*
X53527000Y-107153000D01*
X53527000Y-107173000D01*
X54876250Y-107173000D01*
X55035000Y-107014250D01*
X55035000Y-101923691D01*
X54938327Y-101690302D01*
X54759699Y-101511673D01*
X54526310Y-101415000D01*
X53685750Y-101415000D01*
X53527002Y-101573748D01*
X53527002Y-101468424D01*
X53753515Y-101374831D01*
X54115289Y-101013687D01*
X54474436Y-101373461D01*
X54983298Y-101584759D01*
X55534285Y-101585240D01*
X56043515Y-101374831D01*
X56433461Y-100985564D01*
X56644759Y-100476702D01*
X56645240Y-99925715D01*
X56434831Y-99416485D01*
X56045564Y-99026539D01*
X55536702Y-98815241D01*
X54985715Y-98814760D01*
X54476485Y-99025169D01*
X54114711Y-99386313D01*
X53755564Y-99026539D01*
X53246702Y-98815241D01*
X52695715Y-98814760D01*
X52670132Y-98825330D01*
X51184999Y-97340197D01*
X51184999Y-96775265D01*
X54614847Y-96775265D01*
X54749296Y-97100657D01*
X54998033Y-97349829D01*
X55300709Y-97475511D01*
X59240000Y-101414802D01*
X59240000Y-102122527D01*
X59115154Y-102423190D01*
X59114847Y-102775265D01*
X59249296Y-103100657D01*
X59498033Y-103349829D01*
X59823190Y-103484846D01*
X60175265Y-103485153D01*
X60500657Y-103350704D01*
X60749829Y-103101967D01*
X60884846Y-102776810D01*
X60885153Y-102424735D01*
X60760000Y-102121841D01*
X60760000Y-101100000D01*
X60702148Y-100809161D01*
X60537401Y-100562599D01*
X56375025Y-96400223D01*
X56250704Y-96099343D01*
X56001967Y-95850171D01*
X55676810Y-95715154D01*
X55324735Y-95714847D01*
X54999343Y-95849296D01*
X54750171Y-96098033D01*
X54615154Y-96423190D01*
X54614847Y-96775265D01*
X51184999Y-96775265D01*
X51184999Y-95938226D01*
X51393330Y-96024733D01*
X52003991Y-96025265D01*
X52568371Y-95792068D01*
X53000551Y-95360643D01*
X53234733Y-94796670D01*
X53235265Y-94186009D01*
X53002068Y-93621629D01*
X52606879Y-93225749D01*
X53013502Y-93394593D01*
X53942422Y-93395404D01*
X54800943Y-93040671D01*
X55458362Y-92384398D01*
X55814593Y-91526498D01*
X55815404Y-90597578D01*
X55460671Y-89739057D01*
X54804398Y-89081638D01*
X53946498Y-88725407D01*
X53017578Y-88724596D01*
X52159057Y-89079329D01*
X51501638Y-89735602D01*
X51184999Y-90498154D01*
X51184999Y-88889803D01*
X53614802Y-86460000D01*
X67799518Y-86460000D01*
X68601939Y-87262421D01*
G36*
X69658311Y-107433113D02*
X69498559Y-107535910D01*
X69353569Y-107748110D01*
X69302560Y-108000000D01*
X69302560Y-108240000D01*
X69237279Y-108240000D01*
X69186671Y-108161354D01*
X69188327Y-108159698D01*
X69285000Y-107926309D01*
X69285000Y-107585750D01*
X69126250Y-107427000D01*
X67277000Y-107427000D01*
X67277000Y-107447000D01*
X67023000Y-107447000D01*
X67023000Y-107427000D01*
X67003000Y-107427000D01*
X67003000Y-107173000D01*
X67023000Y-107173000D01*
X67023000Y-107153000D01*
X67277000Y-107153000D01*
X67277000Y-107173000D01*
X69126250Y-107173000D01*
X69262224Y-107037026D01*
X69658311Y-107433113D01*
X69658311Y-107433113D01*
G37*
X69658311Y-107433113D02*
X69498559Y-107535910D01*
X69353569Y-107748110D01*
X69302560Y-108000000D01*
X69302560Y-108240000D01*
X69237279Y-108240000D01*
X69186671Y-108161354D01*
X69188327Y-108159698D01*
X69285000Y-107926309D01*
X69285000Y-107585750D01*
X69126250Y-107427000D01*
X67277000Y-107427000D01*
X67277000Y-107447000D01*
X67023000Y-107447000D01*
X67023000Y-107427000D01*
X67003000Y-107427000D01*
X67003000Y-107173000D01*
X67023000Y-107173000D01*
X67023000Y-107153000D01*
X67277000Y-107153000D01*
X67277000Y-107173000D01*
X69126250Y-107173000D01*
X69262224Y-107037026D01*
X69658311Y-107433113D01*
G36*
X65525001Y-102085001D02*
X69873000Y-102085001D01*
X69873000Y-102365000D01*
X69823690Y-102365000D01*
X69590301Y-102461673D01*
X69411673Y-102640302D01*
X69315000Y-102873691D01*
X69315000Y-104214250D01*
X69473750Y-104373000D01*
X69873000Y-104373000D01*
X69873000Y-104627000D01*
X69473750Y-104627000D01*
X69315000Y-104785750D01*
X69315000Y-104980813D01*
X69269263Y-104950253D01*
X69253162Y-104864683D01*
X69186671Y-104761354D01*
X69188327Y-104759698D01*
X69285000Y-104526309D01*
X69285000Y-104185750D01*
X69126250Y-104027000D01*
X67277000Y-104027000D01*
X67277000Y-104047000D01*
X67023000Y-104047000D01*
X67023000Y-104027000D01*
X67003000Y-104027000D01*
X67003000Y-103773000D01*
X67023000Y-103773000D01*
X67023000Y-102923750D01*
X67277000Y-102923750D01*
X67277000Y-103773000D01*
X69126250Y-103773000D01*
X69285000Y-103614250D01*
X69285000Y-103273691D01*
X69188327Y-103040302D01*
X69009699Y-102861673D01*
X68776310Y-102765000D01*
X67435750Y-102765000D01*
X67277000Y-102923750D01*
X67023000Y-102923750D01*
X66864250Y-102765000D01*
X65523690Y-102765000D01*
X65460000Y-102791381D01*
X65460000Y-102500000D01*
X65402148Y-102209161D01*
X65287639Y-102037786D01*
X65525001Y-102085001D01*
X65525001Y-102085001D01*
G37*
X65525001Y-102085001D02*
X69873000Y-102085001D01*
X69873000Y-102365000D01*
X69823690Y-102365000D01*
X69590301Y-102461673D01*
X69411673Y-102640302D01*
X69315000Y-102873691D01*
X69315000Y-104214250D01*
X69473750Y-104373000D01*
X69873000Y-104373000D01*
X69873000Y-104627000D01*
X69473750Y-104627000D01*
X69315000Y-104785750D01*
X69315000Y-104980813D01*
X69269263Y-104950253D01*
X69253162Y-104864683D01*
X69186671Y-104761354D01*
X69188327Y-104759698D01*
X69285000Y-104526309D01*
X69285000Y-104185750D01*
X69126250Y-104027000D01*
X67277000Y-104027000D01*
X67277000Y-104047000D01*
X67023000Y-104047000D01*
X67023000Y-104027000D01*
X67003000Y-104027000D01*
X67003000Y-103773000D01*
X67023000Y-103773000D01*
X67023000Y-102923750D01*
X67277000Y-102923750D01*
X67277000Y-103773000D01*
X69126250Y-103773000D01*
X69285000Y-103614250D01*
X69285000Y-103273691D01*
X69188327Y-103040302D01*
X69009699Y-102861673D01*
X68776310Y-102765000D01*
X67435750Y-102765000D01*
X67277000Y-102923750D01*
X67023000Y-102923750D01*
X66864250Y-102765000D01*
X65523690Y-102765000D01*
X65460000Y-102791381D01*
X65460000Y-102500000D01*
X65402148Y-102209161D01*
X65287639Y-102037786D01*
X65525001Y-102085001D01*
G36*
X92335000Y-126073000D02*
X92357000Y-126073000D01*
X92357000Y-126327000D01*
X92335000Y-126327000D01*
X92335000Y-128176250D01*
X92493750Y-128335000D01*
X92586309Y-128335000D01*
X92800781Y-128246163D01*
X92800781Y-133750000D01*
X92809466Y-133796159D01*
X92836746Y-133838553D01*
X92878371Y-133866994D01*
X92927781Y-133877000D01*
X99127781Y-133877000D01*
X99173940Y-133868315D01*
X99216334Y-133841035D01*
X99244775Y-133799410D01*
X99254781Y-133750000D01*
X99254781Y-128501390D01*
X99315000Y-128411266D01*
X99315000Y-134315000D01*
X92217440Y-134315000D01*
X92217440Y-131800000D01*
X92173162Y-131564683D01*
X92034090Y-131348559D01*
X91821890Y-131203569D01*
X91570000Y-131152560D01*
X91379615Y-131152560D01*
X91297782Y-130954508D01*
X91049045Y-130705336D01*
X90723888Y-130570319D01*
X90371813Y-130570012D01*
X90046421Y-130704461D01*
X89797249Y-130953198D01*
X89714467Y-131152560D01*
X89570000Y-131152560D01*
X89334683Y-131196838D01*
X89183973Y-131293817D01*
X89051890Y-131203569D01*
X88800000Y-131152560D01*
X88621875Y-131152560D01*
X88550701Y-130980305D01*
X88301964Y-130731133D01*
X87976807Y-130596116D01*
X87624732Y-130595809D01*
X87299340Y-130730258D01*
X87050168Y-130978995D01*
X86978098Y-131152560D01*
X86800000Y-131152560D01*
X86564683Y-131196838D01*
X86413973Y-131293817D01*
X86281890Y-131203569D01*
X86030000Y-131152560D01*
X85850316Y-131152560D01*
X85777614Y-130976608D01*
X85528877Y-130727436D01*
X85203720Y-130592419D01*
X84851645Y-130592112D01*
X84526253Y-130726561D01*
X84277081Y-130975298D01*
X84203475Y-131152560D01*
X84030000Y-131152560D01*
X83794683Y-131196838D01*
X83643973Y-131293817D01*
X83511890Y-131203569D01*
X83260000Y-131152560D01*
X83089305Y-131152560D01*
X83015685Y-130974385D01*
X82766948Y-130725213D01*
X82441791Y-130590196D01*
X82089716Y-130589889D01*
X81764324Y-130724338D01*
X81515152Y-130973075D01*
X81440623Y-131152560D01*
X81260000Y-131152560D01*
X81024683Y-131196838D01*
X80893640Y-131281162D01*
X83361624Y-128813178D01*
X83498037Y-128949829D01*
X83800713Y-129075511D01*
X84412603Y-129687401D01*
X84659165Y-129852148D01*
X84950004Y-129910000D01*
X85127962Y-129910000D01*
X85146838Y-130010317D01*
X85285910Y-130226441D01*
X85498110Y-130371431D01*
X85750000Y-130422440D01*
X87250000Y-130422440D01*
X87485317Y-130378162D01*
X87701441Y-130239090D01*
X87747969Y-130170994D01*
X87890302Y-130313327D01*
X88123691Y-130410000D01*
X88714250Y-130410000D01*
X88873000Y-130251250D01*
X88873000Y-129277000D01*
X89127000Y-129277000D01*
X89127000Y-130251250D01*
X89285750Y-130410000D01*
X89876309Y-130410000D01*
X90109698Y-130313327D01*
X90288327Y-130134699D01*
X90385000Y-129901310D01*
X90385000Y-129435750D01*
X90226250Y-129277000D01*
X89127000Y-129277000D01*
X88873000Y-129277000D01*
X88853000Y-129277000D01*
X88853000Y-129023000D01*
X88873000Y-129023000D01*
X88873000Y-129003000D01*
X89127000Y-129003000D01*
X89127000Y-129023000D01*
X90226250Y-129023000D01*
X90385000Y-128864250D01*
X90385000Y-128398690D01*
X90305422Y-128206572D01*
X90306027Y-128206183D01*
X90438110Y-128296431D01*
X90690000Y-128347440D01*
X91190000Y-128347440D01*
X91425317Y-128303162D01*
X91571239Y-128209264D01*
X91600302Y-128238327D01*
X91833691Y-128335000D01*
X91926250Y-128335000D01*
X92085000Y-128176250D01*
X92085000Y-126327000D01*
X92063000Y-126327000D01*
X92063000Y-126073000D01*
X92085000Y-126073000D01*
X92085000Y-126053000D01*
X92335000Y-126053000D01*
X92335000Y-126073000D01*
X92335000Y-126073000D01*
G37*
X92335000Y-126073000D02*
X92357000Y-126073000D01*
X92357000Y-126327000D01*
X92335000Y-126327000D01*
X92335000Y-128176250D01*
X92493750Y-128335000D01*
X92586309Y-128335000D01*
X92800781Y-128246163D01*
X92800781Y-133750000D01*
X92809466Y-133796159D01*
X92836746Y-133838553D01*
X92878371Y-133866994D01*
X92927781Y-133877000D01*
X99127781Y-133877000D01*
X99173940Y-133868315D01*
X99216334Y-133841035D01*
X99244775Y-133799410D01*
X99254781Y-133750000D01*
X99254781Y-128501390D01*
X99315000Y-128411266D01*
X99315000Y-134315000D01*
X92217440Y-134315000D01*
X92217440Y-131800000D01*
X92173162Y-131564683D01*
X92034090Y-131348559D01*
X91821890Y-131203569D01*
X91570000Y-131152560D01*
X91379615Y-131152560D01*
X91297782Y-130954508D01*
X91049045Y-130705336D01*
X90723888Y-130570319D01*
X90371813Y-130570012D01*
X90046421Y-130704461D01*
X89797249Y-130953198D01*
X89714467Y-131152560D01*
X89570000Y-131152560D01*
X89334683Y-131196838D01*
X89183973Y-131293817D01*
X89051890Y-131203569D01*
X88800000Y-131152560D01*
X88621875Y-131152560D01*
X88550701Y-130980305D01*
X88301964Y-130731133D01*
X87976807Y-130596116D01*
X87624732Y-130595809D01*
X87299340Y-130730258D01*
X87050168Y-130978995D01*
X86978098Y-131152560D01*
X86800000Y-131152560D01*
X86564683Y-131196838D01*
X86413973Y-131293817D01*
X86281890Y-131203569D01*
X86030000Y-131152560D01*
X85850316Y-131152560D01*
X85777614Y-130976608D01*
X85528877Y-130727436D01*
X85203720Y-130592419D01*
X84851645Y-130592112D01*
X84526253Y-130726561D01*
X84277081Y-130975298D01*
X84203475Y-131152560D01*
X84030000Y-131152560D01*
X83794683Y-131196838D01*
X83643973Y-131293817D01*
X83511890Y-131203569D01*
X83260000Y-131152560D01*
X83089305Y-131152560D01*
X83015685Y-130974385D01*
X82766948Y-130725213D01*
X82441791Y-130590196D01*
X82089716Y-130589889D01*
X81764324Y-130724338D01*
X81515152Y-130973075D01*
X81440623Y-131152560D01*
X81260000Y-131152560D01*
X81024683Y-131196838D01*
X80893640Y-131281162D01*
X83361624Y-128813178D01*
X83498037Y-128949829D01*
X83800713Y-129075511D01*
X84412603Y-129687401D01*
X84659165Y-129852148D01*
X84950004Y-129910000D01*
X85127962Y-129910000D01*
X85146838Y-130010317D01*
X85285910Y-130226441D01*
X85498110Y-130371431D01*
X85750000Y-130422440D01*
X87250000Y-130422440D01*
X87485317Y-130378162D01*
X87701441Y-130239090D01*
X87747969Y-130170994D01*
X87890302Y-130313327D01*
X88123691Y-130410000D01*
X88714250Y-130410000D01*
X88873000Y-130251250D01*
X88873000Y-129277000D01*
X89127000Y-129277000D01*
X89127000Y-130251250D01*
X89285750Y-130410000D01*
X89876309Y-130410000D01*
X90109698Y-130313327D01*
X90288327Y-130134699D01*
X90385000Y-129901310D01*
X90385000Y-129435750D01*
X90226250Y-129277000D01*
X89127000Y-129277000D01*
X88873000Y-129277000D01*
X88853000Y-129277000D01*
X88853000Y-129023000D01*
X88873000Y-129023000D01*
X88873000Y-129003000D01*
X89127000Y-129003000D01*
X89127000Y-129023000D01*
X90226250Y-129023000D01*
X90385000Y-128864250D01*
X90385000Y-128398690D01*
X90305422Y-128206572D01*
X90306027Y-128206183D01*
X90438110Y-128296431D01*
X90690000Y-128347440D01*
X91190000Y-128347440D01*
X91425317Y-128303162D01*
X91571239Y-128209264D01*
X91600302Y-128238327D01*
X91833691Y-128335000D01*
X91926250Y-128335000D01*
X92085000Y-128176250D01*
X92085000Y-126327000D01*
X92063000Y-126327000D01*
X92063000Y-126073000D01*
X92085000Y-126073000D01*
X92085000Y-126053000D01*
X92335000Y-126053000D01*
X92335000Y-126073000D01*
G36*
X82827000Y-122323000D02*
X82847000Y-122323000D01*
X82847000Y-122577000D01*
X82827000Y-122577000D01*
X82827000Y-123676250D01*
X82985750Y-123835000D01*
X83114999Y-123835000D01*
X83114999Y-126910199D01*
X82060000Y-127965198D01*
X82060000Y-126677473D01*
X82184846Y-126376810D01*
X82185153Y-126024735D01*
X82111515Y-125846517D01*
X82237402Y-125762402D01*
X82312402Y-125687402D01*
X82477149Y-125440840D01*
X82535001Y-125150001D01*
X82535001Y-123925001D01*
X82500035Y-123749215D01*
X82573000Y-123676250D01*
X82573000Y-122577000D01*
X82553000Y-122577000D01*
X82553000Y-122323000D01*
X82573000Y-122323000D01*
X82573000Y-122303000D01*
X82827000Y-122303000D01*
X82827000Y-122323000D01*
X82827000Y-122323000D01*
G37*
X82827000Y-122323000D02*
X82847000Y-122323000D01*
X82847000Y-122577000D01*
X82827000Y-122577000D01*
X82827000Y-123676250D01*
X82985750Y-123835000D01*
X83114999Y-123835000D01*
X83114999Y-126910199D01*
X82060000Y-127965198D01*
X82060000Y-126677473D01*
X82184846Y-126376810D01*
X82185153Y-126024735D01*
X82111515Y-125846517D01*
X82237402Y-125762402D01*
X82312402Y-125687402D01*
X82477149Y-125440840D01*
X82535001Y-125150001D01*
X82535001Y-123925001D01*
X82500035Y-123749215D01*
X82573000Y-123676250D01*
X82573000Y-122577000D01*
X82553000Y-122577000D01*
X82553000Y-122323000D01*
X82573000Y-122323000D01*
X82573000Y-122303000D01*
X82827000Y-122303000D01*
X82827000Y-122323000D01*
G36*
X88525000Y-126073000D02*
X88547000Y-126073000D01*
X88547000Y-126327000D01*
X88525000Y-126327000D01*
X88525000Y-126347000D01*
X88275000Y-126347000D01*
X88275000Y-126327000D01*
X88253000Y-126327000D01*
X88253000Y-126073000D01*
X88275000Y-126073000D01*
X88275000Y-126053000D01*
X88525000Y-126053000D01*
X88525000Y-126073000D01*
X88525000Y-126073000D01*
G37*
X88525000Y-126073000D02*
X88547000Y-126073000D01*
X88547000Y-126327000D01*
X88525000Y-126327000D01*
X88525000Y-126347000D01*
X88275000Y-126347000D01*
X88275000Y-126327000D01*
X88253000Y-126327000D01*
X88253000Y-126073000D01*
X88275000Y-126073000D01*
X88275000Y-126053000D01*
X88525000Y-126053000D01*
X88525000Y-126073000D01*
G36*
X84749296Y-121700657D02*
X84998033Y-121949829D01*
X85323190Y-122084846D01*
X85675265Y-122085153D01*
X85714245Y-122069047D01*
X87802018Y-124156820D01*
X87790302Y-124161673D01*
X87760518Y-124191457D01*
X87631890Y-124103569D01*
X87380000Y-124052560D01*
X86880000Y-124052560D01*
X86644683Y-124096838D01*
X86498761Y-124190736D01*
X86469698Y-124161673D01*
X86236309Y-124065000D01*
X86143750Y-124065000D01*
X85985000Y-124223750D01*
X85985000Y-126073000D01*
X86007000Y-126073000D01*
X86007000Y-126327000D01*
X85985000Y-126327000D01*
X85985000Y-126347000D01*
X85735000Y-126347000D01*
X85735000Y-126327000D01*
X84715000Y-126327000D01*
X84715000Y-126347000D01*
X84634999Y-126347000D01*
X84634999Y-126053000D01*
X84715000Y-126053000D01*
X84715000Y-126073000D01*
X85735000Y-126073000D01*
X85735000Y-124223750D01*
X85576250Y-124065000D01*
X85483691Y-124065000D01*
X85250302Y-124161673D01*
X85225000Y-124186975D01*
X85199698Y-124161673D01*
X84966309Y-124065000D01*
X84873750Y-124065000D01*
X84717002Y-124221748D01*
X84717002Y-124065000D01*
X84634999Y-124065000D01*
X84634999Y-121424037D01*
X84749296Y-121700657D01*
X84749296Y-121700657D01*
G37*
X84749296Y-121700657D02*
X84998033Y-121949829D01*
X85323190Y-122084846D01*
X85675265Y-122085153D01*
X85714245Y-122069047D01*
X87802018Y-124156820D01*
X87790302Y-124161673D01*
X87760518Y-124191457D01*
X87631890Y-124103569D01*
X87380000Y-124052560D01*
X86880000Y-124052560D01*
X86644683Y-124096838D01*
X86498761Y-124190736D01*
X86469698Y-124161673D01*
X86236309Y-124065000D01*
X86143750Y-124065000D01*
X85985000Y-124223750D01*
X85985000Y-126073000D01*
X86007000Y-126073000D01*
X86007000Y-126327000D01*
X85985000Y-126327000D01*
X85985000Y-126347000D01*
X85735000Y-126347000D01*
X85735000Y-126327000D01*
X84715000Y-126327000D01*
X84715000Y-126347000D01*
X84634999Y-126347000D01*
X84634999Y-126053000D01*
X84715000Y-126053000D01*
X84715000Y-126073000D01*
X85735000Y-126073000D01*
X85735000Y-124223750D01*
X85576250Y-124065000D01*
X85483691Y-124065000D01*
X85250302Y-124161673D01*
X85225000Y-124186975D01*
X85199698Y-124161673D01*
X84966309Y-124065000D01*
X84873750Y-124065000D01*
X84717002Y-124221748D01*
X84717002Y-124065000D01*
X84634999Y-124065000D01*
X84634999Y-121424037D01*
X84749296Y-121700657D01*
G36*
X78545897Y-122960000D02*
X79021614Y-122960000D01*
X79081083Y-123000633D01*
X78948559Y-123085910D01*
X78917751Y-123130999D01*
X78765000Y-123283750D01*
X78765000Y-123376310D01*
X78780268Y-123413171D01*
X78756359Y-123531240D01*
X78476794Y-123415154D01*
X78124719Y-123414847D01*
X77821825Y-123540000D01*
X77307122Y-123540000D01*
X77016283Y-123597852D01*
X76769721Y-123762599D01*
X75757908Y-124774412D01*
X75650000Y-124752560D01*
X75150000Y-124752560D01*
X74994493Y-124781821D01*
X74850000Y-124752560D01*
X74350000Y-124752560D01*
X74194493Y-124781821D01*
X74050000Y-124752560D01*
X73550000Y-124752560D01*
X73394493Y-124781821D01*
X73250000Y-124752560D01*
X72847440Y-124752560D01*
X72847440Y-124350000D01*
X72818179Y-124194493D01*
X72847440Y-124050000D01*
X72847440Y-123550000D01*
X72818179Y-123394493D01*
X72847440Y-123250000D01*
X72847440Y-123047740D01*
X72966286Y-123127150D01*
X73014540Y-123136748D01*
X73257126Y-123185002D01*
X78000841Y-123185002D01*
X78291680Y-123127150D01*
X78538242Y-122962403D01*
X78541516Y-122959129D01*
X78545897Y-122960000D01*
X78545897Y-122960000D01*
G37*
X78545897Y-122960000D02*
X79021614Y-122960000D01*
X79081083Y-123000633D01*
X78948559Y-123085910D01*
X78917751Y-123130999D01*
X78765000Y-123283750D01*
X78765000Y-123376310D01*
X78780268Y-123413171D01*
X78756359Y-123531240D01*
X78476794Y-123415154D01*
X78124719Y-123414847D01*
X77821825Y-123540000D01*
X77307122Y-123540000D01*
X77016283Y-123597852D01*
X76769721Y-123762599D01*
X75757908Y-124774412D01*
X75650000Y-124752560D01*
X75150000Y-124752560D01*
X74994493Y-124781821D01*
X74850000Y-124752560D01*
X74350000Y-124752560D01*
X74194493Y-124781821D01*
X74050000Y-124752560D01*
X73550000Y-124752560D01*
X73394493Y-124781821D01*
X73250000Y-124752560D01*
X72847440Y-124752560D01*
X72847440Y-124350000D01*
X72818179Y-124194493D01*
X72847440Y-124050000D01*
X72847440Y-123550000D01*
X72818179Y-123394493D01*
X72847440Y-123250000D01*
X72847440Y-123047740D01*
X72966286Y-123127150D01*
X73014540Y-123136748D01*
X73257126Y-123185002D01*
X78000841Y-123185002D01*
X78291680Y-123127150D01*
X78538242Y-122962403D01*
X78541516Y-122959129D01*
X78545897Y-122960000D01*
G36*
X95965000Y-86114250D02*
X96123750Y-86273000D01*
X97873000Y-86273000D01*
X97873000Y-86253000D01*
X98127000Y-86253000D01*
X98127000Y-86273000D01*
X98147000Y-86273000D01*
X98147000Y-86527000D01*
X98127000Y-86527000D01*
X98127000Y-87626250D01*
X98285750Y-87785000D01*
X99315000Y-87785000D01*
X99315000Y-112315000D01*
X98285750Y-112315000D01*
X98127000Y-112473750D01*
X98127000Y-113573000D01*
X98147000Y-113573000D01*
X98147000Y-113827000D01*
X98127000Y-113827000D01*
X98127000Y-114926250D01*
X98285750Y-115085000D01*
X99315000Y-115085000D01*
X99315000Y-123028734D01*
X99237401Y-122912599D01*
X97587401Y-121262599D01*
X97340839Y-121097852D01*
X97050000Y-121040000D01*
X92996228Y-121040000D01*
X93056431Y-120951890D01*
X93107440Y-120700000D01*
X93107440Y-117700000D01*
X93063162Y-117464683D01*
X92970000Y-117319905D01*
X92970000Y-105169803D01*
X93640000Y-105839803D01*
X93640000Y-117522527D01*
X93515154Y-117823190D01*
X93514847Y-118175265D01*
X93649296Y-118500657D01*
X93898033Y-118749829D01*
X94223190Y-118884846D01*
X94575265Y-118885153D01*
X94900657Y-118750704D01*
X95149829Y-118501967D01*
X95284846Y-118176810D01*
X95285153Y-117824735D01*
X95160000Y-117521841D01*
X95160000Y-113985750D01*
X95965000Y-113985750D01*
X95965000Y-114576309D01*
X96061673Y-114809698D01*
X96240301Y-114988327D01*
X96473690Y-115085000D01*
X97714250Y-115085000D01*
X97873000Y-114926250D01*
X97873000Y-113827000D01*
X96123750Y-113827000D01*
X95965000Y-113985750D01*
X95160000Y-113985750D01*
X95160000Y-112823691D01*
X95965000Y-112823691D01*
X95965000Y-113414250D01*
X96123750Y-113573000D01*
X97873000Y-113573000D01*
X97873000Y-112473750D01*
X97714250Y-112315000D01*
X96473690Y-112315000D01*
X96240301Y-112411673D01*
X96061673Y-112590302D01*
X95965000Y-112823691D01*
X95160000Y-112823691D01*
X95160000Y-105525000D01*
X95102148Y-105234161D01*
X94989680Y-105065840D01*
X94937401Y-104987598D01*
X83047440Y-93097638D01*
X83047440Y-92825000D01*
X83003162Y-92589683D01*
X82864090Y-92373559D01*
X82651890Y-92228569D01*
X82400000Y-92177560D01*
X80400000Y-92177560D01*
X80164683Y-92221838D01*
X79948559Y-92360910D01*
X79803569Y-92573110D01*
X79752560Y-92825000D01*
X79752560Y-93525000D01*
X79796838Y-93760317D01*
X79935910Y-93976441D01*
X80148110Y-94121431D01*
X80400000Y-94172440D01*
X81972638Y-94172440D01*
X82497503Y-94697305D01*
X82400000Y-94677560D01*
X80400000Y-94677560D01*
X80164683Y-94721838D01*
X79948559Y-94860910D01*
X79803569Y-95073110D01*
X79752560Y-95325000D01*
X79752560Y-96025000D01*
X79796838Y-96260317D01*
X79935910Y-96476441D01*
X80148110Y-96621431D01*
X80400000Y-96672440D01*
X82400000Y-96672440D01*
X82635317Y-96628162D01*
X82851441Y-96489090D01*
X82888399Y-96435000D01*
X83317320Y-96435000D01*
X91450000Y-104567680D01*
X91450000Y-116598463D01*
X91301967Y-116450171D01*
X90976810Y-116315154D01*
X90624735Y-116314847D01*
X90299343Y-116449296D01*
X90050171Y-116698033D01*
X89915154Y-117023190D01*
X89915084Y-117103666D01*
X89795000Y-117223750D01*
X89795000Y-119073000D01*
X89817000Y-119073000D01*
X89817000Y-119327000D01*
X89795000Y-119327000D01*
X89795000Y-121176250D01*
X89953750Y-121335000D01*
X90046309Y-121335000D01*
X90279698Y-121238327D01*
X90303634Y-121214391D01*
X90432599Y-121407401D01*
X91362599Y-122337401D01*
X91609161Y-122502148D01*
X91900000Y-122560000D01*
X92745621Y-122560000D01*
X92740144Y-122573190D01*
X92739837Y-122925265D01*
X92874286Y-123250657D01*
X92963475Y-123340002D01*
X91789998Y-123340002D01*
X91499159Y-123397854D01*
X91252597Y-123562601D01*
X90762638Y-124052560D01*
X90690000Y-124052560D01*
X90454683Y-124096838D01*
X90303973Y-124193817D01*
X90171890Y-124103569D01*
X89920000Y-124052560D01*
X89847362Y-124052560D01*
X88427331Y-122632529D01*
X88427889Y-122632529D01*
X88753281Y-122498080D01*
X89002453Y-122249343D01*
X89137470Y-121924186D01*
X89137777Y-121572111D01*
X89003328Y-121246719D01*
X88991479Y-121234849D01*
X89031239Y-121209264D01*
X89060302Y-121238327D01*
X89293691Y-121335000D01*
X89386250Y-121335000D01*
X89545000Y-121176250D01*
X89545000Y-119327000D01*
X89523000Y-119327000D01*
X89523000Y-119073000D01*
X89545000Y-119073000D01*
X89545000Y-117223750D01*
X89386250Y-117065000D01*
X89385012Y-117065000D01*
X89385012Y-106825012D01*
X89327160Y-106534173D01*
X89327160Y-106534172D01*
X89162413Y-106287611D01*
X85512401Y-102637599D01*
X85265839Y-102472852D01*
X84975000Y-102415000D01*
X82890757Y-102415000D01*
X82864090Y-102373559D01*
X82651890Y-102228569D01*
X82400000Y-102177560D01*
X80400000Y-102177560D01*
X80317715Y-102193043D01*
X80289090Y-102148559D01*
X80076890Y-102003569D01*
X79960000Y-101979898D01*
X79960000Y-101914802D01*
X80235645Y-101639157D01*
X80400000Y-101672440D01*
X82400000Y-101672440D01*
X82635317Y-101628162D01*
X82851441Y-101489090D01*
X82854322Y-101484873D01*
X83175269Y-101485153D01*
X83478163Y-101360000D01*
X85785198Y-101360000D01*
X88924905Y-104499707D01*
X88915154Y-104523190D01*
X88914847Y-104875265D01*
X89049296Y-105200657D01*
X89298033Y-105449829D01*
X89623190Y-105584846D01*
X89975265Y-105585153D01*
X90300657Y-105450704D01*
X90549829Y-105201967D01*
X90684846Y-104876810D01*
X90685153Y-104524735D01*
X90550704Y-104199343D01*
X90537309Y-104185924D01*
X90522206Y-104110000D01*
X90502148Y-104009160D01*
X90337401Y-103762599D01*
X86637401Y-100062599D01*
X86390839Y-99897852D01*
X86100000Y-99840000D01*
X83477477Y-99840000D01*
X83176814Y-99715154D01*
X82824739Y-99714847D01*
X82704512Y-99764524D01*
X82651890Y-99728569D01*
X82400000Y-99677560D01*
X81477362Y-99677560D01*
X80959802Y-99160000D01*
X81114250Y-99160000D01*
X81273000Y-99001250D01*
X81273000Y-98302000D01*
X81527000Y-98302000D01*
X81527000Y-99001250D01*
X81685750Y-99160000D01*
X82526310Y-99160000D01*
X82759699Y-99063327D01*
X82938327Y-98884698D01*
X83035000Y-98651309D01*
X83035000Y-98460750D01*
X82876250Y-98302000D01*
X81527000Y-98302000D01*
X81273000Y-98302000D01*
X79923750Y-98302000D01*
X79765000Y-98460750D01*
X79765000Y-98490000D01*
X78692197Y-98490000D01*
X78760000Y-98326310D01*
X78760000Y-97698691D01*
X79765000Y-97698691D01*
X79765000Y-97889250D01*
X79923750Y-98048000D01*
X81273000Y-98048000D01*
X81273000Y-97348750D01*
X81527000Y-97348750D01*
X81527000Y-98048000D01*
X82876250Y-98048000D01*
X83035000Y-97889250D01*
X83035000Y-97698691D01*
X82938327Y-97465302D01*
X82759699Y-97286673D01*
X82526310Y-97190000D01*
X81685750Y-97190000D01*
X81527000Y-97348750D01*
X81273000Y-97348750D01*
X81114250Y-97190000D01*
X80273690Y-97190000D01*
X80040301Y-97286673D01*
X79861673Y-97465302D01*
X79765000Y-97698691D01*
X78760000Y-97698691D01*
X78760000Y-97485750D01*
X78601250Y-97327000D01*
X77627000Y-97327000D01*
X77627000Y-97347000D01*
X77373000Y-97347000D01*
X77373000Y-97327000D01*
X77353000Y-97327000D01*
X77353000Y-97073000D01*
X77373000Y-97073000D01*
X77373000Y-97053000D01*
X77627000Y-97053000D01*
X77627000Y-97073000D01*
X78601250Y-97073000D01*
X78760000Y-96914250D01*
X78760000Y-96073690D01*
X78663327Y-95840301D01*
X78637125Y-95814099D01*
X78759698Y-95763327D01*
X78938327Y-95584699D01*
X79035000Y-95351310D01*
X79035000Y-94885750D01*
X78876250Y-94727000D01*
X77777000Y-94727000D01*
X77777000Y-94747000D01*
X77523000Y-94747000D01*
X77523000Y-94727000D01*
X77503000Y-94727000D01*
X77503000Y-94473000D01*
X77523000Y-94473000D01*
X77523000Y-94453000D01*
X77777000Y-94453000D01*
X77777000Y-94473000D01*
X78876250Y-94473000D01*
X79035000Y-94314250D01*
X79035000Y-93848690D01*
X79025547Y-93825869D01*
X79249841Y-93601967D01*
X79384858Y-93276810D01*
X79385165Y-92924735D01*
X79250716Y-92599343D01*
X79001979Y-92350171D01*
X78676822Y-92215154D01*
X78324747Y-92214847D01*
X78021853Y-92340000D01*
X77514802Y-92340000D01*
X76122242Y-90947440D01*
X76150000Y-90947440D01*
X76279589Y-90923056D01*
X76400000Y-90947440D01*
X76800000Y-90947440D01*
X76929589Y-90923056D01*
X77050000Y-90947440D01*
X77450000Y-90947440D01*
X77685317Y-90903162D01*
X77901441Y-90764090D01*
X78046431Y-90551890D01*
X78097440Y-90300000D01*
X78097440Y-90291106D01*
X78323190Y-90384846D01*
X78675265Y-90385153D01*
X78820846Y-90325000D01*
X79752560Y-90325000D01*
X79752560Y-91025000D01*
X79796838Y-91260317D01*
X79935910Y-91476441D01*
X80148110Y-91621431D01*
X80400000Y-91672440D01*
X82400000Y-91672440D01*
X82635317Y-91628162D01*
X82851441Y-91489090D01*
X82996431Y-91276890D01*
X83047440Y-91025000D01*
X83047440Y-90325000D01*
X83025801Y-90210000D01*
X83114250Y-90210000D01*
X83260552Y-90063698D01*
X83165223Y-90293276D01*
X83164777Y-90804481D01*
X83359995Y-91276943D01*
X83721155Y-91638735D01*
X84193276Y-91834777D01*
X84704481Y-91835223D01*
X85176943Y-91640005D01*
X85538735Y-91278845D01*
X85734777Y-90806724D01*
X85735223Y-90295519D01*
X85540005Y-89823057D01*
X85430152Y-89713012D01*
X85435000Y-89701309D01*
X85435000Y-89110750D01*
X85276250Y-88952000D01*
X83527000Y-88952000D01*
X83527000Y-88972000D01*
X83273000Y-88972000D01*
X83273000Y-88952000D01*
X81523750Y-88952000D01*
X81365000Y-89110750D01*
X81365000Y-89677560D01*
X80400000Y-89677560D01*
X80164683Y-89721838D01*
X79948559Y-89860910D01*
X79803569Y-90073110D01*
X79752560Y-90325000D01*
X78820846Y-90325000D01*
X79000657Y-90250704D01*
X79249829Y-90001967D01*
X79384846Y-89676810D01*
X79385153Y-89324735D01*
X79250704Y-88999343D01*
X79001967Y-88750171D01*
X78676810Y-88615154D01*
X78324735Y-88614847D01*
X78097440Y-88708763D01*
X78097440Y-88300000D01*
X78053162Y-88064683D01*
X77978524Y-87948691D01*
X81365000Y-87948691D01*
X81365000Y-88539250D01*
X81523750Y-88698000D01*
X83273000Y-88698000D01*
X83273000Y-87598750D01*
X83527000Y-87598750D01*
X83527000Y-88698000D01*
X85276250Y-88698000D01*
X85435000Y-88539250D01*
X85435000Y-87948691D01*
X85338327Y-87715302D01*
X85159699Y-87536673D01*
X84926310Y-87440000D01*
X83685750Y-87440000D01*
X83527000Y-87598750D01*
X83273000Y-87598750D01*
X83114250Y-87440000D01*
X81873690Y-87440000D01*
X81640301Y-87536673D01*
X81461673Y-87715302D01*
X81365000Y-87948691D01*
X77978524Y-87948691D01*
X77914090Y-87848559D01*
X77701890Y-87703569D01*
X77450000Y-87652560D01*
X77050000Y-87652560D01*
X76920411Y-87676944D01*
X76800000Y-87652560D01*
X76400000Y-87652560D01*
X76270411Y-87676944D01*
X76150000Y-87652560D01*
X75750000Y-87652560D01*
X75620411Y-87676944D01*
X75500000Y-87652560D01*
X75100000Y-87652560D01*
X74970411Y-87676944D01*
X74850000Y-87652560D01*
X74450000Y-87652560D01*
X74214683Y-87696838D01*
X73998559Y-87835910D01*
X73853569Y-88048110D01*
X73802560Y-88300000D01*
X73802560Y-90300000D01*
X73846838Y-90535317D01*
X73905085Y-90625835D01*
X73947852Y-90840839D01*
X74112599Y-91087401D01*
X76501086Y-93475888D01*
X76399064Y-93577910D01*
X76364090Y-93523559D01*
X76151890Y-93378569D01*
X75900000Y-93327560D01*
X74400000Y-93327560D01*
X74164683Y-93371838D01*
X73948559Y-93510910D01*
X73803569Y-93723110D01*
X73752560Y-93975000D01*
X73752560Y-95225000D01*
X73796838Y-95460317D01*
X73935910Y-95676441D01*
X74091537Y-95782776D01*
X74050116Y-95843397D01*
X73989090Y-95748559D01*
X73776890Y-95603569D01*
X73660000Y-95579898D01*
X73660000Y-93508822D01*
X73800657Y-93450704D01*
X74049829Y-93201967D01*
X74184846Y-92876810D01*
X74185153Y-92524735D01*
X74050704Y-92199343D01*
X73801967Y-91950171D01*
X73476810Y-91815154D01*
X73124735Y-91814847D01*
X72799343Y-91949296D01*
X72550171Y-92198033D01*
X72424489Y-92500709D01*
X72362599Y-92562599D01*
X72197852Y-92809161D01*
X72140000Y-93100000D01*
X72140000Y-95577962D01*
X72039683Y-95596838D01*
X71823559Y-95735910D01*
X71678569Y-95948110D01*
X71627560Y-96200000D01*
X71627560Y-98200000D01*
X71671838Y-98435317D01*
X71810910Y-98651441D01*
X72023110Y-98796431D01*
X72275000Y-98847440D01*
X73525000Y-98847440D01*
X73760317Y-98803162D01*
X73976441Y-98664090D01*
X74049884Y-98556603D01*
X74110910Y-98651441D01*
X74323110Y-98796431D01*
X74575000Y-98847440D01*
X74602489Y-98847440D01*
X74662599Y-98937401D01*
X75512599Y-99787401D01*
X75759161Y-99952148D01*
X76050000Y-100010000D01*
X79660198Y-100010000D01*
X79707609Y-100057411D01*
X79587599Y-100137599D01*
X78662599Y-101062599D01*
X78497852Y-101309161D01*
X78440000Y-101600000D01*
X78440000Y-101977962D01*
X78339683Y-101996838D01*
X78123559Y-102135910D01*
X77978569Y-102348110D01*
X77927560Y-102600000D01*
X77927560Y-103672638D01*
X77662598Y-103937600D01*
X77585000Y-104053734D01*
X77585000Y-103685750D01*
X77426250Y-103527000D01*
X75327000Y-103527000D01*
X75327000Y-105126250D01*
X75485750Y-105285000D01*
X77076309Y-105285000D01*
X77309698Y-105188327D01*
X77439999Y-105058027D01*
X77439999Y-106825312D01*
X74328065Y-109937246D01*
X74250241Y-109748898D01*
X74001504Y-109499726D01*
X73698828Y-109374044D01*
X73287383Y-108962599D01*
X73097440Y-108835684D01*
X73097440Y-108000000D01*
X73075773Y-107884848D01*
X73425257Y-107885153D01*
X73750649Y-107750704D01*
X73999821Y-107501967D01*
X74134838Y-107176810D01*
X74135145Y-106824735D01*
X74000696Y-106499343D01*
X73751959Y-106250171D01*
X73426802Y-106115154D01*
X73074727Y-106114847D01*
X73074133Y-106115092D01*
X73097440Y-106000000D01*
X73097440Y-105191284D01*
X73323691Y-105285000D01*
X74914250Y-105285000D01*
X75073000Y-105126250D01*
X75073000Y-103527000D01*
X75053000Y-103527000D01*
X75053000Y-103273000D01*
X75073000Y-103273000D01*
X75073000Y-101673750D01*
X75327000Y-101673750D01*
X75327000Y-103273000D01*
X77426250Y-103273000D01*
X77585000Y-103114250D01*
X77585000Y-102023690D01*
X77488327Y-101790301D01*
X77309698Y-101611673D01*
X77076309Y-101515000D01*
X75485750Y-101515000D01*
X75327000Y-101673750D01*
X75073000Y-101673750D01*
X74914250Y-101515000D01*
X73323691Y-101515000D01*
X73090302Y-101611673D01*
X72911673Y-101790301D01*
X72815000Y-102023690D01*
X72815000Y-102480854D01*
X72701890Y-102403569D01*
X72450000Y-102352560D01*
X71970345Y-102352560D01*
X72084846Y-102076810D01*
X72085153Y-101724735D01*
X71950704Y-101399343D01*
X71701967Y-101150171D01*
X71376810Y-101015154D01*
X71024735Y-101014847D01*
X70827000Y-101096549D01*
X70827000Y-87444949D01*
X70923691Y-87485000D01*
X71914250Y-87485000D01*
X72073000Y-87326250D01*
X72073000Y-86277000D01*
X72327000Y-86277000D01*
X72327000Y-87326250D01*
X72485750Y-87485000D01*
X73476309Y-87485000D01*
X73625000Y-87423410D01*
X73773691Y-87485000D01*
X74514250Y-87485000D01*
X74673000Y-87326250D01*
X74673000Y-86277000D01*
X74927000Y-86277000D01*
X74927000Y-87326250D01*
X75085750Y-87485000D01*
X75826309Y-87485000D01*
X75950000Y-87433765D01*
X76073691Y-87485000D01*
X76814250Y-87485000D01*
X76973000Y-87326250D01*
X76973000Y-86277000D01*
X77227000Y-86277000D01*
X77227000Y-87326250D01*
X77385750Y-87485000D01*
X78126309Y-87485000D01*
X78275000Y-87423410D01*
X78423691Y-87485000D01*
X79414250Y-87485000D01*
X79573000Y-87326250D01*
X79573000Y-86277000D01*
X79827000Y-86277000D01*
X79827000Y-87326250D01*
X79985750Y-87485000D01*
X80976309Y-87485000D01*
X81209698Y-87388327D01*
X81388327Y-87209699D01*
X81485000Y-86976310D01*
X81485000Y-86685750D01*
X95965000Y-86685750D01*
X95965000Y-87276309D01*
X96061673Y-87509698D01*
X96240301Y-87688327D01*
X96473690Y-87785000D01*
X97714250Y-87785000D01*
X97873000Y-87626250D01*
X97873000Y-86527000D01*
X96123750Y-86527000D01*
X95965000Y-86685750D01*
X81485000Y-86685750D01*
X81485000Y-86435750D01*
X81326250Y-86277000D01*
X79827000Y-86277000D01*
X79573000Y-86277000D01*
X77227000Y-86277000D01*
X76973000Y-86277000D01*
X74927000Y-86277000D01*
X74673000Y-86277000D01*
X72327000Y-86277000D01*
X72073000Y-86277000D01*
X72053000Y-86277000D01*
X72053000Y-86023000D01*
X72073000Y-86023000D01*
X72073000Y-86003000D01*
X72327000Y-86003000D01*
X72327000Y-86023000D01*
X74673000Y-86023000D01*
X74673000Y-86003000D01*
X74927000Y-86003000D01*
X74927000Y-86023000D01*
X76973000Y-86023000D01*
X76973000Y-86003000D01*
X77227000Y-86003000D01*
X77227000Y-86023000D01*
X79573000Y-86023000D01*
X79573000Y-86003000D01*
X79827000Y-86003000D01*
X79827000Y-86023000D01*
X81326250Y-86023000D01*
X81485000Y-85864250D01*
X81485000Y-85685000D01*
X95965000Y-85685000D01*
X95965000Y-86114250D01*
X95965000Y-86114250D01*
G37*
X95965000Y-86114250D02*
X96123750Y-86273000D01*
X97873000Y-86273000D01*
X97873000Y-86253000D01*
X98127000Y-86253000D01*
X98127000Y-86273000D01*
X98147000Y-86273000D01*
X98147000Y-86527000D01*
X98127000Y-86527000D01*
X98127000Y-87626250D01*
X98285750Y-87785000D01*
X99315000Y-87785000D01*
X99315000Y-112315000D01*
X98285750Y-112315000D01*
X98127000Y-112473750D01*
X98127000Y-113573000D01*
X98147000Y-113573000D01*
X98147000Y-113827000D01*
X98127000Y-113827000D01*
X98127000Y-114926250D01*
X98285750Y-115085000D01*
X99315000Y-115085000D01*
X99315000Y-123028734D01*
X99237401Y-122912599D01*
X97587401Y-121262599D01*
X97340839Y-121097852D01*
X97050000Y-121040000D01*
X92996228Y-121040000D01*
X93056431Y-120951890D01*
X93107440Y-120700000D01*
X93107440Y-117700000D01*
X93063162Y-117464683D01*
X92970000Y-117319905D01*
X92970000Y-105169803D01*
X93640000Y-105839803D01*
X93640000Y-117522527D01*
X93515154Y-117823190D01*
X93514847Y-118175265D01*
X93649296Y-118500657D01*
X93898033Y-118749829D01*
X94223190Y-118884846D01*
X94575265Y-118885153D01*
X94900657Y-118750704D01*
X95149829Y-118501967D01*
X95284846Y-118176810D01*
X95285153Y-117824735D01*
X95160000Y-117521841D01*
X95160000Y-113985750D01*
X95965000Y-113985750D01*
X95965000Y-114576309D01*
X96061673Y-114809698D01*
X96240301Y-114988327D01*
X96473690Y-115085000D01*
X97714250Y-115085000D01*
X97873000Y-114926250D01*
X97873000Y-113827000D01*
X96123750Y-113827000D01*
X95965000Y-113985750D01*
X95160000Y-113985750D01*
X95160000Y-112823691D01*
X95965000Y-112823691D01*
X95965000Y-113414250D01*
X96123750Y-113573000D01*
X97873000Y-113573000D01*
X97873000Y-112473750D01*
X97714250Y-112315000D01*
X96473690Y-112315000D01*
X96240301Y-112411673D01*
X96061673Y-112590302D01*
X95965000Y-112823691D01*
X95160000Y-112823691D01*
X95160000Y-105525000D01*
X95102148Y-105234161D01*
X94989680Y-105065840D01*
X94937401Y-104987598D01*
X83047440Y-93097638D01*
X83047440Y-92825000D01*
X83003162Y-92589683D01*
X82864090Y-92373559D01*
X82651890Y-92228569D01*
X82400000Y-92177560D01*
X80400000Y-92177560D01*
X80164683Y-92221838D01*
X79948559Y-92360910D01*
X79803569Y-92573110D01*
X79752560Y-92825000D01*
X79752560Y-93525000D01*
X79796838Y-93760317D01*
X79935910Y-93976441D01*
X80148110Y-94121431D01*
X80400000Y-94172440D01*
X81972638Y-94172440D01*
X82497503Y-94697305D01*
X82400000Y-94677560D01*
X80400000Y-94677560D01*
X80164683Y-94721838D01*
X79948559Y-94860910D01*
X79803569Y-95073110D01*
X79752560Y-95325000D01*
X79752560Y-96025000D01*
X79796838Y-96260317D01*
X79935910Y-96476441D01*
X80148110Y-96621431D01*
X80400000Y-96672440D01*
X82400000Y-96672440D01*
X82635317Y-96628162D01*
X82851441Y-96489090D01*
X82888399Y-96435000D01*
X83317320Y-96435000D01*
X91450000Y-104567680D01*
X91450000Y-116598463D01*
X91301967Y-116450171D01*
X90976810Y-116315154D01*
X90624735Y-116314847D01*
X90299343Y-116449296D01*
X90050171Y-116698033D01*
X89915154Y-117023190D01*
X89915084Y-117103666D01*
X89795000Y-117223750D01*
X89795000Y-119073000D01*
X89817000Y-119073000D01*
X89817000Y-119327000D01*
X89795000Y-119327000D01*
X89795000Y-121176250D01*
X89953750Y-121335000D01*
X90046309Y-121335000D01*
X90279698Y-121238327D01*
X90303634Y-121214391D01*
X90432599Y-121407401D01*
X91362599Y-122337401D01*
X91609161Y-122502148D01*
X91900000Y-122560000D01*
X92745621Y-122560000D01*
X92740144Y-122573190D01*
X92739837Y-122925265D01*
X92874286Y-123250657D01*
X92963475Y-123340002D01*
X91789998Y-123340002D01*
X91499159Y-123397854D01*
X91252597Y-123562601D01*
X90762638Y-124052560D01*
X90690000Y-124052560D01*
X90454683Y-124096838D01*
X90303973Y-124193817D01*
X90171890Y-124103569D01*
X89920000Y-124052560D01*
X89847362Y-124052560D01*
X88427331Y-122632529D01*
X88427889Y-122632529D01*
X88753281Y-122498080D01*
X89002453Y-122249343D01*
X89137470Y-121924186D01*
X89137777Y-121572111D01*
X89003328Y-121246719D01*
X88991479Y-121234849D01*
X89031239Y-121209264D01*
X89060302Y-121238327D01*
X89293691Y-121335000D01*
X89386250Y-121335000D01*
X89545000Y-121176250D01*
X89545000Y-119327000D01*
X89523000Y-119327000D01*
X89523000Y-119073000D01*
X89545000Y-119073000D01*
X89545000Y-117223750D01*
X89386250Y-117065000D01*
X89385012Y-117065000D01*
X89385012Y-106825012D01*
X89327160Y-106534173D01*
X89327160Y-106534172D01*
X89162413Y-106287611D01*
X85512401Y-102637599D01*
X85265839Y-102472852D01*
X84975000Y-102415000D01*
X82890757Y-102415000D01*
X82864090Y-102373559D01*
X82651890Y-102228569D01*
X82400000Y-102177560D01*
X80400000Y-102177560D01*
X80317715Y-102193043D01*
X80289090Y-102148559D01*
X80076890Y-102003569D01*
X79960000Y-101979898D01*
X79960000Y-101914802D01*
X80235645Y-101639157D01*
X80400000Y-101672440D01*
X82400000Y-101672440D01*
X82635317Y-101628162D01*
X82851441Y-101489090D01*
X82854322Y-101484873D01*
X83175269Y-101485153D01*
X83478163Y-101360000D01*
X85785198Y-101360000D01*
X88924905Y-104499707D01*
X88915154Y-104523190D01*
X88914847Y-104875265D01*
X89049296Y-105200657D01*
X89298033Y-105449829D01*
X89623190Y-105584846D01*
X89975265Y-105585153D01*
X90300657Y-105450704D01*
X90549829Y-105201967D01*
X90684846Y-104876810D01*
X90685153Y-104524735D01*
X90550704Y-104199343D01*
X90537309Y-104185924D01*
X90522206Y-104110000D01*
X90502148Y-104009160D01*
X90337401Y-103762599D01*
X86637401Y-100062599D01*
X86390839Y-99897852D01*
X86100000Y-99840000D01*
X83477477Y-99840000D01*
X83176814Y-99715154D01*
X82824739Y-99714847D01*
X82704512Y-99764524D01*
X82651890Y-99728569D01*
X82400000Y-99677560D01*
X81477362Y-99677560D01*
X80959802Y-99160000D01*
X81114250Y-99160000D01*
X81273000Y-99001250D01*
X81273000Y-98302000D01*
X81527000Y-98302000D01*
X81527000Y-99001250D01*
X81685750Y-99160000D01*
X82526310Y-99160000D01*
X82759699Y-99063327D01*
X82938327Y-98884698D01*
X83035000Y-98651309D01*
X83035000Y-98460750D01*
X82876250Y-98302000D01*
X81527000Y-98302000D01*
X81273000Y-98302000D01*
X79923750Y-98302000D01*
X79765000Y-98460750D01*
X79765000Y-98490000D01*
X78692197Y-98490000D01*
X78760000Y-98326310D01*
X78760000Y-97698691D01*
X79765000Y-97698691D01*
X79765000Y-97889250D01*
X79923750Y-98048000D01*
X81273000Y-98048000D01*
X81273000Y-97348750D01*
X81527000Y-97348750D01*
X81527000Y-98048000D01*
X82876250Y-98048000D01*
X83035000Y-97889250D01*
X83035000Y-97698691D01*
X82938327Y-97465302D01*
X82759699Y-97286673D01*
X82526310Y-97190000D01*
X81685750Y-97190000D01*
X81527000Y-97348750D01*
X81273000Y-97348750D01*
X81114250Y-97190000D01*
X80273690Y-97190000D01*
X80040301Y-97286673D01*
X79861673Y-97465302D01*
X79765000Y-97698691D01*
X78760000Y-97698691D01*
X78760000Y-97485750D01*
X78601250Y-97327000D01*
X77627000Y-97327000D01*
X77627000Y-97347000D01*
X77373000Y-97347000D01*
X77373000Y-97327000D01*
X77353000Y-97327000D01*
X77353000Y-97073000D01*
X77373000Y-97073000D01*
X77373000Y-97053000D01*
X77627000Y-97053000D01*
X77627000Y-97073000D01*
X78601250Y-97073000D01*
X78760000Y-96914250D01*
X78760000Y-96073690D01*
X78663327Y-95840301D01*
X78637125Y-95814099D01*
X78759698Y-95763327D01*
X78938327Y-95584699D01*
X79035000Y-95351310D01*
X79035000Y-94885750D01*
X78876250Y-94727000D01*
X77777000Y-94727000D01*
X77777000Y-94747000D01*
X77523000Y-94747000D01*
X77523000Y-94727000D01*
X77503000Y-94727000D01*
X77503000Y-94473000D01*
X77523000Y-94473000D01*
X77523000Y-94453000D01*
X77777000Y-94453000D01*
X77777000Y-94473000D01*
X78876250Y-94473000D01*
X79035000Y-94314250D01*
X79035000Y-93848690D01*
X79025547Y-93825869D01*
X79249841Y-93601967D01*
X79384858Y-93276810D01*
X79385165Y-92924735D01*
X79250716Y-92599343D01*
X79001979Y-92350171D01*
X78676822Y-92215154D01*
X78324747Y-92214847D01*
X78021853Y-92340000D01*
X77514802Y-92340000D01*
X76122242Y-90947440D01*
X76150000Y-90947440D01*
X76279589Y-90923056D01*
X76400000Y-90947440D01*
X76800000Y-90947440D01*
X76929589Y-90923056D01*
X77050000Y-90947440D01*
X77450000Y-90947440D01*
X77685317Y-90903162D01*
X77901441Y-90764090D01*
X78046431Y-90551890D01*
X78097440Y-90300000D01*
X78097440Y-90291106D01*
X78323190Y-90384846D01*
X78675265Y-90385153D01*
X78820846Y-90325000D01*
X79752560Y-90325000D01*
X79752560Y-91025000D01*
X79796838Y-91260317D01*
X79935910Y-91476441D01*
X80148110Y-91621431D01*
X80400000Y-91672440D01*
X82400000Y-91672440D01*
X82635317Y-91628162D01*
X82851441Y-91489090D01*
X82996431Y-91276890D01*
X83047440Y-91025000D01*
X83047440Y-90325000D01*
X83025801Y-90210000D01*
X83114250Y-90210000D01*
X83260552Y-90063698D01*
X83165223Y-90293276D01*
X83164777Y-90804481D01*
X83359995Y-91276943D01*
X83721155Y-91638735D01*
X84193276Y-91834777D01*
X84704481Y-91835223D01*
X85176943Y-91640005D01*
X85538735Y-91278845D01*
X85734777Y-90806724D01*
X85735223Y-90295519D01*
X85540005Y-89823057D01*
X85430152Y-89713012D01*
X85435000Y-89701309D01*
X85435000Y-89110750D01*
X85276250Y-88952000D01*
X83527000Y-88952000D01*
X83527000Y-88972000D01*
X83273000Y-88972000D01*
X83273000Y-88952000D01*
X81523750Y-88952000D01*
X81365000Y-89110750D01*
X81365000Y-89677560D01*
X80400000Y-89677560D01*
X80164683Y-89721838D01*
X79948559Y-89860910D01*
X79803569Y-90073110D01*
X79752560Y-90325000D01*
X78820846Y-90325000D01*
X79000657Y-90250704D01*
X79249829Y-90001967D01*
X79384846Y-89676810D01*
X79385153Y-89324735D01*
X79250704Y-88999343D01*
X79001967Y-88750171D01*
X78676810Y-88615154D01*
X78324735Y-88614847D01*
X78097440Y-88708763D01*
X78097440Y-88300000D01*
X78053162Y-88064683D01*
X77978524Y-87948691D01*
X81365000Y-87948691D01*
X81365000Y-88539250D01*
X81523750Y-88698000D01*
X83273000Y-88698000D01*
X83273000Y-87598750D01*
X83527000Y-87598750D01*
X83527000Y-88698000D01*
X85276250Y-88698000D01*
X85435000Y-88539250D01*
X85435000Y-87948691D01*
X85338327Y-87715302D01*
X85159699Y-87536673D01*
X84926310Y-87440000D01*
X83685750Y-87440000D01*
X83527000Y-87598750D01*
X83273000Y-87598750D01*
X83114250Y-87440000D01*
X81873690Y-87440000D01*
X81640301Y-87536673D01*
X81461673Y-87715302D01*
X81365000Y-87948691D01*
X77978524Y-87948691D01*
X77914090Y-87848559D01*
X77701890Y-87703569D01*
X77450000Y-87652560D01*
X77050000Y-87652560D01*
X76920411Y-87676944D01*
X76800000Y-87652560D01*
X76400000Y-87652560D01*
X76270411Y-87676944D01*
X76150000Y-87652560D01*
X75750000Y-87652560D01*
X75620411Y-87676944D01*
X75500000Y-87652560D01*
X75100000Y-87652560D01*
X74970411Y-87676944D01*
X74850000Y-87652560D01*
X74450000Y-87652560D01*
X74214683Y-87696838D01*
X73998559Y-87835910D01*
X73853569Y-88048110D01*
X73802560Y-88300000D01*
X73802560Y-90300000D01*
X73846838Y-90535317D01*
X73905085Y-90625835D01*
X73947852Y-90840839D01*
X74112599Y-91087401D01*
X76501086Y-93475888D01*
X76399064Y-93577910D01*
X76364090Y-93523559D01*
X76151890Y-93378569D01*
X75900000Y-93327560D01*
X74400000Y-93327560D01*
X74164683Y-93371838D01*
X73948559Y-93510910D01*
X73803569Y-93723110D01*
X73752560Y-93975000D01*
X73752560Y-95225000D01*
X73796838Y-95460317D01*
X73935910Y-95676441D01*
X74091537Y-95782776D01*
X74050116Y-95843397D01*
X73989090Y-95748559D01*
X73776890Y-95603569D01*
X73660000Y-95579898D01*
X73660000Y-93508822D01*
X73800657Y-93450704D01*
X74049829Y-93201967D01*
X74184846Y-92876810D01*
X74185153Y-92524735D01*
X74050704Y-92199343D01*
X73801967Y-91950171D01*
X73476810Y-91815154D01*
X73124735Y-91814847D01*
X72799343Y-91949296D01*
X72550171Y-92198033D01*
X72424489Y-92500709D01*
X72362599Y-92562599D01*
X72197852Y-92809161D01*
X72140000Y-93100000D01*
X72140000Y-95577962D01*
X72039683Y-95596838D01*
X71823559Y-95735910D01*
X71678569Y-95948110D01*
X71627560Y-96200000D01*
X71627560Y-98200000D01*
X71671838Y-98435317D01*
X71810910Y-98651441D01*
X72023110Y-98796431D01*
X72275000Y-98847440D01*
X73525000Y-98847440D01*
X73760317Y-98803162D01*
X73976441Y-98664090D01*
X74049884Y-98556603D01*
X74110910Y-98651441D01*
X74323110Y-98796431D01*
X74575000Y-98847440D01*
X74602489Y-98847440D01*
X74662599Y-98937401D01*
X75512599Y-99787401D01*
X75759161Y-99952148D01*
X76050000Y-100010000D01*
X79660198Y-100010000D01*
X79707609Y-100057411D01*
X79587599Y-100137599D01*
X78662599Y-101062599D01*
X78497852Y-101309161D01*
X78440000Y-101600000D01*
X78440000Y-101977962D01*
X78339683Y-101996838D01*
X78123559Y-102135910D01*
X77978569Y-102348110D01*
X77927560Y-102600000D01*
X77927560Y-103672638D01*
X77662598Y-103937600D01*
X77585000Y-104053734D01*
X77585000Y-103685750D01*
X77426250Y-103527000D01*
X75327000Y-103527000D01*
X75327000Y-105126250D01*
X75485750Y-105285000D01*
X77076309Y-105285000D01*
X77309698Y-105188327D01*
X77439999Y-105058027D01*
X77439999Y-106825312D01*
X74328065Y-109937246D01*
X74250241Y-109748898D01*
X74001504Y-109499726D01*
X73698828Y-109374044D01*
X73287383Y-108962599D01*
X73097440Y-108835684D01*
X73097440Y-108000000D01*
X73075773Y-107884848D01*
X73425257Y-107885153D01*
X73750649Y-107750704D01*
X73999821Y-107501967D01*
X74134838Y-107176810D01*
X74135145Y-106824735D01*
X74000696Y-106499343D01*
X73751959Y-106250171D01*
X73426802Y-106115154D01*
X73074727Y-106114847D01*
X73074133Y-106115092D01*
X73097440Y-106000000D01*
X73097440Y-105191284D01*
X73323691Y-105285000D01*
X74914250Y-105285000D01*
X75073000Y-105126250D01*
X75073000Y-103527000D01*
X75053000Y-103527000D01*
X75053000Y-103273000D01*
X75073000Y-103273000D01*
X75073000Y-101673750D01*
X75327000Y-101673750D01*
X75327000Y-103273000D01*
X77426250Y-103273000D01*
X77585000Y-103114250D01*
X77585000Y-102023690D01*
X77488327Y-101790301D01*
X77309698Y-101611673D01*
X77076309Y-101515000D01*
X75485750Y-101515000D01*
X75327000Y-101673750D01*
X75073000Y-101673750D01*
X74914250Y-101515000D01*
X73323691Y-101515000D01*
X73090302Y-101611673D01*
X72911673Y-101790301D01*
X72815000Y-102023690D01*
X72815000Y-102480854D01*
X72701890Y-102403569D01*
X72450000Y-102352560D01*
X71970345Y-102352560D01*
X72084846Y-102076810D01*
X72085153Y-101724735D01*
X71950704Y-101399343D01*
X71701967Y-101150171D01*
X71376810Y-101015154D01*
X71024735Y-101014847D01*
X70827000Y-101096549D01*
X70827000Y-87444949D01*
X70923691Y-87485000D01*
X71914250Y-87485000D01*
X72073000Y-87326250D01*
X72073000Y-86277000D01*
X72327000Y-86277000D01*
X72327000Y-87326250D01*
X72485750Y-87485000D01*
X73476309Y-87485000D01*
X73625000Y-87423410D01*
X73773691Y-87485000D01*
X74514250Y-87485000D01*
X74673000Y-87326250D01*
X74673000Y-86277000D01*
X74927000Y-86277000D01*
X74927000Y-87326250D01*
X75085750Y-87485000D01*
X75826309Y-87485000D01*
X75950000Y-87433765D01*
X76073691Y-87485000D01*
X76814250Y-87485000D01*
X76973000Y-87326250D01*
X76973000Y-86277000D01*
X77227000Y-86277000D01*
X77227000Y-87326250D01*
X77385750Y-87485000D01*
X78126309Y-87485000D01*
X78275000Y-87423410D01*
X78423691Y-87485000D01*
X79414250Y-87485000D01*
X79573000Y-87326250D01*
X79573000Y-86277000D01*
X79827000Y-86277000D01*
X79827000Y-87326250D01*
X79985750Y-87485000D01*
X80976309Y-87485000D01*
X81209698Y-87388327D01*
X81388327Y-87209699D01*
X81485000Y-86976310D01*
X81485000Y-86685750D01*
X95965000Y-86685750D01*
X95965000Y-87276309D01*
X96061673Y-87509698D01*
X96240301Y-87688327D01*
X96473690Y-87785000D01*
X97714250Y-87785000D01*
X97873000Y-87626250D01*
X97873000Y-86527000D01*
X96123750Y-86527000D01*
X95965000Y-86685750D01*
X81485000Y-86685750D01*
X81485000Y-86435750D01*
X81326250Y-86277000D01*
X79827000Y-86277000D01*
X79573000Y-86277000D01*
X77227000Y-86277000D01*
X76973000Y-86277000D01*
X74927000Y-86277000D01*
X74673000Y-86277000D01*
X72327000Y-86277000D01*
X72073000Y-86277000D01*
X72053000Y-86277000D01*
X72053000Y-86023000D01*
X72073000Y-86023000D01*
X72073000Y-86003000D01*
X72327000Y-86003000D01*
X72327000Y-86023000D01*
X74673000Y-86023000D01*
X74673000Y-86003000D01*
X74927000Y-86003000D01*
X74927000Y-86023000D01*
X76973000Y-86023000D01*
X76973000Y-86003000D01*
X77227000Y-86003000D01*
X77227000Y-86023000D01*
X79573000Y-86023000D01*
X79573000Y-86003000D01*
X79827000Y-86003000D01*
X79827000Y-86023000D01*
X81326250Y-86023000D01*
X81485000Y-85864250D01*
X81485000Y-85685000D01*
X95965000Y-85685000D01*
X95965000Y-86114250D01*
G36*
X69710134Y-122061384D02*
X69735910Y-122101441D01*
X69881083Y-122200633D01*
X69748559Y-122285910D01*
X69717751Y-122330999D01*
X69565000Y-122483750D01*
X69565000Y-122490750D01*
X69501250Y-122427000D01*
X68527000Y-122427000D01*
X68527000Y-122447000D01*
X68273000Y-122447000D01*
X68273000Y-122427000D01*
X66427000Y-122427000D01*
X66427000Y-122173000D01*
X68273000Y-122173000D01*
X68273000Y-122153000D01*
X68527000Y-122153000D01*
X68527000Y-122173000D01*
X69501250Y-122173000D01*
X69660000Y-122014250D01*
X69660000Y-122011250D01*
X69710134Y-122061384D01*
X69710134Y-122061384D01*
G37*
X69710134Y-122061384D02*
X69735910Y-122101441D01*
X69881083Y-122200633D01*
X69748559Y-122285910D01*
X69717751Y-122330999D01*
X69565000Y-122483750D01*
X69565000Y-122490750D01*
X69501250Y-122427000D01*
X68527000Y-122427000D01*
X68527000Y-122447000D01*
X68273000Y-122447000D01*
X68273000Y-122427000D01*
X66427000Y-122427000D01*
X66427000Y-122173000D01*
X68273000Y-122173000D01*
X68273000Y-122153000D01*
X68527000Y-122153000D01*
X68527000Y-122173000D01*
X69501250Y-122173000D01*
X69660000Y-122014250D01*
X69660000Y-122011250D01*
X69710134Y-122061384D01*
G36*
X87365002Y-110524800D02*
X87365002Y-116413907D01*
X86690737Y-117088172D01*
X86644683Y-117096838D01*
X86498761Y-117190736D01*
X86469698Y-117161673D01*
X86236309Y-117065000D01*
X86143750Y-117065000D01*
X85985000Y-117223750D01*
X85985000Y-119073000D01*
X86007000Y-119073000D01*
X86007000Y-119327000D01*
X85985000Y-119327000D01*
X85985000Y-119347000D01*
X85735000Y-119347000D01*
X85735000Y-119327000D01*
X85713000Y-119327000D01*
X85713000Y-119073000D01*
X85735000Y-119073000D01*
X85735000Y-117223750D01*
X85576250Y-117065000D01*
X85483691Y-117065000D01*
X85250302Y-117161673D01*
X85220518Y-117191457D01*
X85091890Y-117103569D01*
X84972308Y-117079353D01*
X85049829Y-117001967D01*
X85184846Y-116676810D01*
X85185153Y-116324735D01*
X85050704Y-115999343D01*
X84911604Y-115860000D01*
X85222527Y-115860000D01*
X85523190Y-115984846D01*
X85875265Y-115985153D01*
X86200657Y-115850704D01*
X86449829Y-115601967D01*
X86584846Y-115276810D01*
X86585153Y-114924735D01*
X86450704Y-114599343D01*
X86201967Y-114350171D01*
X85876810Y-114215154D01*
X85524735Y-114214847D01*
X85435000Y-114251925D01*
X85435000Y-113985750D01*
X85276250Y-113827000D01*
X83527000Y-113827000D01*
X83527000Y-113847000D01*
X83273000Y-113847000D01*
X83273000Y-113827000D01*
X83253000Y-113827000D01*
X83253000Y-113573000D01*
X83273000Y-113573000D01*
X83273000Y-113553000D01*
X83527000Y-113553000D01*
X83527000Y-113573000D01*
X85276250Y-113573000D01*
X85435000Y-113414250D01*
X85435000Y-112823691D01*
X85338327Y-112590302D01*
X85282579Y-112534554D01*
X85538735Y-112278845D01*
X85734777Y-111806724D01*
X85735162Y-111365246D01*
X86023190Y-111484846D01*
X86375265Y-111485153D01*
X86700657Y-111350704D01*
X86949829Y-111101967D01*
X87084846Y-110776810D01*
X87085153Y-110424735D01*
X86958561Y-110118359D01*
X87365002Y-110524800D01*
X87365002Y-110524800D01*
G37*
X87365002Y-110524800D02*
X87365002Y-116413907D01*
X86690737Y-117088172D01*
X86644683Y-117096838D01*
X86498761Y-117190736D01*
X86469698Y-117161673D01*
X86236309Y-117065000D01*
X86143750Y-117065000D01*
X85985000Y-117223750D01*
X85985000Y-119073000D01*
X86007000Y-119073000D01*
X86007000Y-119327000D01*
X85985000Y-119327000D01*
X85985000Y-119347000D01*
X85735000Y-119347000D01*
X85735000Y-119327000D01*
X85713000Y-119327000D01*
X85713000Y-119073000D01*
X85735000Y-119073000D01*
X85735000Y-117223750D01*
X85576250Y-117065000D01*
X85483691Y-117065000D01*
X85250302Y-117161673D01*
X85220518Y-117191457D01*
X85091890Y-117103569D01*
X84972308Y-117079353D01*
X85049829Y-117001967D01*
X85184846Y-116676810D01*
X85185153Y-116324735D01*
X85050704Y-115999343D01*
X84911604Y-115860000D01*
X85222527Y-115860000D01*
X85523190Y-115984846D01*
X85875265Y-115985153D01*
X86200657Y-115850704D01*
X86449829Y-115601967D01*
X86584846Y-115276810D01*
X86585153Y-114924735D01*
X86450704Y-114599343D01*
X86201967Y-114350171D01*
X85876810Y-114215154D01*
X85524735Y-114214847D01*
X85435000Y-114251925D01*
X85435000Y-113985750D01*
X85276250Y-113827000D01*
X83527000Y-113827000D01*
X83527000Y-113847000D01*
X83273000Y-113847000D01*
X83273000Y-113827000D01*
X83253000Y-113827000D01*
X83253000Y-113573000D01*
X83273000Y-113573000D01*
X83273000Y-113553000D01*
X83527000Y-113553000D01*
X83527000Y-113573000D01*
X85276250Y-113573000D01*
X85435000Y-113414250D01*
X85435000Y-112823691D01*
X85338327Y-112590302D01*
X85282579Y-112534554D01*
X85538735Y-112278845D01*
X85734777Y-111806724D01*
X85735162Y-111365246D01*
X86023190Y-111484846D01*
X86375265Y-111485153D01*
X86700657Y-111350704D01*
X86949829Y-111101967D01*
X87084846Y-110776810D01*
X87085153Y-110424735D01*
X86958561Y-110118359D01*
X87365002Y-110524800D01*
G36*
X87865012Y-107139814D02*
X87865012Y-108875206D01*
X85446075Y-106456269D01*
X85199513Y-106291522D01*
X84908674Y-106233670D01*
X83000885Y-106233670D01*
X83035000Y-106151309D01*
X83035000Y-105960750D01*
X82876250Y-105802000D01*
X81527000Y-105802000D01*
X81527000Y-105822000D01*
X81273000Y-105822000D01*
X81273000Y-105802000D01*
X81253000Y-105802000D01*
X81253000Y-105548000D01*
X81273000Y-105548000D01*
X81273000Y-104848750D01*
X81527000Y-104848750D01*
X81527000Y-105548000D01*
X82876250Y-105548000D01*
X83035000Y-105389250D01*
X83035000Y-105198691D01*
X82938327Y-104965302D01*
X82759699Y-104786673D01*
X82526310Y-104690000D01*
X81685750Y-104690000D01*
X81527000Y-104848750D01*
X81273000Y-104848750D01*
X81114250Y-104690000D01*
X80313025Y-104690000D01*
X80222090Y-104599064D01*
X80276441Y-104564090D01*
X80421431Y-104351890D01*
X80457771Y-104172440D01*
X82400000Y-104172440D01*
X82635317Y-104128162D01*
X82851441Y-103989090D01*
X82888399Y-103935000D01*
X84660198Y-103935000D01*
X87865012Y-107139814D01*
X87865012Y-107139814D01*
G37*
X87865012Y-107139814D02*
X87865012Y-108875206D01*
X85446075Y-106456269D01*
X85199513Y-106291522D01*
X84908674Y-106233670D01*
X83000885Y-106233670D01*
X83035000Y-106151309D01*
X83035000Y-105960750D01*
X82876250Y-105802000D01*
X81527000Y-105802000D01*
X81527000Y-105822000D01*
X81273000Y-105822000D01*
X81273000Y-105802000D01*
X81253000Y-105802000D01*
X81253000Y-105548000D01*
X81273000Y-105548000D01*
X81273000Y-104848750D01*
X81527000Y-104848750D01*
X81527000Y-105548000D01*
X82876250Y-105548000D01*
X83035000Y-105389250D01*
X83035000Y-105198691D01*
X82938327Y-104965302D01*
X82759699Y-104786673D01*
X82526310Y-104690000D01*
X81685750Y-104690000D01*
X81527000Y-104848750D01*
X81273000Y-104848750D01*
X81114250Y-104690000D01*
X80313025Y-104690000D01*
X80222090Y-104599064D01*
X80276441Y-104564090D01*
X80421431Y-104351890D01*
X80457771Y-104172440D01*
X82400000Y-104172440D01*
X82635317Y-104128162D01*
X82851441Y-103989090D01*
X82888399Y-103935000D01*
X84660198Y-103935000D01*
X87865012Y-107139814D01*
G36*
X79327000Y-105723000D02*
X79347000Y-105723000D01*
X79347000Y-105977000D01*
X79327000Y-105977000D01*
X79327000Y-105997000D01*
X79073000Y-105997000D01*
X79073000Y-105977000D01*
X79053000Y-105977000D01*
X79053000Y-105723000D01*
X79073000Y-105723000D01*
X79073000Y-105703000D01*
X79327000Y-105703000D01*
X79327000Y-105723000D01*
X79327000Y-105723000D01*
G37*
X79327000Y-105723000D02*
X79347000Y-105723000D01*
X79347000Y-105977000D01*
X79327000Y-105977000D01*
X79327000Y-105997000D01*
X79073000Y-105997000D01*
X79073000Y-105977000D01*
X79053000Y-105977000D01*
X79053000Y-105723000D01*
X79073000Y-105723000D01*
X79073000Y-105703000D01*
X79327000Y-105703000D01*
X79327000Y-105723000D01*
M02*
