M48
;DRILL file {KiCad 4.0.2-stable} date 01/06/2016 17:54:01
;FORMAT={-:-/ absolute / metric / decimal}
FMAT,2
METRIC,TZ
T1C0.400
T2C0.500
T3C1.200
%
G90
G05
M71
T1
X52.Y-129.3
X55.5Y-96.6
X56.492Y-130.708
X58.Y-119.75
X58.14Y-112.827
X59.1Y-129.475
X60.Y-102.6
X60.9Y-117.
X62.375Y-99.5
X62.7Y-105.1
X63.3Y-128.8
X64.1Y-124.691
X64.25Y-112.6
X65.1Y-128.8
X66.Y-118.05
X66.9Y-128.8
X67.4Y-112.7
X68.5Y-118.05
X68.5Y-128.8
X69.319Y-95.818
X70.2Y-86.725
X70.3Y-129.025
X70.75Y-116.25
X71.2Y-101.9
X73.25Y-107.
X73.3Y-92.7
X73.5Y-110.25
X73.662Y-121.378
X74.3Y-121.8
X74.7Y-124.4
X76.4Y-111.4
X77.8Y-120.2
X78.3Y-124.3
X78.386Y-122.04
X78.5Y-89.5
X78.5Y-119.
X78.5Y-93.1
X78.718Y-113.975
X78.987Y-95.913
X80.4Y-118.1
X80.5Y-126.2
X81.3Y-126.2
X81.3Y-118.1
X81.5Y-104.525
X82.265Y-131.475
X82.7Y-116.3
X83.Y-100.6
X83.75Y-108.75
X83.8Y-117.4
X84.Y-128.2
X84.25Y-98.75
X84.3Y-116.5
X84.6Y-124.
X85.027Y-131.477
X85.2Y-110.5
X85.5Y-121.2
X85.7Y-115.1
X86.2Y-110.6
X86.443Y-116.038
X87.8Y-131.481
X88.253Y-121.747
X89.8Y-104.7
X90.Y-116.1
X90.547Y-131.455
X90.8Y-117.2
X91.5Y-130.6
X93.625Y-122.75
X94.4Y-118.
X96.Y-124.1
T2
X52.97Y-100.2
X55.26Y-100.2
X56.76Y-93.6
X57.78Y-95.38
X58.8Y-93.6
X59.82Y-95.38
X60.84Y-93.6
X61.86Y-95.38
X62.88Y-93.6
X63.9Y-95.38
X64.4Y-100.2
X66.69Y-100.2
T3
X94.75Y-126.86
X94.75Y-129.4
X94.75Y-131.94
X97.29Y-126.86
X97.29Y-129.4
X97.29Y-131.94
T0
M30
