G04 #@! TF.FileFunction,Legend,Bot*
%FSLAX46Y46*%
G04 Gerber Fmt 4.6, Leading zero omitted, Abs format (unit mm)*
G04 Created by KiCad (PCBNEW 4.0.2-stable) date 01/06/2016 17:52:26*
%MOMM*%
G01*
G04 APERTURE LIST*
%ADD10C,0.150000*%
G04 APERTURE END LIST*
D10*
X97189286Y-123985714D02*
X97117857Y-124057143D01*
X97046429Y-124271429D01*
X97046429Y-124414286D01*
X97117857Y-124628571D01*
X97260714Y-124771429D01*
X97403571Y-124842857D01*
X97689286Y-124914286D01*
X97903571Y-124914286D01*
X98189286Y-124842857D01*
X98332143Y-124771429D01*
X98475000Y-124628571D01*
X98546429Y-124414286D01*
X98546429Y-124271429D01*
X98475000Y-124057143D01*
X98403571Y-123985714D01*
X97046429Y-123342857D02*
X98546429Y-123342857D01*
X97046429Y-122700000D02*
X97832143Y-122700000D01*
X97975000Y-122771429D01*
X98046429Y-122914286D01*
X98046429Y-123128571D01*
X97975000Y-123271429D01*
X97903571Y-123342857D01*
X97046429Y-121985714D02*
X98046429Y-121985714D01*
X98546429Y-121985714D02*
X98475000Y-122057143D01*
X98403571Y-121985714D01*
X98475000Y-121914286D01*
X98546429Y-121985714D01*
X98403571Y-121985714D01*
X97046429Y-121057142D02*
X97117857Y-121200000D01*
X97260714Y-121271428D01*
X98546429Y-121271428D01*
X97046429Y-119842857D02*
X98546429Y-119842857D01*
X97117857Y-119842857D02*
X97046429Y-119985714D01*
X97046429Y-120271428D01*
X97117857Y-120414286D01*
X97189286Y-120485714D01*
X97332143Y-120557143D01*
X97760714Y-120557143D01*
X97903571Y-120485714D01*
X97975000Y-120414286D01*
X98046429Y-120271428D01*
X98046429Y-119985714D01*
X97975000Y-119842857D01*
X97046429Y-119128571D02*
X98046429Y-119128571D01*
X97760714Y-119128571D02*
X97903571Y-119057143D01*
X97975000Y-118985714D01*
X98046429Y-118842857D01*
X98046429Y-118700000D01*
X97117857Y-117628572D02*
X97046429Y-117771429D01*
X97046429Y-118057143D01*
X97117857Y-118200000D01*
X97260714Y-118271429D01*
X97832143Y-118271429D01*
X97975000Y-118200000D01*
X98046429Y-118057143D01*
X98046429Y-117771429D01*
X97975000Y-117628572D01*
X97832143Y-117557143D01*
X97689286Y-117557143D01*
X97546429Y-118271429D01*
X98046429Y-116914286D02*
X97046429Y-116914286D01*
X97903571Y-116914286D02*
X97975000Y-116842858D01*
X98046429Y-116700000D01*
X98046429Y-116485715D01*
X97975000Y-116342858D01*
X97832143Y-116271429D01*
X97046429Y-116271429D01*
X97046429Y-114200000D02*
X97117857Y-114342858D01*
X97189286Y-114414286D01*
X97332143Y-114485715D01*
X97760714Y-114485715D01*
X97903571Y-114414286D01*
X97975000Y-114342858D01*
X98046429Y-114200000D01*
X98046429Y-113985715D01*
X97975000Y-113842858D01*
X97903571Y-113771429D01*
X97760714Y-113700000D01*
X97332143Y-113700000D01*
X97189286Y-113771429D01*
X97117857Y-113842858D01*
X97046429Y-113985715D01*
X97046429Y-114200000D01*
X98046429Y-113271429D02*
X98046429Y-112700000D01*
X97046429Y-113057143D02*
X98332143Y-113057143D01*
X98475000Y-112985715D01*
X98546429Y-112842857D01*
X98546429Y-112700000D01*
X98046429Y-111271429D02*
X98046429Y-110700000D01*
X98546429Y-111057143D02*
X97260714Y-111057143D01*
X97117857Y-110985715D01*
X97046429Y-110842857D01*
X97046429Y-110700000D01*
X97046429Y-110200000D02*
X98546429Y-110200000D01*
X97046429Y-109557143D02*
X97832143Y-109557143D01*
X97975000Y-109628572D01*
X98046429Y-109771429D01*
X98046429Y-109985714D01*
X97975000Y-110128572D01*
X97903571Y-110200000D01*
X97117857Y-108271429D02*
X97046429Y-108414286D01*
X97046429Y-108700000D01*
X97117857Y-108842857D01*
X97260714Y-108914286D01*
X97832143Y-108914286D01*
X97975000Y-108842857D01*
X98046429Y-108700000D01*
X98046429Y-108414286D01*
X97975000Y-108271429D01*
X97832143Y-108200000D01*
X97689286Y-108200000D01*
X97546429Y-108914286D01*
X98475000Y-105628572D02*
X98546429Y-105771429D01*
X98546429Y-105985715D01*
X98475000Y-106200000D01*
X98332143Y-106342858D01*
X98189286Y-106414286D01*
X97903571Y-106485715D01*
X97689286Y-106485715D01*
X97403571Y-106414286D01*
X97260714Y-106342858D01*
X97117857Y-106200000D01*
X97046429Y-105985715D01*
X97046429Y-105842858D01*
X97117857Y-105628572D01*
X97189286Y-105557143D01*
X97689286Y-105557143D01*
X97689286Y-105842858D01*
X97046429Y-104914286D02*
X98046429Y-104914286D01*
X97760714Y-104914286D02*
X97903571Y-104842858D01*
X97975000Y-104771429D01*
X98046429Y-104628572D01*
X98046429Y-104485715D01*
X97046429Y-103342858D02*
X97832143Y-103342858D01*
X97975000Y-103414287D01*
X98046429Y-103557144D01*
X98046429Y-103842858D01*
X97975000Y-103985715D01*
X97117857Y-103342858D02*
X97046429Y-103485715D01*
X97046429Y-103842858D01*
X97117857Y-103985715D01*
X97260714Y-104057144D01*
X97403571Y-104057144D01*
X97546429Y-103985715D01*
X97617857Y-103842858D01*
X97617857Y-103485715D01*
X97689286Y-103342858D01*
X98046429Y-102771429D02*
X97046429Y-102414286D01*
X98046429Y-102057144D01*
X97117857Y-100914287D02*
X97046429Y-101057144D01*
X97046429Y-101342858D01*
X97117857Y-101485715D01*
X97260714Y-101557144D01*
X97832143Y-101557144D01*
X97975000Y-101485715D01*
X98046429Y-101342858D01*
X98046429Y-101057144D01*
X97975000Y-100914287D01*
X97832143Y-100842858D01*
X97689286Y-100842858D01*
X97546429Y-101557144D01*
X95796429Y-124842857D02*
X94296429Y-124842857D01*
X95725000Y-124842857D02*
X95796429Y-124700000D01*
X95796429Y-124414286D01*
X95725000Y-124271429D01*
X95653571Y-124200000D01*
X95510714Y-124128571D01*
X95082143Y-124128571D01*
X94939286Y-124200000D01*
X94867857Y-124271429D01*
X94796429Y-124414286D01*
X94796429Y-124700000D01*
X94867857Y-124842857D01*
X94796429Y-123271428D02*
X94867857Y-123414286D01*
X95010714Y-123485714D01*
X96296429Y-123485714D01*
X94796429Y-122700000D02*
X95796429Y-122700000D01*
X96296429Y-122700000D02*
X96225000Y-122771429D01*
X96153571Y-122700000D01*
X96225000Y-122628572D01*
X96296429Y-122700000D01*
X96153571Y-122700000D01*
X95796429Y-121985714D02*
X94296429Y-121985714D01*
X95725000Y-121985714D02*
X95796429Y-121842857D01*
X95796429Y-121557143D01*
X95725000Y-121414286D01*
X95653571Y-121342857D01*
X95510714Y-121271428D01*
X95082143Y-121271428D01*
X94939286Y-121342857D01*
X94867857Y-121414286D01*
X94796429Y-121557143D01*
X94796429Y-121842857D01*
X94867857Y-121985714D01*
X96296429Y-120628571D02*
X95082143Y-120628571D01*
X94939286Y-120557143D01*
X94867857Y-120485714D01*
X94796429Y-120342857D01*
X94796429Y-120057143D01*
X94867857Y-119914285D01*
X94939286Y-119842857D01*
X95082143Y-119771428D01*
X96296429Y-119771428D01*
X94796429Y-118842856D02*
X94867857Y-118985714D01*
X95010714Y-119057142D01*
X96296429Y-119057142D01*
X95796429Y-118485714D02*
X95796429Y-117914285D01*
X96296429Y-118271428D02*
X95010714Y-118271428D01*
X94867857Y-118200000D01*
X94796429Y-118057142D01*
X94796429Y-117914285D01*
X94796429Y-117414285D02*
X95796429Y-117414285D01*
X96296429Y-117414285D02*
X96225000Y-117485714D01*
X96153571Y-117414285D01*
X96225000Y-117342857D01*
X96296429Y-117414285D01*
X96153571Y-117414285D01*
X94796429Y-116699999D02*
X95796429Y-116699999D01*
X95653571Y-116699999D02*
X95725000Y-116628571D01*
X95796429Y-116485713D01*
X95796429Y-116271428D01*
X95725000Y-116128571D01*
X95582143Y-116057142D01*
X94796429Y-116057142D01*
X95582143Y-116057142D02*
X95725000Y-115985713D01*
X95796429Y-115842856D01*
X95796429Y-115628571D01*
X95725000Y-115485713D01*
X95582143Y-115414285D01*
X94796429Y-115414285D01*
X94796429Y-114057142D02*
X95582143Y-114057142D01*
X95725000Y-114128571D01*
X95796429Y-114271428D01*
X95796429Y-114557142D01*
X95725000Y-114699999D01*
X94867857Y-114057142D02*
X94796429Y-114199999D01*
X94796429Y-114557142D01*
X94867857Y-114699999D01*
X95010714Y-114771428D01*
X95153571Y-114771428D01*
X95296429Y-114699999D01*
X95367857Y-114557142D01*
X95367857Y-114199999D01*
X95439286Y-114057142D01*
X95796429Y-113557142D02*
X95796429Y-112985713D01*
X96296429Y-113342856D02*
X95010714Y-113342856D01*
X94867857Y-113271428D01*
X94796429Y-113128570D01*
X94796429Y-112985713D01*
X94867857Y-111914285D02*
X94796429Y-112057142D01*
X94796429Y-112342856D01*
X94867857Y-112485713D01*
X95010714Y-112557142D01*
X95582143Y-112557142D01*
X95725000Y-112485713D01*
X95796429Y-112342856D01*
X95796429Y-112057142D01*
X95725000Y-111914285D01*
X95582143Y-111842856D01*
X95439286Y-111842856D01*
X95296429Y-112557142D01*
X94796429Y-109199999D02*
X95510714Y-109699999D01*
X94796429Y-110057142D02*
X96296429Y-110057142D01*
X96296429Y-109485714D01*
X96225000Y-109342856D01*
X96153571Y-109271428D01*
X96010714Y-109199999D01*
X95796429Y-109199999D01*
X95653571Y-109271428D01*
X95582143Y-109342856D01*
X95510714Y-109485714D01*
X95510714Y-110057142D01*
X94867857Y-107985714D02*
X94796429Y-108128571D01*
X94796429Y-108414285D01*
X94867857Y-108557142D01*
X95010714Y-108628571D01*
X95582143Y-108628571D01*
X95725000Y-108557142D01*
X95796429Y-108414285D01*
X95796429Y-108128571D01*
X95725000Y-107985714D01*
X95582143Y-107914285D01*
X95439286Y-107914285D01*
X95296429Y-108628571D01*
X95796429Y-107414285D02*
X94796429Y-107057142D01*
X95796429Y-106700000D01*
X94939286Y-106128571D02*
X94867857Y-106057143D01*
X94796429Y-106128571D01*
X94867857Y-106200000D01*
X94939286Y-106128571D01*
X94796429Y-106128571D01*
X96153571Y-104342857D02*
X96225000Y-104271428D01*
X96296429Y-104128571D01*
X96296429Y-103771428D01*
X96225000Y-103628571D01*
X96153571Y-103557142D01*
X96010714Y-103485714D01*
X95867857Y-103485714D01*
X95653571Y-103557142D01*
X94796429Y-104414285D01*
X94796429Y-103485714D01*
X94939286Y-102842857D02*
X94867857Y-102771429D01*
X94796429Y-102842857D01*
X94867857Y-102914286D01*
X94939286Y-102842857D01*
X94796429Y-102842857D01*
X94796429Y-101342857D02*
X94796429Y-102200000D01*
X94796429Y-101771428D02*
X96296429Y-101771428D01*
X96082143Y-101914285D01*
X95939286Y-102057143D01*
X95867857Y-102200000D01*
X52362132Y-120600000D02*
G75*
G03X52362132Y-120600000I-212132J0D01*
G01*
X53200000Y-116400000D02*
X53600000Y-116400000D01*
X52100000Y-118300000D02*
X52100000Y-117900000D01*
X53600000Y-119800000D02*
X53200000Y-119800000D01*
X54750000Y-118300000D02*
X54750000Y-117900000D01*
X80600000Y-92900000D02*
X80600000Y-87900000D01*
X80600000Y-87900000D02*
X76600000Y-87900000D01*
X76600000Y-87900000D02*
X76600000Y-92900000D01*
X76600000Y-92900000D02*
X80600000Y-92900000D01*
X77600000Y-92400000D02*
G75*
G03X77600000Y-92400000I-250000J0D01*
G01*
X80600000Y-98300000D02*
X80600000Y-93300000D01*
X80600000Y-93300000D02*
X76600000Y-93300000D01*
X76600000Y-93300000D02*
X76600000Y-98300000D01*
X76600000Y-98300000D02*
X80600000Y-98300000D01*
X77600000Y-97800000D02*
G75*
G03X77600000Y-97800000I-250000J0D01*
G01*
X83550000Y-105500000D02*
X83550000Y-104500000D01*
X85250000Y-104500000D02*
X85250000Y-105500000D01*
X85950000Y-105500000D02*
X85950000Y-104500000D01*
X87650000Y-104500000D02*
X87650000Y-105500000D01*
X77200000Y-100450000D02*
X76200000Y-100450000D01*
X76200000Y-98750000D02*
X77200000Y-98750000D01*
X73450000Y-89400000D02*
X73450000Y-90400000D01*
X71750000Y-90400000D02*
X71750000Y-89400000D01*
X64900000Y-97350000D02*
X65900000Y-97350000D01*
X65900000Y-99050000D02*
X64900000Y-99050000D01*
X53500000Y-97350000D02*
X54500000Y-97350000D01*
X54500000Y-99050000D02*
X53500000Y-99050000D01*
X64050000Y-89850000D02*
X64050000Y-90850000D01*
X62350000Y-90850000D02*
X62350000Y-89850000D01*
X61850000Y-89850000D02*
X61850000Y-90850000D01*
X60150000Y-90850000D02*
X60150000Y-89850000D01*
X57950000Y-90850000D02*
X57950000Y-89850000D01*
X59650000Y-89850000D02*
X59650000Y-90850000D01*
X55750000Y-90850000D02*
X55750000Y-89850000D01*
X57450000Y-89850000D02*
X57450000Y-90850000D01*
X54150000Y-127300000D02*
X54150000Y-126300000D01*
X55850000Y-126300000D02*
X55850000Y-127300000D01*
X79350000Y-126900000D02*
X79350000Y-127900000D01*
X77650000Y-127900000D02*
X77650000Y-126900000D01*
X59000000Y-128750000D02*
X58000000Y-128750000D01*
X58000000Y-127050000D02*
X59000000Y-127050000D01*
X52800000Y-86050000D02*
X53800000Y-86050000D01*
X53800000Y-87750000D02*
X52800000Y-87750000D01*
X72900000Y-124100000D02*
G75*
G03X72900000Y-124100000I-300000J0D01*
G01*
X71600000Y-121350000D02*
X71600000Y-124850000D01*
X74850000Y-119600000D02*
X73350000Y-119600000D01*
X76600000Y-124850000D02*
X76600000Y-121350000D01*
X74850000Y-126600000D02*
X73350000Y-126600000D01*
X70400000Y-96850000D02*
X72400000Y-96850000D01*
X72400000Y-96850000D02*
X72400000Y-97100000D01*
X72400000Y-97100000D02*
X70400000Y-97100000D01*
X70400000Y-97100000D02*
X70400000Y-96850000D01*
X95000000Y-93000000D02*
X87000000Y-93000000D01*
X96000000Y-98000000D02*
X96000000Y-88000000D01*
X96000000Y-88000000D02*
X86000000Y-88000000D01*
X86000000Y-88000000D02*
X86000000Y-98000000D01*
X86000000Y-98000000D02*
X96000000Y-98000000D01*
X74200000Y-127850000D02*
X75200000Y-127850000D01*
X75200000Y-129550000D02*
X74200000Y-129550000D01*
X67500000Y-87350000D02*
X68500000Y-87350000D01*
X68500000Y-89050000D02*
X67500000Y-89050000D01*
X59500000Y-86050000D02*
X60500000Y-86050000D01*
X60500000Y-87750000D02*
X59500000Y-87750000D01*
X54100000Y-114450000D02*
X53100000Y-114450000D01*
X53100000Y-112750000D02*
X54100000Y-112750000D01*
X52900000Y-121450000D02*
X53900000Y-121450000D01*
X53900000Y-123150000D02*
X52900000Y-123150000D01*
X63400000Y-110500000D02*
X63400000Y-109500000D01*
X65100000Y-109500000D02*
X65100000Y-110500000D01*
X60650000Y-110500000D02*
X60650000Y-109500000D01*
X62350000Y-109500000D02*
X62350000Y-110500000D01*
X57900000Y-110500000D02*
X57900000Y-109500000D01*
X59600000Y-109500000D02*
X59600000Y-110500000D01*
X58000000Y-124850000D02*
X59000000Y-124850000D01*
X59000000Y-126550000D02*
X58000000Y-126550000D01*
X67500000Y-126450000D02*
X66500000Y-126450000D01*
X66500000Y-124750000D02*
X67500000Y-124750000D01*
X81000000Y-103600000D02*
X69000000Y-103600000D01*
X69000000Y-103600000D02*
X69000000Y-115600000D01*
X69000000Y-115600000D02*
X81000000Y-115600000D01*
X81000000Y-115600000D02*
X81000000Y-103600000D01*
X67400000Y-120400000D02*
G75*
G03X67400000Y-120400000I-200000J0D01*
G01*
X67875000Y-116100000D02*
X67875000Y-120900000D01*
X67875000Y-120900000D02*
X57125000Y-120900000D01*
X57125000Y-120900000D02*
X57125000Y-116100000D01*
X57125000Y-116100000D02*
X67875000Y-116100000D01*
X55652381Y-117290476D02*
X56652381Y-117957143D01*
X55652381Y-117957143D02*
X56652381Y-117290476D01*
X56652381Y-118861905D02*
X56652381Y-118290476D01*
X56652381Y-118576190D02*
X55652381Y-118576190D01*
X55795238Y-118480952D01*
X55890476Y-118385714D01*
X55938095Y-118290476D01*
X83652381Y-87038095D02*
X84461905Y-87038095D01*
X84557143Y-87085714D01*
X84604762Y-87133333D01*
X84652381Y-87228571D01*
X84652381Y-87419048D01*
X84604762Y-87514286D01*
X84557143Y-87561905D01*
X84461905Y-87609524D01*
X83652381Y-87609524D01*
X83652381Y-88514286D02*
X83652381Y-88323809D01*
X83700000Y-88228571D01*
X83747619Y-88180952D01*
X83890476Y-88085714D01*
X84080952Y-88038095D01*
X84461905Y-88038095D01*
X84557143Y-88085714D01*
X84604762Y-88133333D01*
X84652381Y-88228571D01*
X84652381Y-88419048D01*
X84604762Y-88514286D01*
X84557143Y-88561905D01*
X84461905Y-88609524D01*
X84223810Y-88609524D01*
X84128571Y-88561905D01*
X84080952Y-88514286D01*
X84033333Y-88419048D01*
X84033333Y-88228571D01*
X84080952Y-88133333D01*
X84128571Y-88085714D01*
X84223810Y-88038095D01*
X83352381Y-93838095D02*
X84161905Y-93838095D01*
X84257143Y-93885714D01*
X84304762Y-93933333D01*
X84352381Y-94028571D01*
X84352381Y-94219048D01*
X84304762Y-94314286D01*
X84257143Y-94361905D01*
X84161905Y-94409524D01*
X83352381Y-94409524D01*
X83352381Y-95361905D02*
X83352381Y-94885714D01*
X83828571Y-94838095D01*
X83780952Y-94885714D01*
X83733333Y-94980952D01*
X83733333Y-95219048D01*
X83780952Y-95314286D01*
X83828571Y-95361905D01*
X83923810Y-95409524D01*
X84161905Y-95409524D01*
X84257143Y-95361905D01*
X84304762Y-95314286D01*
X84352381Y-95219048D01*
X84352381Y-94980952D01*
X84304762Y-94885714D01*
X84257143Y-94838095D01*
X84852381Y-100557143D02*
X84376190Y-100223809D01*
X84852381Y-99985714D02*
X83852381Y-99985714D01*
X83852381Y-100366667D01*
X83900000Y-100461905D01*
X83947619Y-100509524D01*
X84042857Y-100557143D01*
X84185714Y-100557143D01*
X84280952Y-100509524D01*
X84328571Y-100461905D01*
X84376190Y-100366667D01*
X84376190Y-99985714D01*
X84852381Y-101509524D02*
X84852381Y-100938095D01*
X84852381Y-101223809D02*
X83852381Y-101223809D01*
X83995238Y-101128571D01*
X84090476Y-101033333D01*
X84138095Y-100938095D01*
X84185714Y-102366667D02*
X84852381Y-102366667D01*
X83804762Y-102128571D02*
X84519048Y-101890476D01*
X84519048Y-102509524D01*
X87252381Y-100557143D02*
X86776190Y-100223809D01*
X87252381Y-99985714D02*
X86252381Y-99985714D01*
X86252381Y-100366667D01*
X86300000Y-100461905D01*
X86347619Y-100509524D01*
X86442857Y-100557143D01*
X86585714Y-100557143D01*
X86680952Y-100509524D01*
X86728571Y-100461905D01*
X86776190Y-100366667D01*
X86776190Y-99985714D01*
X87252381Y-101509524D02*
X87252381Y-100938095D01*
X87252381Y-101223809D02*
X86252381Y-101223809D01*
X86395238Y-101128571D01*
X86490476Y-101033333D01*
X86538095Y-100938095D01*
X86252381Y-101842857D02*
X86252381Y-102461905D01*
X86633333Y-102128571D01*
X86633333Y-102271429D01*
X86680952Y-102366667D01*
X86728571Y-102414286D01*
X86823810Y-102461905D01*
X87061905Y-102461905D01*
X87157143Y-102414286D01*
X87204762Y-102366667D01*
X87252381Y-102271429D01*
X87252381Y-101985714D01*
X87204762Y-101890476D01*
X87157143Y-101842857D01*
X80942857Y-100052381D02*
X81276191Y-99576190D01*
X81514286Y-100052381D02*
X81514286Y-99052381D01*
X81133333Y-99052381D01*
X81038095Y-99100000D01*
X80990476Y-99147619D01*
X80942857Y-99242857D01*
X80942857Y-99385714D01*
X80990476Y-99480952D01*
X81038095Y-99528571D01*
X81133333Y-99576190D01*
X81514286Y-99576190D01*
X79990476Y-100052381D02*
X80561905Y-100052381D01*
X80276191Y-100052381D02*
X80276191Y-99052381D01*
X80371429Y-99195238D01*
X80466667Y-99290476D01*
X80561905Y-99338095D01*
X79609524Y-99147619D02*
X79561905Y-99100000D01*
X79466667Y-99052381D01*
X79228571Y-99052381D01*
X79133333Y-99100000D01*
X79085714Y-99147619D01*
X79038095Y-99242857D01*
X79038095Y-99338095D01*
X79085714Y-99480952D01*
X79657143Y-100052381D01*
X79038095Y-100052381D01*
X71452381Y-89257143D02*
X70976190Y-88923809D01*
X71452381Y-88685714D02*
X70452381Y-88685714D01*
X70452381Y-89066667D01*
X70500000Y-89161905D01*
X70547619Y-89209524D01*
X70642857Y-89257143D01*
X70785714Y-89257143D01*
X70880952Y-89209524D01*
X70928571Y-89161905D01*
X70976190Y-89066667D01*
X70976190Y-88685714D01*
X71452381Y-90209524D02*
X71452381Y-89638095D01*
X71452381Y-89923809D02*
X70452381Y-89923809D01*
X70595238Y-89828571D01*
X70690476Y-89733333D01*
X70738095Y-89638095D01*
X71452381Y-91161905D02*
X71452381Y-90590476D01*
X71452381Y-90876190D02*
X70452381Y-90876190D01*
X70595238Y-90780952D01*
X70690476Y-90685714D01*
X70738095Y-90590476D01*
X66042857Y-96952381D02*
X66376191Y-96476190D01*
X66614286Y-96952381D02*
X66614286Y-95952381D01*
X66233333Y-95952381D01*
X66138095Y-96000000D01*
X66090476Y-96047619D01*
X66042857Y-96142857D01*
X66042857Y-96285714D01*
X66090476Y-96380952D01*
X66138095Y-96428571D01*
X66233333Y-96476190D01*
X66614286Y-96476190D01*
X65090476Y-96952381D02*
X65661905Y-96952381D01*
X65376191Y-96952381D02*
X65376191Y-95952381D01*
X65471429Y-96095238D01*
X65566667Y-96190476D01*
X65661905Y-96238095D01*
X64471429Y-95952381D02*
X64376190Y-95952381D01*
X64280952Y-96000000D01*
X64233333Y-96047619D01*
X64185714Y-96142857D01*
X64138095Y-96333333D01*
X64138095Y-96571429D01*
X64185714Y-96761905D01*
X64233333Y-96857143D01*
X64280952Y-96904762D01*
X64376190Y-96952381D01*
X64471429Y-96952381D01*
X64566667Y-96904762D01*
X64614286Y-96857143D01*
X64661905Y-96761905D01*
X64709524Y-96571429D01*
X64709524Y-96333333D01*
X64661905Y-96142857D01*
X64614286Y-96047619D01*
X64566667Y-96000000D01*
X64471429Y-95952381D01*
X54166666Y-97052381D02*
X54500000Y-96576190D01*
X54738095Y-97052381D02*
X54738095Y-96052381D01*
X54357142Y-96052381D01*
X54261904Y-96100000D01*
X54214285Y-96147619D01*
X54166666Y-96242857D01*
X54166666Y-96385714D01*
X54214285Y-96480952D01*
X54261904Y-96528571D01*
X54357142Y-96576190D01*
X54738095Y-96576190D01*
X53690476Y-97052381D02*
X53500000Y-97052381D01*
X53404761Y-97004762D01*
X53357142Y-96957143D01*
X53261904Y-96814286D01*
X53214285Y-96623810D01*
X53214285Y-96242857D01*
X53261904Y-96147619D01*
X53309523Y-96100000D01*
X53404761Y-96052381D01*
X53595238Y-96052381D01*
X53690476Y-96100000D01*
X53738095Y-96147619D01*
X53785714Y-96242857D01*
X53785714Y-96480952D01*
X53738095Y-96576190D01*
X53690476Y-96623810D01*
X53595238Y-96671429D01*
X53404761Y-96671429D01*
X53309523Y-96623810D01*
X53261904Y-96576190D01*
X53214285Y-96480952D01*
X64652381Y-93333334D02*
X64176190Y-93000000D01*
X64652381Y-92761905D02*
X63652381Y-92761905D01*
X63652381Y-93142858D01*
X63700000Y-93238096D01*
X63747619Y-93285715D01*
X63842857Y-93333334D01*
X63985714Y-93333334D01*
X64080952Y-93285715D01*
X64128571Y-93238096D01*
X64176190Y-93142858D01*
X64176190Y-92761905D01*
X64080952Y-93904762D02*
X64033333Y-93809524D01*
X63985714Y-93761905D01*
X63890476Y-93714286D01*
X63842857Y-93714286D01*
X63747619Y-93761905D01*
X63700000Y-93809524D01*
X63652381Y-93904762D01*
X63652381Y-94095239D01*
X63700000Y-94190477D01*
X63747619Y-94238096D01*
X63842857Y-94285715D01*
X63890476Y-94285715D01*
X63985714Y-94238096D01*
X64033333Y-94190477D01*
X64080952Y-94095239D01*
X64080952Y-93904762D01*
X64128571Y-93809524D01*
X64176190Y-93761905D01*
X64271429Y-93714286D01*
X64461905Y-93714286D01*
X64557143Y-93761905D01*
X64604762Y-93809524D01*
X64652381Y-93904762D01*
X64652381Y-94095239D01*
X64604762Y-94190477D01*
X64557143Y-94238096D01*
X64461905Y-94285715D01*
X64271429Y-94285715D01*
X64176190Y-94238096D01*
X64128571Y-94190477D01*
X64080952Y-94095239D01*
X62452381Y-93333334D02*
X61976190Y-93000000D01*
X62452381Y-92761905D02*
X61452381Y-92761905D01*
X61452381Y-93142858D01*
X61500000Y-93238096D01*
X61547619Y-93285715D01*
X61642857Y-93333334D01*
X61785714Y-93333334D01*
X61880952Y-93285715D01*
X61928571Y-93238096D01*
X61976190Y-93142858D01*
X61976190Y-92761905D01*
X61452381Y-93666667D02*
X61452381Y-94333334D01*
X62452381Y-93904762D01*
X60252381Y-93333334D02*
X59776190Y-93000000D01*
X60252381Y-92761905D02*
X59252381Y-92761905D01*
X59252381Y-93142858D01*
X59300000Y-93238096D01*
X59347619Y-93285715D01*
X59442857Y-93333334D01*
X59585714Y-93333334D01*
X59680952Y-93285715D01*
X59728571Y-93238096D01*
X59776190Y-93142858D01*
X59776190Y-92761905D01*
X59252381Y-94190477D02*
X59252381Y-94000000D01*
X59300000Y-93904762D01*
X59347619Y-93857143D01*
X59490476Y-93761905D01*
X59680952Y-93714286D01*
X60061905Y-93714286D01*
X60157143Y-93761905D01*
X60204762Y-93809524D01*
X60252381Y-93904762D01*
X60252381Y-94095239D01*
X60204762Y-94190477D01*
X60157143Y-94238096D01*
X60061905Y-94285715D01*
X59823810Y-94285715D01*
X59728571Y-94238096D01*
X59680952Y-94190477D01*
X59633333Y-94095239D01*
X59633333Y-93904762D01*
X59680952Y-93809524D01*
X59728571Y-93761905D01*
X59823810Y-93714286D01*
X58252381Y-93333334D02*
X57776190Y-93000000D01*
X58252381Y-92761905D02*
X57252381Y-92761905D01*
X57252381Y-93142858D01*
X57300000Y-93238096D01*
X57347619Y-93285715D01*
X57442857Y-93333334D01*
X57585714Y-93333334D01*
X57680952Y-93285715D01*
X57728571Y-93238096D01*
X57776190Y-93142858D01*
X57776190Y-92761905D01*
X57252381Y-94238096D02*
X57252381Y-93761905D01*
X57728571Y-93714286D01*
X57680952Y-93761905D01*
X57633333Y-93857143D01*
X57633333Y-94095239D01*
X57680952Y-94190477D01*
X57728571Y-94238096D01*
X57823810Y-94285715D01*
X58061905Y-94285715D01*
X58157143Y-94238096D01*
X58204762Y-94190477D01*
X58252381Y-94095239D01*
X58252381Y-93857143D01*
X58204762Y-93761905D01*
X58157143Y-93714286D01*
X53852381Y-126633334D02*
X53376190Y-126300000D01*
X53852381Y-126061905D02*
X52852381Y-126061905D01*
X52852381Y-126442858D01*
X52900000Y-126538096D01*
X52947619Y-126585715D01*
X53042857Y-126633334D01*
X53185714Y-126633334D01*
X53280952Y-126585715D01*
X53328571Y-126538096D01*
X53376190Y-126442858D01*
X53376190Y-126061905D01*
X53185714Y-127490477D02*
X53852381Y-127490477D01*
X52804762Y-127252381D02*
X53519048Y-127014286D01*
X53519048Y-127633334D01*
X81052381Y-127233334D02*
X80576190Y-126900000D01*
X81052381Y-126661905D02*
X80052381Y-126661905D01*
X80052381Y-127042858D01*
X80100000Y-127138096D01*
X80147619Y-127185715D01*
X80242857Y-127233334D01*
X80385714Y-127233334D01*
X80480952Y-127185715D01*
X80528571Y-127138096D01*
X80576190Y-127042858D01*
X80576190Y-126661905D01*
X80052381Y-127566667D02*
X80052381Y-128185715D01*
X80433333Y-127852381D01*
X80433333Y-127995239D01*
X80480952Y-128090477D01*
X80528571Y-128138096D01*
X80623810Y-128185715D01*
X80861905Y-128185715D01*
X80957143Y-128138096D01*
X81004762Y-128090477D01*
X81052381Y-127995239D01*
X81052381Y-127709524D01*
X81004762Y-127614286D01*
X80957143Y-127566667D01*
X61866666Y-128352381D02*
X62200000Y-127876190D01*
X62438095Y-128352381D02*
X62438095Y-127352381D01*
X62057142Y-127352381D01*
X61961904Y-127400000D01*
X61914285Y-127447619D01*
X61866666Y-127542857D01*
X61866666Y-127685714D01*
X61914285Y-127780952D01*
X61961904Y-127828571D01*
X62057142Y-127876190D01*
X62438095Y-127876190D01*
X61485714Y-127447619D02*
X61438095Y-127400000D01*
X61342857Y-127352381D01*
X61104761Y-127352381D01*
X61009523Y-127400000D01*
X60961904Y-127447619D01*
X60914285Y-127542857D01*
X60914285Y-127638095D01*
X60961904Y-127780952D01*
X61533333Y-128352381D01*
X60914285Y-128352381D01*
X56666666Y-87352381D02*
X57142857Y-87352381D01*
X57142857Y-86352381D01*
X55809523Y-87352381D02*
X56380952Y-87352381D01*
X56095238Y-87352381D02*
X56095238Y-86352381D01*
X56190476Y-86495238D01*
X56285714Y-86590476D01*
X56380952Y-86638095D01*
X70300000Y-122885715D02*
X70252381Y-122790477D01*
X70252381Y-122647620D01*
X70300000Y-122504762D01*
X70395238Y-122409524D01*
X70490476Y-122361905D01*
X70680952Y-122314286D01*
X70823810Y-122314286D01*
X71014286Y-122361905D01*
X71109524Y-122409524D01*
X71204762Y-122504762D01*
X71252381Y-122647620D01*
X71252381Y-122742858D01*
X71204762Y-122885715D01*
X71157143Y-122933334D01*
X70823810Y-122933334D01*
X70823810Y-122742858D01*
X71252381Y-123885715D02*
X71252381Y-123314286D01*
X71252381Y-123600000D02*
X70252381Y-123600000D01*
X70395238Y-123504762D01*
X70490476Y-123409524D01*
X70538095Y-123314286D01*
X70152381Y-96861905D02*
X69152381Y-96861905D01*
X69152381Y-97100000D01*
X69200000Y-97242858D01*
X69295238Y-97338096D01*
X69390476Y-97385715D01*
X69580952Y-97433334D01*
X69723810Y-97433334D01*
X69914286Y-97385715D01*
X70009524Y-97338096D01*
X70104762Y-97242858D01*
X70152381Y-97100000D01*
X70152381Y-96861905D01*
X69152381Y-97766667D02*
X69152381Y-98385715D01*
X69533333Y-98052381D01*
X69533333Y-98195239D01*
X69580952Y-98290477D01*
X69628571Y-98338096D01*
X69723810Y-98385715D01*
X69961905Y-98385715D01*
X70057143Y-98338096D01*
X70104762Y-98290477D01*
X70152381Y-98195239D01*
X70152381Y-97909524D01*
X70104762Y-97814286D01*
X70057143Y-97766667D01*
X56782381Y-133109524D02*
X56782381Y-132538095D01*
X56782381Y-132823809D02*
X55782381Y-132823809D01*
X55925238Y-132728571D01*
X56020476Y-132633333D01*
X56068095Y-132538095D01*
X56115714Y-133966667D02*
X56782381Y-133966667D01*
X55734762Y-133728571D02*
X56449048Y-133490476D01*
X56449048Y-134109524D01*
X97857143Y-92357143D02*
X97904762Y-92309524D01*
X97952381Y-92166667D01*
X97952381Y-92071429D01*
X97904762Y-91928571D01*
X97809524Y-91833333D01*
X97714286Y-91785714D01*
X97523810Y-91738095D01*
X97380952Y-91738095D01*
X97190476Y-91785714D01*
X97095238Y-91833333D01*
X97000000Y-91928571D01*
X96952381Y-92071429D01*
X96952381Y-92166667D01*
X97000000Y-92309524D01*
X97047619Y-92357143D01*
X97952381Y-93309524D02*
X97952381Y-92738095D01*
X97952381Y-93023809D02*
X96952381Y-93023809D01*
X97095238Y-92928571D01*
X97190476Y-92833333D01*
X97238095Y-92738095D01*
X97380952Y-93880952D02*
X97333333Y-93785714D01*
X97285714Y-93738095D01*
X97190476Y-93690476D01*
X97142857Y-93690476D01*
X97047619Y-93738095D01*
X97000000Y-93785714D01*
X96952381Y-93880952D01*
X96952381Y-94071429D01*
X97000000Y-94166667D01*
X97047619Y-94214286D01*
X97142857Y-94261905D01*
X97190476Y-94261905D01*
X97285714Y-94214286D01*
X97333333Y-94166667D01*
X97380952Y-94071429D01*
X97380952Y-93880952D01*
X97428571Y-93785714D01*
X97476190Y-93738095D01*
X97571429Y-93690476D01*
X97761905Y-93690476D01*
X97857143Y-93738095D01*
X97904762Y-93785714D01*
X97952381Y-93880952D01*
X97952381Y-94071429D01*
X97904762Y-94166667D01*
X97857143Y-94214286D01*
X97761905Y-94261905D01*
X97571429Y-94261905D01*
X97476190Y-94214286D01*
X97428571Y-94166667D01*
X97380952Y-94071429D01*
X93380952Y-98821429D02*
X92619047Y-98821429D01*
X93380952Y-87321429D02*
X92619047Y-87321429D01*
X92999999Y-87702381D02*
X92999999Y-86940476D01*
X75342857Y-130757143D02*
X75390476Y-130804762D01*
X75533333Y-130852381D01*
X75628571Y-130852381D01*
X75771429Y-130804762D01*
X75866667Y-130709524D01*
X75914286Y-130614286D01*
X75961905Y-130423810D01*
X75961905Y-130280952D01*
X75914286Y-130090476D01*
X75866667Y-129995238D01*
X75771429Y-129900000D01*
X75628571Y-129852381D01*
X75533333Y-129852381D01*
X75390476Y-129900000D01*
X75342857Y-129947619D01*
X74390476Y-130852381D02*
X74961905Y-130852381D01*
X74676191Y-130852381D02*
X74676191Y-129852381D01*
X74771429Y-129995238D01*
X74866667Y-130090476D01*
X74961905Y-130138095D01*
X73533333Y-130185714D02*
X73533333Y-130852381D01*
X73771429Y-129804762D02*
X74009524Y-130519048D01*
X73390476Y-130519048D01*
X68842857Y-86957143D02*
X68890476Y-87004762D01*
X69033333Y-87052381D01*
X69128571Y-87052381D01*
X69271429Y-87004762D01*
X69366667Y-86909524D01*
X69414286Y-86814286D01*
X69461905Y-86623810D01*
X69461905Y-86480952D01*
X69414286Y-86290476D01*
X69366667Y-86195238D01*
X69271429Y-86100000D01*
X69128571Y-86052381D01*
X69033333Y-86052381D01*
X68890476Y-86100000D01*
X68842857Y-86147619D01*
X67890476Y-87052381D02*
X68461905Y-87052381D01*
X68176191Y-87052381D02*
X68176191Y-86052381D01*
X68271429Y-86195238D01*
X68366667Y-86290476D01*
X68461905Y-86338095D01*
X67557143Y-86052381D02*
X66938095Y-86052381D01*
X67271429Y-86433333D01*
X67128571Y-86433333D01*
X67033333Y-86480952D01*
X66985714Y-86528571D01*
X66938095Y-86623810D01*
X66938095Y-86861905D01*
X66985714Y-86957143D01*
X67033333Y-87004762D01*
X67128571Y-87052381D01*
X67414286Y-87052381D01*
X67509524Y-87004762D01*
X67557143Y-86957143D01*
X64542857Y-87257143D02*
X64590476Y-87304762D01*
X64733333Y-87352381D01*
X64828571Y-87352381D01*
X64971429Y-87304762D01*
X65066667Y-87209524D01*
X65114286Y-87114286D01*
X65161905Y-86923810D01*
X65161905Y-86780952D01*
X65114286Y-86590476D01*
X65066667Y-86495238D01*
X64971429Y-86400000D01*
X64828571Y-86352381D01*
X64733333Y-86352381D01*
X64590476Y-86400000D01*
X64542857Y-86447619D01*
X63590476Y-87352381D02*
X64161905Y-87352381D01*
X63876191Y-87352381D02*
X63876191Y-86352381D01*
X63971429Y-86495238D01*
X64066667Y-86590476D01*
X64161905Y-86638095D01*
X63209524Y-86447619D02*
X63161905Y-86400000D01*
X63066667Y-86352381D01*
X62828571Y-86352381D01*
X62733333Y-86400000D01*
X62685714Y-86447619D01*
X62638095Y-86542857D01*
X62638095Y-86638095D01*
X62685714Y-86780952D01*
X63257143Y-87352381D01*
X62638095Y-87352381D01*
X54242857Y-112157143D02*
X54290476Y-112204762D01*
X54433333Y-112252381D01*
X54528571Y-112252381D01*
X54671429Y-112204762D01*
X54766667Y-112109524D01*
X54814286Y-112014286D01*
X54861905Y-111823810D01*
X54861905Y-111680952D01*
X54814286Y-111490476D01*
X54766667Y-111395238D01*
X54671429Y-111300000D01*
X54528571Y-111252381D01*
X54433333Y-111252381D01*
X54290476Y-111300000D01*
X54242857Y-111347619D01*
X53290476Y-112252381D02*
X53861905Y-112252381D01*
X53576191Y-112252381D02*
X53576191Y-111252381D01*
X53671429Y-111395238D01*
X53766667Y-111490476D01*
X53861905Y-111538095D01*
X52338095Y-112252381D02*
X52909524Y-112252381D01*
X52623810Y-112252381D02*
X52623810Y-111252381D01*
X52719048Y-111395238D01*
X52814286Y-111490476D01*
X52909524Y-111538095D01*
X54042857Y-124357143D02*
X54090476Y-124404762D01*
X54233333Y-124452381D01*
X54328571Y-124452381D01*
X54471429Y-124404762D01*
X54566667Y-124309524D01*
X54614286Y-124214286D01*
X54661905Y-124023810D01*
X54661905Y-123880952D01*
X54614286Y-123690476D01*
X54566667Y-123595238D01*
X54471429Y-123500000D01*
X54328571Y-123452381D01*
X54233333Y-123452381D01*
X54090476Y-123500000D01*
X54042857Y-123547619D01*
X53090476Y-124452381D02*
X53661905Y-124452381D01*
X53376191Y-124452381D02*
X53376191Y-123452381D01*
X53471429Y-123595238D01*
X53566667Y-123690476D01*
X53661905Y-123738095D01*
X52471429Y-123452381D02*
X52376190Y-123452381D01*
X52280952Y-123500000D01*
X52233333Y-123547619D01*
X52185714Y-123642857D01*
X52138095Y-123833333D01*
X52138095Y-124071429D01*
X52185714Y-124261905D01*
X52233333Y-124357143D01*
X52280952Y-124404762D01*
X52376190Y-124452381D01*
X52471429Y-124452381D01*
X52566667Y-124404762D01*
X52614286Y-124357143D01*
X52661905Y-124261905D01*
X52709524Y-124071429D01*
X52709524Y-123833333D01*
X52661905Y-123642857D01*
X52614286Y-123547619D01*
X52566667Y-123500000D01*
X52471429Y-123452381D01*
X64557143Y-106433334D02*
X64604762Y-106385715D01*
X64652381Y-106242858D01*
X64652381Y-106147620D01*
X64604762Y-106004762D01*
X64509524Y-105909524D01*
X64414286Y-105861905D01*
X64223810Y-105814286D01*
X64080952Y-105814286D01*
X63890476Y-105861905D01*
X63795238Y-105909524D01*
X63700000Y-106004762D01*
X63652381Y-106147620D01*
X63652381Y-106242858D01*
X63700000Y-106385715D01*
X63747619Y-106433334D01*
X64652381Y-106909524D02*
X64652381Y-107100000D01*
X64604762Y-107195239D01*
X64557143Y-107242858D01*
X64414286Y-107338096D01*
X64223810Y-107385715D01*
X63842857Y-107385715D01*
X63747619Y-107338096D01*
X63700000Y-107290477D01*
X63652381Y-107195239D01*
X63652381Y-107004762D01*
X63700000Y-106909524D01*
X63747619Y-106861905D01*
X63842857Y-106814286D01*
X64080952Y-106814286D01*
X64176190Y-106861905D01*
X64223810Y-106909524D01*
X64271429Y-107004762D01*
X64271429Y-107195239D01*
X64223810Y-107290477D01*
X64176190Y-107338096D01*
X64080952Y-107385715D01*
X61857143Y-106433334D02*
X61904762Y-106385715D01*
X61952381Y-106242858D01*
X61952381Y-106147620D01*
X61904762Y-106004762D01*
X61809524Y-105909524D01*
X61714286Y-105861905D01*
X61523810Y-105814286D01*
X61380952Y-105814286D01*
X61190476Y-105861905D01*
X61095238Y-105909524D01*
X61000000Y-106004762D01*
X60952381Y-106147620D01*
X60952381Y-106242858D01*
X61000000Y-106385715D01*
X61047619Y-106433334D01*
X60952381Y-106766667D02*
X60952381Y-107433334D01*
X61952381Y-107004762D01*
X59157143Y-106433334D02*
X59204762Y-106385715D01*
X59252381Y-106242858D01*
X59252381Y-106147620D01*
X59204762Y-106004762D01*
X59109524Y-105909524D01*
X59014286Y-105861905D01*
X58823810Y-105814286D01*
X58680952Y-105814286D01*
X58490476Y-105861905D01*
X58395238Y-105909524D01*
X58300000Y-106004762D01*
X58252381Y-106147620D01*
X58252381Y-106242858D01*
X58300000Y-106385715D01*
X58347619Y-106433334D01*
X58585714Y-107290477D02*
X59252381Y-107290477D01*
X58204762Y-107052381D02*
X58919048Y-106814286D01*
X58919048Y-107433334D01*
X61866666Y-126057143D02*
X61914285Y-126104762D01*
X62057142Y-126152381D01*
X62152380Y-126152381D01*
X62295238Y-126104762D01*
X62390476Y-126009524D01*
X62438095Y-125914286D01*
X62485714Y-125723810D01*
X62485714Y-125580952D01*
X62438095Y-125390476D01*
X62390476Y-125295238D01*
X62295238Y-125200000D01*
X62152380Y-125152381D01*
X62057142Y-125152381D01*
X61914285Y-125200000D01*
X61866666Y-125247619D01*
X61485714Y-125247619D02*
X61438095Y-125200000D01*
X61342857Y-125152381D01*
X61104761Y-125152381D01*
X61009523Y-125200000D01*
X60961904Y-125247619D01*
X60914285Y-125342857D01*
X60914285Y-125438095D01*
X60961904Y-125580952D01*
X61533333Y-126152381D01*
X60914285Y-126152381D01*
X63966666Y-125957143D02*
X64014285Y-126004762D01*
X64157142Y-126052381D01*
X64252380Y-126052381D01*
X64395238Y-126004762D01*
X64490476Y-125909524D01*
X64538095Y-125814286D01*
X64585714Y-125623810D01*
X64585714Y-125480952D01*
X64538095Y-125290476D01*
X64490476Y-125195238D01*
X64395238Y-125100000D01*
X64252380Y-125052381D01*
X64157142Y-125052381D01*
X64014285Y-125100000D01*
X63966666Y-125147619D01*
X63014285Y-126052381D02*
X63585714Y-126052381D01*
X63300000Y-126052381D02*
X63300000Y-125052381D01*
X63395238Y-125195238D01*
X63490476Y-125290476D01*
X63585714Y-125338095D01*
X82452381Y-109433334D02*
X82452381Y-108957143D01*
X81452381Y-108957143D01*
X81547619Y-109719048D02*
X81500000Y-109766667D01*
X81452381Y-109861905D01*
X81452381Y-110100001D01*
X81500000Y-110195239D01*
X81547619Y-110242858D01*
X81642857Y-110290477D01*
X81738095Y-110290477D01*
X81880952Y-110242858D01*
X82452381Y-109671429D01*
X82452381Y-110290477D01*
X68592857Y-117585714D02*
X69564286Y-117585714D01*
X69678571Y-117642857D01*
X69735714Y-117700000D01*
X69792857Y-117814286D01*
X69792857Y-118042857D01*
X69735714Y-118157143D01*
X69678571Y-118214286D01*
X69564286Y-118271429D01*
X68592857Y-118271429D01*
X69792857Y-119471429D02*
X69792857Y-118785714D01*
X69792857Y-119128572D02*
X68592857Y-119128572D01*
X68764286Y-119014286D01*
X68878571Y-118900000D01*
X68935714Y-118785714D01*
M02*
