G04 #@! TF.FileFunction,Legend,Top*
%FSLAX46Y46*%
G04 Gerber Fmt 4.6, Leading zero omitted, Abs format (unit mm)*
G04 Created by KiCad (PCBNEW 4.0.2-stable) date 01/06/2016 17:52:26*
%MOMM*%
G01*
G04 APERTURE LIST*
%ADD10C,0.150000*%
G04 APERTURE END LIST*
D10*
X92840000Y-120700000D02*
X83840000Y-120700000D01*
X92840000Y-124700000D02*
X92840000Y-120700000D01*
X83840000Y-124700000D02*
X92840000Y-124700000D01*
X83840000Y-120700000D02*
X83840000Y-124700000D01*
X84840000Y-123950000D02*
G75*
G03X84840000Y-123950000I-250000J0D01*
G01*
X67960000Y-101210000D02*
X51460000Y-101210000D01*
X67960000Y-85710000D02*
X67960000Y-101210000D01*
X51460000Y-85710000D02*
X51460000Y-101210000D01*
X67960000Y-85710000D02*
X51460000Y-85710000D01*
X78700000Y-98400000D02*
X71700000Y-98400000D01*
X71700000Y-98400000D02*
X71700000Y-101900000D01*
X71700000Y-101900000D02*
X78700000Y-101900000D01*
X78700000Y-101900000D02*
X78700000Y-98400000D01*
X54900000Y-112300000D02*
X54900000Y-102300000D01*
X54900000Y-102300000D02*
X63400000Y-102300000D01*
X63400000Y-102300000D02*
X63400000Y-112300000D01*
X63400000Y-112300000D02*
X54900000Y-112300000D01*
X51150000Y-131500000D02*
X51150000Y-132500000D01*
X52850000Y-132500000D02*
X52850000Y-131500000D01*
X70200000Y-107600000D02*
X72200000Y-107600000D01*
X72200000Y-107600000D02*
X72200000Y-107400000D01*
X72200000Y-107400000D02*
X70200000Y-107400000D01*
X70200000Y-107400000D02*
X70200000Y-107600000D01*
X53450000Y-131500000D02*
X53450000Y-132500000D01*
X55150000Y-132500000D02*
X55150000Y-131500000D01*
X98400000Y-112325000D02*
X98400000Y-87825000D01*
X98400000Y-87825000D02*
X90400000Y-87825000D01*
X90400000Y-87825000D02*
X87400000Y-89825000D01*
X87400000Y-89825000D02*
X82900000Y-89825000D01*
X82900000Y-89825000D02*
X82900000Y-112325000D01*
X82900000Y-112325000D02*
X98400000Y-112325000D01*
X74150000Y-89000000D02*
X72150000Y-89000000D01*
X72150000Y-89000000D02*
X72150000Y-87300000D01*
X79750000Y-87300000D02*
X79750000Y-89000000D01*
X79750000Y-89000000D02*
X77750000Y-89000000D01*
X93480000Y-128130000D02*
X93480000Y-133210000D01*
X93200000Y-125310000D02*
X94750000Y-125310000D01*
X96020000Y-125590000D02*
X96020000Y-128130000D01*
X96020000Y-128130000D02*
X93480000Y-128130000D01*
X93480000Y-133210000D02*
X98560000Y-133210000D01*
X98560000Y-133210000D02*
X98560000Y-128130000D01*
X93200000Y-125310000D02*
X93200000Y-126860000D01*
X98560000Y-125590000D02*
X96020000Y-125590000D01*
X98560000Y-128130000D02*
X98560000Y-125590000D01*
X76900000Y-93750000D02*
X75900000Y-93750000D01*
X75900000Y-95450000D02*
X76900000Y-95450000D01*
X88250000Y-128300000D02*
X87250000Y-128300000D01*
X87250000Y-130000000D02*
X88250000Y-130000000D01*
X80050000Y-105100000D02*
X80050000Y-104100000D01*
X78350000Y-104100000D02*
X78350000Y-105100000D01*
X58000000Y-114800000D02*
X58000000Y-122800000D01*
X53000000Y-113800000D02*
X63000000Y-113800000D01*
X63000000Y-113800000D02*
X63000000Y-123800000D01*
X63000000Y-123800000D02*
X53000000Y-123800000D01*
X53000000Y-123800000D02*
X53000000Y-113800000D01*
X65450000Y-120550000D02*
X65450000Y-121550000D01*
X67150000Y-121550000D02*
X67150000Y-120550000D01*
X69250000Y-121550000D02*
X69250000Y-120550000D01*
X67550000Y-120550000D02*
X67550000Y-121550000D01*
X83550000Y-121700000D02*
X83550000Y-120700000D01*
X81850000Y-120700000D02*
X81850000Y-121700000D01*
X79041421Y-124600000D02*
G75*
G03X79041421Y-124600000I-141421J0D01*
G01*
X72300000Y-125300000D02*
X79300000Y-125300000D01*
X72300000Y-118300000D02*
X72300000Y-125300000D01*
X79300000Y-118300000D02*
X72300000Y-118300000D01*
X79300000Y-125300000D02*
X79300000Y-118300000D01*
X83052381Y-127561905D02*
X83861905Y-127561905D01*
X83957143Y-127514286D01*
X84004762Y-127466667D01*
X84052381Y-127371429D01*
X84052381Y-127180952D01*
X84004762Y-127085714D01*
X83957143Y-127038095D01*
X83861905Y-126990476D01*
X83052381Y-126990476D01*
X83385714Y-126085714D02*
X84052381Y-126085714D01*
X83004762Y-126323810D02*
X83719048Y-126561905D01*
X83719048Y-125942857D01*
X64785715Y-102557143D02*
X64738096Y-102604762D01*
X64595239Y-102652381D01*
X64500001Y-102652381D01*
X64357143Y-102604762D01*
X64261905Y-102509524D01*
X64214286Y-102414286D01*
X64166667Y-102223810D01*
X64166667Y-102080952D01*
X64214286Y-101890476D01*
X64261905Y-101795238D01*
X64357143Y-101700000D01*
X64500001Y-101652381D01*
X64595239Y-101652381D01*
X64738096Y-101700000D01*
X64785715Y-101747619D01*
X65404762Y-101652381D02*
X65595239Y-101652381D01*
X65690477Y-101700000D01*
X65785715Y-101795238D01*
X65833334Y-101985714D01*
X65833334Y-102319048D01*
X65785715Y-102509524D01*
X65690477Y-102604762D01*
X65595239Y-102652381D01*
X65404762Y-102652381D01*
X65309524Y-102604762D01*
X65214286Y-102509524D01*
X65166667Y-102319048D01*
X65166667Y-101985714D01*
X65214286Y-101795238D01*
X65309524Y-101700000D01*
X65404762Y-101652381D01*
X66261905Y-102652381D02*
X66261905Y-101652381D01*
X66833334Y-102652381D01*
X66833334Y-101652381D01*
X67214286Y-101652381D02*
X67833334Y-101652381D01*
X67500000Y-102033333D01*
X67642858Y-102033333D01*
X67738096Y-102080952D01*
X67785715Y-102128571D01*
X67833334Y-102223810D01*
X67833334Y-102461905D01*
X67785715Y-102557143D01*
X67738096Y-102604762D01*
X67642858Y-102652381D01*
X67357143Y-102652381D01*
X67261905Y-102604762D01*
X67214286Y-102557143D01*
X70752381Y-97961905D02*
X71561905Y-97961905D01*
X71657143Y-97914286D01*
X71704762Y-97866667D01*
X71752381Y-97771429D01*
X71752381Y-97580952D01*
X71704762Y-97485714D01*
X71657143Y-97438095D01*
X71561905Y-97390476D01*
X70752381Y-97390476D01*
X70752381Y-97009524D02*
X70752381Y-96342857D01*
X71752381Y-96771429D01*
X58138095Y-113502381D02*
X58138095Y-114311905D01*
X58185714Y-114407143D01*
X58233333Y-114454762D01*
X58328571Y-114502381D01*
X58519048Y-114502381D01*
X58614286Y-114454762D01*
X58661905Y-114407143D01*
X58709524Y-114311905D01*
X58709524Y-113502381D01*
X59090476Y-113502381D02*
X59709524Y-113502381D01*
X59376190Y-113883333D01*
X59519048Y-113883333D01*
X59614286Y-113930952D01*
X59661905Y-113978571D01*
X59709524Y-114073810D01*
X59709524Y-114311905D01*
X59661905Y-114407143D01*
X59614286Y-114454762D01*
X59519048Y-114502381D01*
X59233333Y-114502381D01*
X59138095Y-114454762D01*
X59090476Y-114407143D01*
X52352381Y-128266666D02*
X51876190Y-128600000D01*
X52352381Y-128838095D02*
X51352381Y-128838095D01*
X51352381Y-128457142D01*
X51400000Y-128361904D01*
X51447619Y-128314285D01*
X51542857Y-128266666D01*
X51685714Y-128266666D01*
X51780952Y-128314285D01*
X51828571Y-128361904D01*
X51876190Y-128457142D01*
X51876190Y-128838095D01*
X52352381Y-127314285D02*
X52352381Y-127885714D01*
X52352381Y-127600000D02*
X51352381Y-127600000D01*
X51495238Y-127695238D01*
X51590476Y-127790476D01*
X51638095Y-127885714D01*
X74402381Y-107738095D02*
X73402381Y-107738095D01*
X73402381Y-107500000D01*
X73450000Y-107357142D01*
X73545238Y-107261904D01*
X73640476Y-107214285D01*
X73830952Y-107166666D01*
X73973810Y-107166666D01*
X74164286Y-107214285D01*
X74259524Y-107261904D01*
X74354762Y-107357142D01*
X74402381Y-107500000D01*
X74402381Y-107738095D01*
X73497619Y-106785714D02*
X73450000Y-106738095D01*
X73402381Y-106642857D01*
X73402381Y-106404761D01*
X73450000Y-106309523D01*
X73497619Y-106261904D01*
X73592857Y-106214285D01*
X73688095Y-106214285D01*
X73830952Y-106261904D01*
X74402381Y-106833333D01*
X74402381Y-106214285D01*
X54752381Y-128838095D02*
X53752381Y-128838095D01*
X53752381Y-128600000D01*
X53800000Y-128457142D01*
X53895238Y-128361904D01*
X53990476Y-128314285D01*
X54180952Y-128266666D01*
X54323810Y-128266666D01*
X54514286Y-128314285D01*
X54609524Y-128361904D01*
X54704762Y-128457142D01*
X54752381Y-128600000D01*
X54752381Y-128838095D01*
X54752381Y-127314285D02*
X54752381Y-127885714D01*
X54752381Y-127600000D02*
X53752381Y-127600000D01*
X53895238Y-127695238D01*
X53990476Y-127790476D01*
X54038095Y-127885714D01*
X89185715Y-113682143D02*
X89138096Y-113729762D01*
X88995239Y-113777381D01*
X88900001Y-113777381D01*
X88757143Y-113729762D01*
X88661905Y-113634524D01*
X88614286Y-113539286D01*
X88566667Y-113348810D01*
X88566667Y-113205952D01*
X88614286Y-113015476D01*
X88661905Y-112920238D01*
X88757143Y-112825000D01*
X88900001Y-112777381D01*
X88995239Y-112777381D01*
X89138096Y-112825000D01*
X89185715Y-112872619D01*
X89804762Y-112777381D02*
X89995239Y-112777381D01*
X90090477Y-112825000D01*
X90185715Y-112920238D01*
X90233334Y-113110714D01*
X90233334Y-113444048D01*
X90185715Y-113634524D01*
X90090477Y-113729762D01*
X89995239Y-113777381D01*
X89804762Y-113777381D01*
X89709524Y-113729762D01*
X89614286Y-113634524D01*
X89566667Y-113444048D01*
X89566667Y-113110714D01*
X89614286Y-112920238D01*
X89709524Y-112825000D01*
X89804762Y-112777381D01*
X90661905Y-113777381D02*
X90661905Y-112777381D01*
X91233334Y-113777381D01*
X91233334Y-112777381D01*
X92185715Y-112777381D02*
X91709524Y-112777381D01*
X91661905Y-113253571D01*
X91709524Y-113205952D01*
X91804762Y-113158333D01*
X92042858Y-113158333D01*
X92138096Y-113205952D01*
X92185715Y-113253571D01*
X92233334Y-113348810D01*
X92233334Y-113586905D01*
X92185715Y-113682143D01*
X92138096Y-113729762D01*
X92042858Y-113777381D01*
X91804762Y-113777381D01*
X91709524Y-113729762D01*
X91661905Y-113682143D01*
X70657143Y-90314285D02*
X70704762Y-90361904D01*
X70752381Y-90504761D01*
X70752381Y-90599999D01*
X70704762Y-90742857D01*
X70609524Y-90838095D01*
X70514286Y-90885714D01*
X70323810Y-90933333D01*
X70180952Y-90933333D01*
X69990476Y-90885714D01*
X69895238Y-90838095D01*
X69800000Y-90742857D01*
X69752381Y-90599999D01*
X69752381Y-90504761D01*
X69800000Y-90361904D01*
X69847619Y-90314285D01*
X69752381Y-89695238D02*
X69752381Y-89504761D01*
X69800000Y-89409523D01*
X69895238Y-89314285D01*
X70085714Y-89266666D01*
X70419048Y-89266666D01*
X70609524Y-89314285D01*
X70704762Y-89409523D01*
X70752381Y-89504761D01*
X70752381Y-89695238D01*
X70704762Y-89790476D01*
X70609524Y-89885714D01*
X70419048Y-89933333D01*
X70085714Y-89933333D01*
X69895238Y-89885714D01*
X69800000Y-89790476D01*
X69752381Y-89695238D01*
X70752381Y-88838095D02*
X69752381Y-88838095D01*
X70752381Y-88266666D01*
X69752381Y-88266666D01*
X70085714Y-87361904D02*
X70752381Y-87361904D01*
X69704762Y-87600000D02*
X70419048Y-87838095D01*
X70419048Y-87219047D01*
X94885715Y-124557143D02*
X94838096Y-124604762D01*
X94695239Y-124652381D01*
X94600001Y-124652381D01*
X94457143Y-124604762D01*
X94361905Y-124509524D01*
X94314286Y-124414286D01*
X94266667Y-124223810D01*
X94266667Y-124080952D01*
X94314286Y-123890476D01*
X94361905Y-123795238D01*
X94457143Y-123700000D01*
X94600001Y-123652381D01*
X94695239Y-123652381D01*
X94838096Y-123700000D01*
X94885715Y-123747619D01*
X95504762Y-123652381D02*
X95695239Y-123652381D01*
X95790477Y-123700000D01*
X95885715Y-123795238D01*
X95933334Y-123985714D01*
X95933334Y-124319048D01*
X95885715Y-124509524D01*
X95790477Y-124604762D01*
X95695239Y-124652381D01*
X95504762Y-124652381D01*
X95409524Y-124604762D01*
X95314286Y-124509524D01*
X95266667Y-124319048D01*
X95266667Y-123985714D01*
X95314286Y-123795238D01*
X95409524Y-123700000D01*
X95504762Y-123652381D01*
X96361905Y-124652381D02*
X96361905Y-123652381D01*
X96933334Y-124652381D01*
X96933334Y-123652381D01*
X97361905Y-123747619D02*
X97409524Y-123700000D01*
X97504762Y-123652381D01*
X97742858Y-123652381D01*
X97838096Y-123700000D01*
X97885715Y-123747619D01*
X97933334Y-123842857D01*
X97933334Y-123938095D01*
X97885715Y-124080952D01*
X97314286Y-124652381D01*
X97933334Y-124652381D01*
X92657143Y-134114285D02*
X92704762Y-134161904D01*
X92752381Y-134304761D01*
X92752381Y-134399999D01*
X92704762Y-134542857D01*
X92609524Y-134638095D01*
X92514286Y-134685714D01*
X92323810Y-134733333D01*
X92180952Y-134733333D01*
X91990476Y-134685714D01*
X91895238Y-134638095D01*
X91800000Y-134542857D01*
X91752381Y-134399999D01*
X91752381Y-134304761D01*
X91800000Y-134161904D01*
X91847619Y-134114285D01*
X91752381Y-133495238D02*
X91752381Y-133304761D01*
X91800000Y-133209523D01*
X91895238Y-133114285D01*
X92085714Y-133066666D01*
X92419048Y-133066666D01*
X92609524Y-133114285D01*
X92704762Y-133209523D01*
X92752381Y-133304761D01*
X92752381Y-133495238D01*
X92704762Y-133590476D01*
X92609524Y-133685714D01*
X92419048Y-133733333D01*
X92085714Y-133733333D01*
X91895238Y-133685714D01*
X91800000Y-133590476D01*
X91752381Y-133495238D01*
X92752381Y-132638095D02*
X91752381Y-132638095D01*
X92752381Y-132066666D01*
X91752381Y-132066666D01*
X92752381Y-131066666D02*
X92752381Y-131638095D01*
X92752381Y-131352381D02*
X91752381Y-131352381D01*
X91895238Y-131447619D01*
X91990476Y-131542857D01*
X92038095Y-131638095D01*
X55282381Y-133014285D02*
X55282381Y-133585714D01*
X55282381Y-133300000D02*
X54282381Y-133300000D01*
X54425238Y-133395238D01*
X54520476Y-133490476D01*
X54568095Y-133585714D01*
X72057143Y-94957143D02*
X72009524Y-95004762D01*
X71866667Y-95052381D01*
X71771429Y-95052381D01*
X71628571Y-95004762D01*
X71533333Y-94909524D01*
X71485714Y-94814286D01*
X71438095Y-94623810D01*
X71438095Y-94480952D01*
X71485714Y-94290476D01*
X71533333Y-94195238D01*
X71628571Y-94100000D01*
X71771429Y-94052381D01*
X71866667Y-94052381D01*
X72009524Y-94100000D01*
X72057143Y-94147619D01*
X73009524Y-95052381D02*
X72438095Y-95052381D01*
X72723809Y-95052381D02*
X72723809Y-94052381D01*
X72628571Y-94195238D01*
X72533333Y-94290476D01*
X72438095Y-94338095D01*
X73485714Y-95052381D02*
X73676190Y-95052381D01*
X73771429Y-95004762D01*
X73819048Y-94957143D01*
X73914286Y-94814286D01*
X73961905Y-94623810D01*
X73961905Y-94242857D01*
X73914286Y-94147619D01*
X73866667Y-94100000D01*
X73771429Y-94052381D01*
X73580952Y-94052381D01*
X73485714Y-94100000D01*
X73438095Y-94147619D01*
X73390476Y-94242857D01*
X73390476Y-94480952D01*
X73438095Y-94576190D01*
X73485714Y-94623810D01*
X73580952Y-94671429D01*
X73771429Y-94671429D01*
X73866667Y-94623810D01*
X73914286Y-94576190D01*
X73961905Y-94480952D01*
X83357143Y-129557143D02*
X83309524Y-129604762D01*
X83166667Y-129652381D01*
X83071429Y-129652381D01*
X82928571Y-129604762D01*
X82833333Y-129509524D01*
X82785714Y-129414286D01*
X82738095Y-129223810D01*
X82738095Y-129080952D01*
X82785714Y-128890476D01*
X82833333Y-128795238D01*
X82928571Y-128700000D01*
X83071429Y-128652381D01*
X83166667Y-128652381D01*
X83309524Y-128700000D01*
X83357143Y-128747619D01*
X84309524Y-129652381D02*
X83738095Y-129652381D01*
X84023809Y-129652381D02*
X84023809Y-128652381D01*
X83928571Y-128795238D01*
X83833333Y-128890476D01*
X83738095Y-128938095D01*
X84642857Y-128652381D02*
X85309524Y-128652381D01*
X84880952Y-129652381D01*
X79557143Y-108842857D02*
X79604762Y-108890476D01*
X79652381Y-109033333D01*
X79652381Y-109128571D01*
X79604762Y-109271429D01*
X79509524Y-109366667D01*
X79414286Y-109414286D01*
X79223810Y-109461905D01*
X79080952Y-109461905D01*
X78890476Y-109414286D01*
X78795238Y-109366667D01*
X78700000Y-109271429D01*
X78652381Y-109128571D01*
X78652381Y-109033333D01*
X78700000Y-108890476D01*
X78747619Y-108842857D01*
X79652381Y-107890476D02*
X79652381Y-108461905D01*
X79652381Y-108176191D02*
X78652381Y-108176191D01*
X78795238Y-108271429D01*
X78890476Y-108366667D01*
X78938095Y-108461905D01*
X78652381Y-107033333D02*
X78652381Y-107223810D01*
X78700000Y-107319048D01*
X78747619Y-107366667D01*
X78890476Y-107461905D01*
X79080952Y-107509524D01*
X79461905Y-107509524D01*
X79557143Y-107461905D01*
X79604762Y-107414286D01*
X79652381Y-107319048D01*
X79652381Y-107128571D01*
X79604762Y-107033333D01*
X79557143Y-106985714D01*
X79461905Y-106938095D01*
X79223810Y-106938095D01*
X79128571Y-106985714D01*
X79080952Y-107033333D01*
X79033333Y-107128571D01*
X79033333Y-107319048D01*
X79080952Y-107414286D01*
X79128571Y-107461905D01*
X79223810Y-107509524D01*
X52357143Y-122142857D02*
X52404762Y-122190476D01*
X52452381Y-122333333D01*
X52452381Y-122428571D01*
X52404762Y-122571429D01*
X52309524Y-122666667D01*
X52214286Y-122714286D01*
X52023810Y-122761905D01*
X51880952Y-122761905D01*
X51690476Y-122714286D01*
X51595238Y-122666667D01*
X51500000Y-122571429D01*
X51452381Y-122428571D01*
X51452381Y-122333333D01*
X51500000Y-122190476D01*
X51547619Y-122142857D01*
X52452381Y-121190476D02*
X52452381Y-121761905D01*
X52452381Y-121476191D02*
X51452381Y-121476191D01*
X51595238Y-121571429D01*
X51690476Y-121666667D01*
X51738095Y-121761905D01*
X51452381Y-120285714D02*
X51452381Y-120761905D01*
X51928571Y-120809524D01*
X51880952Y-120761905D01*
X51833333Y-120666667D01*
X51833333Y-120428571D01*
X51880952Y-120333333D01*
X51928571Y-120285714D01*
X52023810Y-120238095D01*
X52261905Y-120238095D01*
X52357143Y-120285714D01*
X52404762Y-120333333D01*
X52452381Y-120428571D01*
X52452381Y-120666667D01*
X52404762Y-120761905D01*
X52357143Y-120809524D01*
X52321429Y-117180952D02*
X52321429Y-116419047D01*
X63821429Y-117180952D02*
X63821429Y-116419047D01*
X64202381Y-116799999D02*
X63440476Y-116799999D01*
X66657143Y-124566666D02*
X66704762Y-124614285D01*
X66752381Y-124757142D01*
X66752381Y-124852380D01*
X66704762Y-124995238D01*
X66609524Y-125090476D01*
X66514286Y-125138095D01*
X66323810Y-125185714D01*
X66180952Y-125185714D01*
X65990476Y-125138095D01*
X65895238Y-125090476D01*
X65800000Y-124995238D01*
X65752381Y-124852380D01*
X65752381Y-124757142D01*
X65800000Y-124614285D01*
X65847619Y-124566666D01*
X66180952Y-123995238D02*
X66133333Y-124090476D01*
X66085714Y-124138095D01*
X65990476Y-124185714D01*
X65942857Y-124185714D01*
X65847619Y-124138095D01*
X65800000Y-124090476D01*
X65752381Y-123995238D01*
X65752381Y-123804761D01*
X65800000Y-123709523D01*
X65847619Y-123661904D01*
X65942857Y-123614285D01*
X65990476Y-123614285D01*
X66085714Y-123661904D01*
X66133333Y-123709523D01*
X66180952Y-123804761D01*
X66180952Y-123995238D01*
X66228571Y-124090476D01*
X66276190Y-124138095D01*
X66371429Y-124185714D01*
X66561905Y-124185714D01*
X66657143Y-124138095D01*
X66704762Y-124090476D01*
X66752381Y-123995238D01*
X66752381Y-123804761D01*
X66704762Y-123709523D01*
X66657143Y-123661904D01*
X66561905Y-123614285D01*
X66371429Y-123614285D01*
X66276190Y-123661904D01*
X66228571Y-123709523D01*
X66180952Y-123804761D01*
X68757143Y-124566666D02*
X68804762Y-124614285D01*
X68852381Y-124757142D01*
X68852381Y-124852380D01*
X68804762Y-124995238D01*
X68709524Y-125090476D01*
X68614286Y-125138095D01*
X68423810Y-125185714D01*
X68280952Y-125185714D01*
X68090476Y-125138095D01*
X67995238Y-125090476D01*
X67900000Y-124995238D01*
X67852381Y-124852380D01*
X67852381Y-124757142D01*
X67900000Y-124614285D01*
X67947619Y-124566666D01*
X67852381Y-123709523D02*
X67852381Y-123900000D01*
X67900000Y-123995238D01*
X67947619Y-124042857D01*
X68090476Y-124138095D01*
X68280952Y-124185714D01*
X68661905Y-124185714D01*
X68757143Y-124138095D01*
X68804762Y-124090476D01*
X68852381Y-123995238D01*
X68852381Y-123804761D01*
X68804762Y-123709523D01*
X68757143Y-123661904D01*
X68661905Y-123614285D01*
X68423810Y-123614285D01*
X68328571Y-123661904D01*
X68280952Y-123709523D01*
X68233333Y-123804761D01*
X68233333Y-123995238D01*
X68280952Y-124090476D01*
X68328571Y-124138095D01*
X68423810Y-124185714D01*
X83057143Y-124666666D02*
X83104762Y-124714285D01*
X83152381Y-124857142D01*
X83152381Y-124952380D01*
X83104762Y-125095238D01*
X83009524Y-125190476D01*
X82914286Y-125238095D01*
X82723810Y-125285714D01*
X82580952Y-125285714D01*
X82390476Y-125238095D01*
X82295238Y-125190476D01*
X82200000Y-125095238D01*
X82152381Y-124952380D01*
X82152381Y-124857142D01*
X82200000Y-124714285D01*
X82247619Y-124666666D01*
X82152381Y-124333333D02*
X82152381Y-123714285D01*
X82533333Y-124047619D01*
X82533333Y-123904761D01*
X82580952Y-123809523D01*
X82628571Y-123761904D01*
X82723810Y-123714285D01*
X82961905Y-123714285D01*
X83057143Y-123761904D01*
X83104762Y-123809523D01*
X83152381Y-123904761D01*
X83152381Y-124190476D01*
X83104762Y-124285714D01*
X83057143Y-124333333D01*
X79738095Y-125652381D02*
X79738095Y-126461905D01*
X79785714Y-126557143D01*
X79833333Y-126604762D01*
X79928571Y-126652381D01*
X80119048Y-126652381D01*
X80214286Y-126604762D01*
X80261905Y-126557143D01*
X80309524Y-126461905D01*
X80309524Y-125652381D01*
X80738095Y-125747619D02*
X80785714Y-125700000D01*
X80880952Y-125652381D01*
X81119048Y-125652381D01*
X81214286Y-125700000D01*
X81261905Y-125747619D01*
X81309524Y-125842857D01*
X81309524Y-125938095D01*
X81261905Y-126080952D01*
X80690476Y-126652381D01*
X81309524Y-126652381D01*
M02*
