G04 #@! TF.FileFunction,Copper,L2,Bot,Signal*
%FSLAX46Y46*%
G04 Gerber Fmt 4.6, Leading zero omitted, Abs format (unit mm)*
G04 Created by KiCad (PCBNEW 4.0.2-stable) date 01/06/2016 17:52:26*
%MOMM*%
G01*
G04 APERTURE LIST*
%ADD10C,0.150000*%
%ADD11C,1.800000*%
%ADD12C,3.400000*%
%ADD13C,1.500000*%
%ADD14C,1.000000*%
%ADD15R,1.500000X1.500000*%
%ADD16R,2.000000X0.500000*%
%ADD17R,1.250000X1.500000*%
%ADD18R,1.500000X1.250000*%
%ADD19R,2.000000X2.000000*%
%ADD20C,1.300000*%
%ADD21C,2.000000*%
%ADD22R,2.000000X3.000000*%
%ADD23R,2.000000X6.000000*%
%ADD24R,5.400000X5.000000*%
%ADD25R,0.300000X2.000000*%
%ADD26C,0.500000*%
%ADD27C,0.250000*%
%ADD28C,0.200000*%
%ADD29C,0.254000*%
G04 APERTURE END LIST*
D10*
D11*
X67960000Y-94490000D03*
X51700000Y-94490000D03*
D12*
X66180000Y-91060000D03*
X53480000Y-91060000D03*
D13*
X52970000Y-100200000D03*
X66690000Y-100200000D03*
X64400000Y-100200000D03*
X55260000Y-100200000D03*
D14*
X56760000Y-93600000D03*
X58800000Y-93600000D03*
X60840000Y-93600000D03*
X62880000Y-93600000D03*
X57780000Y-95380000D03*
X59820000Y-95380000D03*
X61860000Y-95380000D03*
X63900000Y-95380000D03*
D15*
X54650000Y-116850000D03*
X54650000Y-119350000D03*
X52150000Y-116850000D03*
X52150000Y-119350000D03*
D16*
X75600000Y-92400000D03*
X75600000Y-91130000D03*
X75600000Y-89860000D03*
X75600000Y-88590000D03*
X81600000Y-88590000D03*
X81600000Y-89860000D03*
X81600000Y-91130000D03*
X81600000Y-92400000D03*
X75600000Y-97800000D03*
X75600000Y-96530000D03*
X75600000Y-95260000D03*
X75600000Y-93990000D03*
X81600000Y-93990000D03*
X81600000Y-95260000D03*
X81600000Y-96530000D03*
X81600000Y-97800000D03*
D17*
X84400000Y-103750000D03*
X84400000Y-106250000D03*
X86800000Y-103750000D03*
X86800000Y-106250000D03*
D18*
X75450000Y-99600000D03*
X77950000Y-99600000D03*
D17*
X72600000Y-91150000D03*
X72600000Y-88650000D03*
D18*
X66650000Y-98200000D03*
X64150000Y-98200000D03*
X55250000Y-98200000D03*
X52750000Y-98200000D03*
D17*
X63200000Y-91600000D03*
X63200000Y-89100000D03*
X61000000Y-91600000D03*
X61000000Y-89100000D03*
X58800000Y-89100000D03*
X58800000Y-91600000D03*
X56600000Y-89100000D03*
X56600000Y-91600000D03*
X55000000Y-125550000D03*
X55000000Y-128050000D03*
X78500000Y-128650000D03*
X78500000Y-126150000D03*
D18*
X57250000Y-127900000D03*
X59750000Y-127900000D03*
X54550000Y-86900000D03*
X52050000Y-86900000D03*
D19*
X72100000Y-126100000D03*
X72100000Y-120100000D03*
X76100000Y-120100000D03*
X76100000Y-126100000D03*
X71400000Y-99600000D03*
X71400000Y-95600000D03*
D20*
X84450000Y-111550000D03*
X84450000Y-90550000D03*
D19*
X94750000Y-126860000D03*
D21*
X97290000Y-126860000D03*
X94750000Y-129400000D03*
X97290000Y-129400000D03*
X94750000Y-131940000D03*
X97290000Y-131940000D03*
D22*
X58715000Y-133300000D03*
X61485000Y-133300000D03*
X64255000Y-133300000D03*
X67025000Y-133300000D03*
X69795000Y-133300000D03*
X72565000Y-133300000D03*
X75335000Y-133300000D03*
X78105000Y-133300000D03*
X80875000Y-133300000D03*
X83645000Y-133300000D03*
X86415000Y-133300000D03*
X89185000Y-133300000D03*
D23*
X91000000Y-89000000D03*
X91000000Y-97000000D03*
D18*
X75950000Y-128700000D03*
X73450000Y-128700000D03*
X69250000Y-88200000D03*
X66750000Y-88200000D03*
X61250000Y-86900000D03*
X58750000Y-86900000D03*
X52350000Y-113600000D03*
X54850000Y-113600000D03*
X54650000Y-122300000D03*
X52150000Y-122300000D03*
D17*
X64250000Y-108750000D03*
X64250000Y-111250000D03*
X61500000Y-108750000D03*
X61500000Y-111250000D03*
X58750000Y-108750000D03*
X58750000Y-111250000D03*
D18*
X59750000Y-125700000D03*
X57250000Y-125700000D03*
X65750000Y-125600000D03*
X68250000Y-125600000D03*
D24*
X75000000Y-103600000D03*
X75000000Y-115600000D03*
D25*
X66725000Y-114600000D03*
X66725000Y-122400000D03*
X66075000Y-114600000D03*
X66075000Y-122400000D03*
X65425000Y-114600000D03*
X65425000Y-122400000D03*
X64775000Y-114600000D03*
X64775000Y-122400000D03*
X64125000Y-114600000D03*
X64125000Y-122400000D03*
X63475000Y-114600000D03*
X63475000Y-122400000D03*
X62825000Y-114600000D03*
X62825000Y-122400000D03*
X62175000Y-114600000D03*
X62175000Y-122400000D03*
X61525000Y-114600000D03*
X61525000Y-122400000D03*
X60875000Y-114600000D03*
X60875000Y-122400000D03*
X60225000Y-114600000D03*
X60225000Y-122400000D03*
X59575000Y-114600000D03*
X59575000Y-122400000D03*
X58925000Y-114600000D03*
X58925000Y-122400000D03*
X58275000Y-114600000D03*
X58275000Y-122400000D03*
D26*
X90000000Y-116100000D03*
X84600000Y-124000000D03*
X91499994Y-130600000D03*
X51999998Y-129300000D03*
X64100010Y-124690932D03*
X59100000Y-129474980D03*
X78986983Y-95912999D03*
X74700000Y-124399980D03*
X70200000Y-86725020D03*
X84250000Y-98749998D03*
X81500000Y-104525002D03*
X86443311Y-116038274D03*
X60900000Y-117000000D03*
X83800000Y-117400000D03*
X84000004Y-128200000D03*
X83000004Y-100600000D03*
X82700000Y-116300000D03*
X89800000Y-104700000D03*
X58140255Y-112827263D03*
X70750000Y-116250000D03*
X67400000Y-112700014D03*
X64250000Y-112599998D03*
X58000000Y-119750000D03*
X73300000Y-92700000D03*
X78385870Y-122039973D03*
X93624990Y-122750000D03*
X68500000Y-118049998D03*
X69319216Y-95817606D03*
X71200000Y-101900000D03*
X80400000Y-118100010D03*
X80500000Y-126200000D03*
X81300002Y-118100000D03*
X81300000Y-126200000D03*
X82264981Y-131475042D03*
X63300000Y-128800000D03*
X85026910Y-131477265D03*
X65100000Y-128800000D03*
X87799997Y-131480962D03*
X66900000Y-128800002D03*
X90547078Y-131455165D03*
X68500000Y-128800014D03*
X73661758Y-121377685D03*
X86200000Y-110600000D03*
X66000048Y-118049988D03*
X88252624Y-121747376D03*
X85700000Y-115100000D03*
X76400000Y-111400000D03*
X90800000Y-117200000D03*
X78299984Y-124300000D03*
X78500000Y-89500000D03*
X78500012Y-93100000D03*
X85200000Y-110500000D03*
X78500000Y-118999996D03*
X78717783Y-113974970D03*
X83750000Y-108750000D03*
X94400000Y-118000000D03*
X96000000Y-124100002D03*
X70300000Y-129025013D03*
X56491991Y-130708009D03*
X73499537Y-110249555D03*
X73249992Y-107000000D03*
X74299994Y-121799982D03*
X84300000Y-116500000D03*
X85500000Y-121200000D03*
X60000000Y-102600000D03*
X55500000Y-96600000D03*
X62374990Y-99500000D03*
X62700000Y-105100000D03*
X77800000Y-120200000D03*
D27*
X89750001Y-115850001D02*
X90000000Y-116100000D01*
X85200000Y-114200000D02*
X88100000Y-114200000D01*
X84800000Y-115500000D02*
X84800000Y-114600000D01*
X85338274Y-116038274D02*
X84800000Y-115500000D01*
X86443311Y-116038274D02*
X85338274Y-116038274D01*
X84800000Y-114600000D02*
X85200000Y-114200000D01*
X88100000Y-114200000D02*
X89750001Y-115850001D01*
X84849999Y-123750001D02*
X84600000Y-124000000D01*
X86443311Y-122156689D02*
X84849999Y-123750001D01*
X86443311Y-116038274D02*
X86443311Y-122156689D01*
X91499994Y-130953553D02*
X91499994Y-130600000D01*
X91499994Y-132700006D02*
X91499994Y-130953553D01*
X90900000Y-133300000D02*
X91499994Y-132700006D01*
X89185000Y-133300000D02*
X90900000Y-133300000D01*
X73525016Y-120100000D02*
X72100000Y-120100000D01*
X74949999Y-121524983D02*
X73525016Y-120100000D01*
X74949999Y-124149981D02*
X74949999Y-121524983D01*
X74700000Y-124399980D02*
X74949999Y-124149981D01*
X81600000Y-96530000D02*
X90530000Y-96530000D01*
X90530000Y-96530000D02*
X91000000Y-97000000D01*
X84250000Y-98749998D02*
X89250002Y-98749998D01*
X89250002Y-98749998D02*
X91000000Y-97000000D01*
X51999998Y-125825002D02*
X51999998Y-129300000D01*
X54650000Y-123175000D02*
X51999998Y-125825002D01*
X54650000Y-122300000D02*
X54650000Y-123175000D01*
X65750000Y-125600000D02*
X65009078Y-125600000D01*
X65009078Y-125600000D02*
X64100010Y-124690932D01*
X65750000Y-125600000D02*
X65267999Y-125600000D01*
X66075000Y-122400000D02*
X66075000Y-125275000D01*
X66075000Y-125275000D02*
X65750000Y-125600000D01*
X59750000Y-127900000D02*
X59750000Y-128824980D01*
X59750000Y-128824980D02*
X59100000Y-129474980D01*
X60225000Y-122400000D02*
X60225000Y-125225000D01*
X60225000Y-125225000D02*
X59750000Y-125700000D01*
X59750000Y-127900000D02*
X59750000Y-125700000D01*
X89662612Y-133300000D02*
X90900000Y-133300000D01*
X86415000Y-133300000D02*
X89185000Y-133300000D01*
X83645000Y-133300000D02*
X86415000Y-133300000D01*
X80875000Y-133300000D02*
X83645000Y-133300000D01*
X78105000Y-133300000D02*
X80875000Y-133300000D01*
X75335000Y-133300000D02*
X78105000Y-133300000D01*
X72565000Y-133300000D02*
X75335000Y-133300000D01*
X69795000Y-133300000D02*
X72565000Y-133300000D01*
X69795000Y-134000000D02*
X70495000Y-133300000D01*
X60225000Y-114600000D02*
X60225000Y-115646764D01*
X60225000Y-115646764D02*
X60050009Y-115821757D01*
X60050009Y-115821757D02*
X58896756Y-116975011D01*
X58896756Y-116975011D02*
X57053245Y-116975011D01*
X52800000Y-112100000D02*
X52350000Y-112550000D01*
X57053245Y-116975011D02*
X55975001Y-115896767D01*
X55975001Y-115896767D02*
X55975001Y-112674999D01*
X55975001Y-112674999D02*
X55400002Y-112100000D01*
X55400002Y-112100000D02*
X52800000Y-112100000D01*
X52350000Y-112550000D02*
X52350000Y-113600000D01*
X60629689Y-112945311D02*
X60225000Y-113350000D01*
X58750000Y-108875000D02*
X60499999Y-110624999D01*
X60225000Y-113350000D02*
X60225000Y-114600000D01*
X60499999Y-112245311D02*
X60629689Y-112375001D01*
X58750000Y-108750000D02*
X58750000Y-108875000D01*
X60629689Y-112375001D02*
X60629689Y-112945311D01*
X60499999Y-110624999D02*
X60499999Y-112245311D01*
X51900000Y-101400000D02*
X51900000Y-106400000D01*
X52350000Y-113600000D02*
X52350000Y-106850000D01*
X52350000Y-106850000D02*
X51900000Y-106400000D01*
X52970000Y-100200000D02*
X52970000Y-100330000D01*
X52970000Y-100330000D02*
X51900000Y-101400000D01*
X77926323Y-95912999D02*
X78986983Y-95912999D01*
X77273324Y-95260000D02*
X77926323Y-95912999D01*
X75000000Y-95260000D02*
X77273324Y-95260000D01*
X74700000Y-124399980D02*
X74700000Y-126400000D01*
X74700000Y-126400000D02*
X73450000Y-127650000D01*
X73450000Y-127650000D02*
X73450000Y-128700000D01*
X54650000Y-122300000D02*
X54650000Y-123250000D01*
X50900000Y-123600000D02*
X50700000Y-123400000D01*
X54650000Y-123250000D02*
X54300000Y-123600000D01*
X50700000Y-117300000D02*
X51150000Y-116850000D01*
X54300000Y-123600000D02*
X50900000Y-123600000D01*
X50700000Y-123400000D02*
X50700000Y-117300000D01*
X51150000Y-116850000D02*
X52150000Y-116850000D01*
X69474980Y-86725020D02*
X69250000Y-86950000D01*
X69250000Y-86950000D02*
X69250000Y-88200000D01*
X70200000Y-86725020D02*
X69474980Y-86725020D01*
X69250000Y-88200000D02*
X69250000Y-87325000D01*
X83189340Y-98749998D02*
X84250000Y-98749998D01*
X81500000Y-104525002D02*
X81500000Y-100439338D01*
X81500000Y-100439338D02*
X83189340Y-98749998D01*
X61500000Y-108750000D02*
X58750000Y-108750000D01*
X64250000Y-108750000D02*
X61500000Y-108750000D01*
X64250000Y-108750000D02*
X64250000Y-108875000D01*
X64250000Y-108875000D02*
X63000000Y-110125000D01*
X63000000Y-110125000D02*
X63000000Y-113175000D01*
X63000000Y-113175000D02*
X62825000Y-113350000D01*
X62825000Y-113350000D02*
X62825000Y-114600000D01*
X61500000Y-108750000D02*
X61500000Y-108875000D01*
X61500000Y-108875000D02*
X62500001Y-109875001D01*
X62500001Y-109875001D02*
X62500001Y-113024999D01*
X62500001Y-113024999D02*
X62175000Y-113350000D01*
X62175000Y-113350000D02*
X62175000Y-114600000D01*
X52000000Y-116400000D02*
X52000000Y-113950000D01*
X52000000Y-113950000D02*
X52350000Y-113600000D01*
X54850000Y-119800000D02*
X54850000Y-122100000D01*
X54850000Y-122100000D02*
X54650000Y-122300000D01*
X54650000Y-122325000D02*
X54650000Y-122300000D01*
X61250000Y-86600000D02*
X68525000Y-86600000D01*
X68525000Y-86600000D02*
X69250000Y-87325000D01*
X60875000Y-116975000D02*
X60900000Y-117000000D01*
X61525000Y-116375000D02*
X61149999Y-116750001D01*
X60875000Y-114600000D02*
X60875000Y-116975000D01*
X61525000Y-114600000D02*
X61525000Y-116375000D01*
X61149999Y-116750001D02*
X60900000Y-117000000D01*
X83800000Y-117400000D02*
X83300000Y-117400000D01*
X82000000Y-118700000D02*
X82000000Y-127400000D01*
X83300000Y-117400000D02*
X82000000Y-118700000D01*
X82800000Y-128200000D02*
X84000004Y-128200000D01*
X82000000Y-127400000D02*
X82800000Y-128200000D01*
X82700000Y-116300000D02*
X82700000Y-111000000D01*
X82700000Y-111000000D02*
X85625001Y-108074999D01*
X85625001Y-108074999D02*
X85625001Y-105424999D01*
X85625001Y-105424999D02*
X85075003Y-104875001D01*
X85075003Y-104875001D02*
X83474999Y-104875001D01*
X83474999Y-104875001D02*
X83000004Y-104400006D01*
X83000004Y-104400006D02*
X83000004Y-100953553D01*
X83000004Y-100953553D02*
X83000004Y-100600000D01*
X66725000Y-115695058D02*
X66725000Y-114600000D01*
X66445057Y-115975001D02*
X66725000Y-115695058D01*
X64775000Y-115850000D02*
X64900001Y-115975001D01*
X64775000Y-114600000D02*
X64775000Y-115850000D01*
X64900001Y-115975001D02*
X66445057Y-115975001D01*
X70500001Y-116499999D02*
X70500001Y-122985755D01*
X70750000Y-116250000D02*
X70500001Y-116499999D01*
X70500001Y-122985755D02*
X68250000Y-125235756D01*
X68250000Y-125235756D02*
X68250000Y-125600000D01*
X58000000Y-119750000D02*
X57250000Y-120500000D01*
X57250000Y-120500000D02*
X57250000Y-125700000D01*
X57250000Y-125700000D02*
X55150000Y-125700000D01*
X55150000Y-125700000D02*
X55000000Y-125550000D01*
X54450000Y-86700000D02*
X55450000Y-86700000D01*
X55450000Y-86700000D02*
X56550000Y-85600000D01*
X56550000Y-85600000D02*
X92275002Y-85600000D01*
X90700000Y-104700000D02*
X89800000Y-104700000D01*
X92275002Y-85600000D02*
X93800000Y-87124998D01*
X93800000Y-87124998D02*
X93800000Y-101600000D01*
X93800000Y-101600000D02*
X90700000Y-104700000D01*
X58172737Y-112827263D02*
X58140255Y-112827263D01*
X58750000Y-112250000D02*
X58172737Y-112827263D01*
X66725000Y-113750000D02*
X67400000Y-113075000D01*
X66725000Y-114600000D02*
X66725000Y-113750000D01*
X67400000Y-113075000D02*
X67400000Y-112700014D01*
X64250000Y-111250000D02*
X64250000Y-112599998D01*
X58750000Y-111250000D02*
X58750000Y-112250000D01*
X58750000Y-112250000D02*
X58275000Y-112725000D01*
X58275000Y-112725000D02*
X58275000Y-114600000D01*
X61500000Y-111250000D02*
X61500000Y-114575000D01*
X61500000Y-114575000D02*
X61525000Y-114600000D01*
X64250000Y-111250000D02*
X64250000Y-112250000D01*
X64250000Y-112250000D02*
X64775000Y-112775000D01*
X64775000Y-112775000D02*
X64775000Y-114600000D01*
X97290000Y-126860000D02*
X96700000Y-126270000D01*
X96700000Y-126270000D02*
X96700000Y-119100000D01*
X93400000Y-117300000D02*
X88500000Y-112400000D01*
X86800000Y-104300000D02*
X86800000Y-103750000D01*
X96700000Y-119100000D02*
X94900000Y-117300000D01*
X94900000Y-117300000D02*
X93400000Y-117300000D01*
X88500000Y-112400000D02*
X88500000Y-106000000D01*
X88500000Y-106000000D02*
X86800000Y-104300000D01*
X93624990Y-122750000D02*
X91497365Y-120622375D01*
X86374999Y-128825001D02*
X81765559Y-128825001D01*
X91497365Y-120622375D02*
X87712623Y-120622375D01*
X87712623Y-120622375D02*
X87600000Y-120734998D01*
X87600000Y-120734998D02*
X87600000Y-127600000D01*
X87600000Y-127600000D02*
X86374999Y-128825001D01*
X81765559Y-128825001D02*
X79800000Y-126859442D01*
X79800000Y-126859442D02*
X79800000Y-123454103D01*
X79800000Y-123454103D02*
X78635869Y-122289972D01*
X78635869Y-122289972D02*
X78385870Y-122039973D01*
X73600000Y-92400000D02*
X73300000Y-92700000D01*
X75500000Y-92400000D02*
X73600000Y-92400000D01*
X81500000Y-89860000D02*
X80440000Y-89860000D01*
X80440000Y-89860000D02*
X78950036Y-91349964D01*
X78950036Y-91349964D02*
X77850036Y-91349964D01*
X77850036Y-91349964D02*
X76800000Y-92400000D01*
X76800000Y-92400000D02*
X75500000Y-92400000D01*
X84110000Y-89000000D02*
X83250000Y-89860000D01*
X83250000Y-89860000D02*
X81500000Y-89860000D01*
X91000000Y-89000000D02*
X84110000Y-89000000D01*
X76700000Y-123725843D02*
X78385870Y-122039973D01*
X76700000Y-125400000D02*
X76700000Y-123725843D01*
X75950000Y-128700000D02*
X75950000Y-126150000D01*
X75950000Y-126150000D02*
X76700000Y-125400000D01*
X78500000Y-128650000D02*
X76000000Y-128650000D01*
X76000000Y-128650000D02*
X75950000Y-128700000D01*
X78150000Y-128300000D02*
X78500000Y-128650000D01*
X86800000Y-103750000D02*
X90350000Y-103750000D01*
X92800000Y-92100000D02*
X91000000Y-90300000D01*
X90350000Y-103750000D02*
X92800000Y-101300000D01*
X92800000Y-101300000D02*
X92800000Y-92100000D01*
X91000000Y-90300000D02*
X91000000Y-89000000D01*
X84400000Y-103750000D02*
X86800000Y-103750000D01*
X68500000Y-118049998D02*
X66725000Y-119824998D01*
X66725000Y-119824998D02*
X66725000Y-122400000D01*
X56600000Y-88900000D02*
X53275000Y-88900000D01*
X53275000Y-88900000D02*
X51950000Y-87575000D01*
X51950000Y-87575000D02*
X51950000Y-86700000D01*
X58750000Y-86600000D02*
X58750000Y-88850000D01*
X58750000Y-88850000D02*
X58800000Y-88900000D01*
X56600000Y-88900000D02*
X56484999Y-88784999D01*
X56600000Y-88900000D02*
X58800000Y-88900000D01*
X66750000Y-88200000D02*
X63900000Y-88200000D01*
X63900000Y-88200000D02*
X63200000Y-88900000D01*
X61000000Y-88900000D02*
X63200000Y-88900000D01*
X72600000Y-88650000D02*
X71725000Y-88650000D01*
X71725000Y-88650000D02*
X69319216Y-91055784D01*
X69319216Y-91055784D02*
X69319216Y-95817606D01*
X71400000Y-99600000D02*
X71400000Y-98823392D01*
X68341609Y-95765001D02*
X67365001Y-95765001D01*
X71400000Y-98823392D02*
X68341609Y-95765001D01*
X67365001Y-95765001D02*
X65699999Y-94099999D01*
X65699999Y-94099999D02*
X63379999Y-94099999D01*
X63379999Y-94099999D02*
X62880000Y-93600000D01*
X75450000Y-99600000D02*
X71400000Y-99600000D01*
X75500000Y-97800000D02*
X75500000Y-99550000D01*
X75500000Y-99550000D02*
X75450000Y-99600000D01*
X71200000Y-101900000D02*
X71200000Y-99800000D01*
X71200000Y-99800000D02*
X71400000Y-99600000D01*
X80500000Y-126200000D02*
X80500000Y-118200010D01*
X80500000Y-118200010D02*
X80400000Y-118100010D01*
X81300000Y-118100002D02*
X81300002Y-118100000D01*
X81300000Y-126200000D02*
X81300000Y-118100002D01*
X63300000Y-128800000D02*
X65924999Y-131424999D01*
X82214938Y-131424999D02*
X82264981Y-131475042D01*
X65924999Y-131424999D02*
X82214938Y-131424999D01*
X84399677Y-130850032D02*
X85026910Y-131477265D01*
X67150032Y-130850032D02*
X84399677Y-130850032D01*
X65100000Y-128800000D02*
X67150032Y-130850032D01*
X86669057Y-130350022D02*
X87799997Y-131480962D01*
X68450020Y-130350022D02*
X86669057Y-130350022D01*
X66900000Y-128800002D02*
X68450020Y-130350022D01*
X88941924Y-129850011D02*
X90547078Y-131455165D01*
X68500000Y-128800014D02*
X69549997Y-129850011D01*
X69549997Y-129850011D02*
X88941924Y-129850011D01*
X94750000Y-126860000D02*
X94750000Y-125610000D01*
X94750000Y-125610000D02*
X95300000Y-125060000D01*
X95300000Y-125060000D02*
X95300000Y-120000000D01*
X95300000Y-120000000D02*
X86253553Y-110953553D01*
X86253553Y-110953553D02*
X86200000Y-110953553D01*
X86200000Y-110953553D02*
X86200000Y-110600000D01*
X69499990Y-124692888D02*
X72565194Y-121627684D01*
X69499989Y-126807133D02*
X69499990Y-124692888D01*
X72565194Y-121627684D02*
X73411759Y-121627684D01*
X69207122Y-127100000D02*
X69499989Y-126807133D01*
X63475000Y-126675000D02*
X63900000Y-127100000D01*
X63475000Y-122400000D02*
X63475000Y-126675000D01*
X73411759Y-121627684D02*
X73661758Y-121377685D01*
X63900000Y-127100000D02*
X69207122Y-127100000D01*
X94750000Y-129400000D02*
X94300000Y-129400000D01*
X93700000Y-128800000D02*
X89900000Y-128800000D01*
X94300000Y-129400000D02*
X93700000Y-128800000D01*
X89900000Y-128800000D02*
X88252624Y-127152624D01*
X88252624Y-127152624D02*
X88252624Y-121747376D01*
X64939388Y-118049988D02*
X66000048Y-118049988D01*
X62175000Y-122400000D02*
X62175000Y-120814374D01*
X62175000Y-120814374D02*
X64939388Y-118049988D01*
X89900000Y-117200000D02*
X87800000Y-115100000D01*
X90800000Y-117200000D02*
X89900000Y-117200000D01*
X86053553Y-115100000D02*
X85700000Y-115100000D01*
X87800000Y-115100000D02*
X86053553Y-115100000D01*
X62825000Y-122400000D02*
X62825000Y-121150000D01*
X64726477Y-119248523D02*
X66501477Y-119248523D01*
X66501477Y-119248523D02*
X67250000Y-118500000D01*
X62825000Y-121150000D02*
X64726477Y-119248523D01*
X67250000Y-118500000D02*
X67250000Y-117150000D01*
X67250000Y-117150000D02*
X73000000Y-111400000D01*
X73000000Y-111400000D02*
X76400000Y-111400000D01*
X78500000Y-126150000D02*
X78500000Y-126266562D01*
X78500000Y-126266562D02*
X81583438Y-129350000D01*
X81583438Y-129350000D02*
X91450000Y-129350000D01*
X91450000Y-129350000D02*
X94040000Y-131940000D01*
X94040000Y-131940000D02*
X94750000Y-131940000D01*
X78299984Y-124300000D02*
X78299984Y-125949984D01*
X78299984Y-125949984D02*
X78500000Y-126150000D01*
X78200000Y-126275000D02*
X78200000Y-126150000D01*
X95200000Y-131940000D02*
X95140000Y-132000000D01*
X95140000Y-132000000D02*
X95000000Y-132000000D01*
X55250000Y-98200000D02*
X55250000Y-100190000D01*
X55250000Y-100190000D02*
X55260000Y-100200000D01*
X66650000Y-98200000D02*
X66650000Y-100160000D01*
X66650000Y-100160000D02*
X66690000Y-100200000D01*
X75000000Y-89860000D02*
X78140000Y-89860000D01*
X78140000Y-89860000D02*
X78500000Y-89500000D01*
X80660012Y-95260000D02*
X78500012Y-93100000D01*
X82000000Y-95260000D02*
X80660012Y-95260000D01*
X84846447Y-110500000D02*
X85200000Y-110500000D01*
X79771455Y-117374988D02*
X82600007Y-117374988D01*
X83982998Y-110500000D02*
X84846447Y-110500000D01*
X78500000Y-118646443D02*
X79771455Y-117374988D01*
X83325001Y-116649994D02*
X83325001Y-111157997D01*
X82600007Y-117374988D02*
X83325001Y-116649994D01*
X83325001Y-111157997D02*
X83982998Y-110500000D01*
X78500000Y-118999996D02*
X78500000Y-118646443D01*
X86800000Y-106250000D02*
X86800000Y-108900000D01*
X85449999Y-110250001D02*
X85200000Y-110500000D01*
X86800000Y-108900000D02*
X85449999Y-110250001D01*
X83750000Y-108750000D02*
X78717783Y-113782217D01*
X78717783Y-113782217D02*
X78717783Y-113974970D01*
X84400000Y-108100000D02*
X83750000Y-108750000D01*
X84400000Y-106250000D02*
X84400000Y-108100000D01*
X96000000Y-119600000D02*
X94649999Y-118249999D01*
X94649999Y-118249999D02*
X94400000Y-118000000D01*
X96000000Y-124100002D02*
X96000000Y-119600000D01*
X59999113Y-130708009D02*
X62607102Y-128100020D01*
X62607102Y-128100020D02*
X69375007Y-128100020D01*
X69375007Y-128100020D02*
X70300000Y-129025013D01*
X56491991Y-130708009D02*
X59999113Y-130708009D01*
X79440002Y-94774996D02*
X79024996Y-94774996D01*
X80124999Y-95459993D02*
X79440002Y-94774996D01*
X77500000Y-92500000D02*
X78150025Y-91849975D01*
X77500000Y-93250000D02*
X77500000Y-92500000D01*
X79877122Y-91130000D02*
X82000000Y-91130000D01*
X79024996Y-94774996D02*
X77500000Y-93250000D01*
X78150025Y-91849975D02*
X79157147Y-91849975D01*
X79157147Y-91849975D02*
X79877122Y-91130000D01*
X80124999Y-104684753D02*
X80124999Y-95459993D01*
X74560197Y-110249555D02*
X80124999Y-104684753D01*
X73499537Y-110249555D02*
X74560197Y-110249555D01*
X75000000Y-115600000D02*
X77444372Y-113155628D01*
X77444372Y-113155628D02*
X77444372Y-111559987D01*
X77444372Y-111559987D02*
X76133940Y-110249555D01*
X76133940Y-110249555D02*
X73499537Y-110249555D01*
X75500000Y-96530000D02*
X76250000Y-96530000D01*
X76250000Y-96530000D02*
X77950000Y-98230000D01*
X77950000Y-98230000D02*
X77950000Y-99600000D01*
X71400000Y-92225000D02*
X71400000Y-95600000D01*
X75500000Y-91130000D02*
X72495000Y-91130000D01*
X72495000Y-91130000D02*
X71400000Y-92225000D01*
X75500000Y-91130000D02*
X74750000Y-91130000D01*
X74124999Y-89215001D02*
X74750000Y-88590000D01*
X74750000Y-91130000D02*
X74124999Y-90504999D01*
X74124999Y-90504999D02*
X74124999Y-89215001D01*
X74750000Y-88590000D02*
X75500000Y-88590000D01*
X70750000Y-94950000D02*
X71400000Y-95600000D01*
X75000000Y-93990000D02*
X73750000Y-93990000D01*
X73750000Y-93990000D02*
X73124999Y-94615001D01*
X73124999Y-94615001D02*
X73124999Y-95904999D01*
X73124999Y-95904999D02*
X73750000Y-96530000D01*
X73750000Y-96530000D02*
X75000000Y-96530000D01*
X71400000Y-95600000D02*
X72820000Y-95600000D01*
X72820000Y-95600000D02*
X73750000Y-96530000D01*
X76250000Y-96530000D02*
X75000000Y-96530000D01*
X74350000Y-107000000D02*
X73249992Y-107000000D01*
X75000000Y-106350000D02*
X74350000Y-107000000D01*
X75000000Y-103600000D02*
X75000000Y-106350000D01*
X57250000Y-127900000D02*
X57375000Y-127900000D01*
X57375000Y-127900000D02*
X58375001Y-126899999D01*
X58375001Y-126899999D02*
X58375001Y-123750001D01*
X58375001Y-123750001D02*
X58275000Y-123650000D01*
X58275000Y-123650000D02*
X58275000Y-122400000D01*
X55000000Y-128100000D02*
X57000000Y-130100000D01*
X61000000Y-129000000D02*
X61000000Y-124300000D01*
X57000000Y-130100000D02*
X59900000Y-130100000D01*
X59900000Y-130100000D02*
X61000000Y-129000000D01*
X61000000Y-124300000D02*
X60875000Y-124175000D01*
X60875000Y-124175000D02*
X60875000Y-122400000D01*
X72575021Y-122324979D02*
X73774997Y-122324979D01*
X63692889Y-127600011D02*
X69414234Y-127600010D01*
X70000000Y-127014244D02*
X70000000Y-124900000D01*
X61525000Y-125432122D02*
X63692889Y-127600011D01*
X69414234Y-127600010D02*
X70000000Y-127014244D01*
X61525000Y-122400000D02*
X61525000Y-125432122D01*
X70000000Y-124900000D02*
X72575021Y-122324979D01*
X73774997Y-122324979D02*
X74299994Y-121799982D01*
X85500000Y-121200000D02*
X85500000Y-117700000D01*
X85500000Y-117700000D02*
X84549999Y-116749999D01*
X84549999Y-116749999D02*
X84300000Y-116500000D01*
D28*
X57250000Y-116500000D02*
X58700001Y-116499999D01*
X58700001Y-116499999D02*
X59575000Y-115625000D01*
X56450012Y-115700012D02*
X57250000Y-116500000D01*
X56450012Y-94617094D02*
X56450012Y-115700012D01*
X59575000Y-115625000D02*
X59575000Y-114600000D01*
D27*
X56760000Y-94307106D02*
X56450012Y-94617094D01*
X56760000Y-93600000D02*
X56760000Y-94307106D01*
X56760000Y-93600000D02*
X56760000Y-91560000D01*
X56760000Y-91560000D02*
X56600000Y-91400000D01*
X56500000Y-93860000D02*
X56760000Y-93600000D01*
D28*
X58925000Y-121200000D02*
X59875011Y-120249989D01*
X59875011Y-120249989D02*
X60613599Y-120249989D01*
X60613599Y-120249989D02*
X64413578Y-116450012D01*
X64413578Y-116450012D02*
X66641812Y-116450012D01*
X66641812Y-116450012D02*
X68649989Y-114441835D01*
X68649989Y-114441835D02*
X68649989Y-107728223D01*
X68649989Y-107728223D02*
X60670001Y-99748235D01*
X60670001Y-99748235D02*
X60670001Y-94971999D01*
X58992894Y-94500000D02*
X58800000Y-94307106D01*
X60670001Y-94971999D02*
X60198002Y-94500000D01*
X60198002Y-94500000D02*
X58992894Y-94500000D01*
D27*
X58800000Y-94307106D02*
X58800000Y-93600000D01*
X58925000Y-122400000D02*
X58925000Y-121200000D01*
X58800000Y-93600000D02*
X61000000Y-91400000D01*
D28*
X56900023Y-115400023D02*
X57549989Y-116049989D01*
X58925000Y-115638590D02*
X58925000Y-114600000D01*
X56900023Y-96259977D02*
X56900023Y-115400023D01*
X57549989Y-116049989D02*
X58513600Y-116049989D01*
X58513600Y-116049989D02*
X58925000Y-115638590D01*
X57780000Y-95380000D02*
X56900023Y-96259977D01*
D27*
X58800000Y-91400000D02*
X58800000Y-91525000D01*
X58800000Y-91525000D02*
X57780000Y-92545000D01*
X57780000Y-92545000D02*
X57780000Y-95380000D01*
X58800000Y-91275000D02*
X58800000Y-91400000D01*
X57903604Y-95380000D02*
X57780000Y-95380000D01*
D28*
X59575000Y-122400000D02*
X59575000Y-121200000D01*
X60075000Y-120700000D02*
X60800001Y-120700000D01*
X59575000Y-121200000D02*
X60075000Y-120700000D01*
X60800001Y-120700000D02*
X64599978Y-116900023D01*
X61200000Y-96040000D02*
X61360001Y-95879999D01*
X64599978Y-116900023D02*
X66828212Y-116900023D01*
X66828212Y-116900023D02*
X69100000Y-114628235D01*
X61200000Y-99641823D02*
X61200000Y-96040000D01*
X69100000Y-114628235D02*
X69100000Y-107541823D01*
X69100000Y-107541823D02*
X61200000Y-99641823D01*
D27*
X61360001Y-95879999D02*
X61860000Y-95380000D01*
X63200000Y-91400000D02*
X63200000Y-91984998D01*
X61860000Y-93324998D02*
X61860000Y-95380000D01*
X63200000Y-91984998D02*
X61860000Y-93324998D01*
X63200000Y-91400000D02*
X63200000Y-91525000D01*
X52350000Y-118200000D02*
X52000000Y-118550000D01*
X52150000Y-119950000D02*
X52150000Y-122300000D01*
X52000000Y-119800000D02*
X52150000Y-119950000D01*
X64125000Y-114600000D02*
X64125000Y-115997126D01*
X64125000Y-115997126D02*
X61922126Y-118200000D01*
X61922126Y-118200000D02*
X52350000Y-118200000D01*
X52000000Y-118550000D02*
X52000000Y-119800000D01*
X61625011Y-117699989D02*
X56149989Y-117699989D01*
X54850000Y-116400000D02*
X54850000Y-113600000D01*
X63475000Y-115850000D02*
X61625011Y-117699989D01*
X63475000Y-114600000D02*
X63475000Y-115850000D01*
X56149989Y-117699989D02*
X54850000Y-116400000D01*
X66075000Y-114600000D02*
X66075000Y-107375000D01*
X66075000Y-107375000D02*
X61300000Y-102600000D01*
X61300000Y-102600000D02*
X60353553Y-102600000D01*
X60353553Y-102600000D02*
X60000000Y-102600000D01*
X55146447Y-96600000D02*
X55500000Y-96600000D01*
X54475000Y-96600000D02*
X55146447Y-96600000D01*
X52875000Y-98200000D02*
X54475000Y-96600000D01*
X52750000Y-98200000D02*
X52875000Y-98200000D01*
X64150000Y-98200000D02*
X63674990Y-98200000D01*
X63674990Y-98200000D02*
X62374990Y-99500000D01*
X65425000Y-107825000D02*
X62700000Y-105100000D01*
X65425000Y-114600000D02*
X65425000Y-107825000D01*
X76700000Y-119400000D02*
X77000000Y-119400000D01*
X77000000Y-119400000D02*
X77800000Y-120200000D01*
D29*
G36*
X55371838Y-92585317D02*
X55510910Y-92801441D01*
X55723110Y-92946431D01*
X55796274Y-92961247D01*
X55625197Y-93373244D01*
X55624803Y-93824775D01*
X55797233Y-94242086D01*
X55801349Y-94246209D01*
X55747864Y-94326255D01*
X55690012Y-94617094D01*
X55715012Y-94742776D01*
X55715012Y-95731017D01*
X55676810Y-95715154D01*
X55324735Y-95714847D01*
X55021841Y-95840000D01*
X54475000Y-95840000D01*
X54184161Y-95897852D01*
X53937599Y-96062599D01*
X53072638Y-96927560D01*
X52000000Y-96927560D01*
X51764683Y-96971838D01*
X51548559Y-97110910D01*
X51403569Y-97323110D01*
X51352560Y-97575000D01*
X51352560Y-98825000D01*
X51396838Y-99060317D01*
X51535910Y-99276441D01*
X51748110Y-99421431D01*
X51866346Y-99445374D01*
X51757540Y-99476077D01*
X51572799Y-99995171D01*
X51600770Y-100545448D01*
X51757540Y-100923923D01*
X51998483Y-100991912D01*
X52790395Y-100200000D01*
X52776253Y-100185858D01*
X52955858Y-100006253D01*
X52970000Y-100020395D01*
X52984143Y-100006253D01*
X53163748Y-100185858D01*
X53149605Y-100200000D01*
X53941517Y-100991912D01*
X54073276Y-100954732D01*
X54085169Y-100983515D01*
X54474436Y-101373461D01*
X54983298Y-101584759D01*
X55534285Y-101585240D01*
X55715012Y-101510565D01*
X55715012Y-112350851D01*
X55600000Y-112327560D01*
X54100000Y-112327560D01*
X53864683Y-112371838D01*
X53648559Y-112510910D01*
X53602031Y-112579006D01*
X53459698Y-112436673D01*
X53226309Y-112340000D01*
X52635750Y-112340000D01*
X52477000Y-112498750D01*
X52477000Y-113473000D01*
X52497000Y-113473000D01*
X52497000Y-113727000D01*
X52477000Y-113727000D01*
X52477000Y-114701250D01*
X52635750Y-114860000D01*
X53226309Y-114860000D01*
X53459698Y-114763327D01*
X53600936Y-114622090D01*
X53635910Y-114676441D01*
X53848110Y-114821431D01*
X54090000Y-114870415D01*
X54090000Y-115452560D01*
X53900000Y-115452560D01*
X53664683Y-115496838D01*
X53448559Y-115635910D01*
X53402031Y-115704006D01*
X53259699Y-115561673D01*
X53026310Y-115465000D01*
X52435750Y-115465000D01*
X52277000Y-115623750D01*
X52277000Y-116723000D01*
X52297000Y-116723000D01*
X52297000Y-116977000D01*
X52277000Y-116977000D01*
X52277000Y-116997000D01*
X52023000Y-116997000D01*
X52023000Y-116977000D01*
X50923750Y-116977000D01*
X50765000Y-117135750D01*
X50765000Y-117726309D01*
X50861673Y-117959698D01*
X51002910Y-118100936D01*
X50948559Y-118135910D01*
X50803569Y-118348110D01*
X50752560Y-118600000D01*
X50752560Y-120100000D01*
X50796838Y-120335317D01*
X50935910Y-120551441D01*
X51148110Y-120696431D01*
X51390000Y-120745415D01*
X51390000Y-121029442D01*
X51164683Y-121071838D01*
X50948559Y-121210910D01*
X50803569Y-121423110D01*
X50752560Y-121675000D01*
X50752560Y-122925000D01*
X50796838Y-123160317D01*
X50935910Y-123376441D01*
X51148110Y-123521431D01*
X51400000Y-123572440D01*
X52900000Y-123572440D01*
X53135317Y-123528162D01*
X53351441Y-123389090D01*
X53397969Y-123320994D01*
X53540302Y-123463327D01*
X53773691Y-123560000D01*
X54364250Y-123560000D01*
X54523000Y-123401250D01*
X54523000Y-122427000D01*
X54777000Y-122427000D01*
X54777000Y-123401250D01*
X54935750Y-123560000D01*
X55526309Y-123560000D01*
X55759698Y-123463327D01*
X55938327Y-123284699D01*
X56035000Y-123051310D01*
X56035000Y-122585750D01*
X55876250Y-122427000D01*
X54777000Y-122427000D01*
X54523000Y-122427000D01*
X54503000Y-122427000D01*
X54503000Y-122173000D01*
X54523000Y-122173000D01*
X54523000Y-121198750D01*
X54777000Y-121198750D01*
X54777000Y-122173000D01*
X55876250Y-122173000D01*
X56035000Y-122014250D01*
X56035000Y-121548690D01*
X55938327Y-121315301D01*
X55759698Y-121136673D01*
X55526309Y-121040000D01*
X54935750Y-121040000D01*
X54777000Y-121198750D01*
X54523000Y-121198750D01*
X54364250Y-121040000D01*
X53773691Y-121040000D01*
X53540302Y-121136673D01*
X53399064Y-121277910D01*
X53364090Y-121223559D01*
X53151890Y-121078569D01*
X52910000Y-121029585D01*
X52910000Y-120745558D01*
X53135317Y-120703162D01*
X53351441Y-120564090D01*
X53397969Y-120495994D01*
X53540301Y-120638327D01*
X53773690Y-120735000D01*
X54364250Y-120735000D01*
X54523000Y-120576250D01*
X54523000Y-119477000D01*
X54777000Y-119477000D01*
X54777000Y-120576250D01*
X54935750Y-120735000D01*
X55526310Y-120735000D01*
X55759699Y-120638327D01*
X55938327Y-120459698D01*
X56035000Y-120226309D01*
X56035000Y-119635750D01*
X55876250Y-119477000D01*
X54777000Y-119477000D01*
X54523000Y-119477000D01*
X54503000Y-119477000D01*
X54503000Y-119223000D01*
X54523000Y-119223000D01*
X54523000Y-119203000D01*
X54777000Y-119203000D01*
X54777000Y-119223000D01*
X55876250Y-119223000D01*
X56035000Y-119064250D01*
X56035000Y-118960000D01*
X57594447Y-118960000D01*
X57499343Y-118999296D01*
X57250171Y-119248033D01*
X57124489Y-119550709D01*
X56712599Y-119962599D01*
X56547852Y-120209161D01*
X56490000Y-120500000D01*
X56490000Y-124429442D01*
X56264683Y-124471838D01*
X56196606Y-124515644D01*
X56089090Y-124348559D01*
X55876890Y-124203569D01*
X55625000Y-124152560D01*
X54375000Y-124152560D01*
X54139683Y-124196838D01*
X53923559Y-124335910D01*
X53778569Y-124548110D01*
X53727560Y-124800000D01*
X53727560Y-126300000D01*
X53771838Y-126535317D01*
X53910910Y-126751441D01*
X53980711Y-126799134D01*
X53923559Y-126835910D01*
X53778569Y-127048110D01*
X53727560Y-127300000D01*
X53727560Y-128800000D01*
X53771838Y-129035317D01*
X53910910Y-129251441D01*
X54123110Y-129396431D01*
X54375000Y-129447440D01*
X55272638Y-129447440D01*
X55886827Y-130061629D01*
X55742162Y-130206042D01*
X55607145Y-130531199D01*
X55606838Y-130883274D01*
X55741287Y-131208666D01*
X55990024Y-131457838D01*
X56315181Y-131592855D01*
X56667256Y-131593162D01*
X56970150Y-131468009D01*
X57173300Y-131468009D01*
X57118569Y-131548110D01*
X57067560Y-131800000D01*
X57067560Y-134315000D01*
X50685000Y-134315000D01*
X50685000Y-115973691D01*
X50765000Y-115973691D01*
X50765000Y-116564250D01*
X50923750Y-116723000D01*
X52023000Y-116723000D01*
X52023000Y-115623750D01*
X51864250Y-115465000D01*
X51273690Y-115465000D01*
X51040301Y-115561673D01*
X50861673Y-115740302D01*
X50765000Y-115973691D01*
X50685000Y-115973691D01*
X50685000Y-113885750D01*
X50965000Y-113885750D01*
X50965000Y-114351310D01*
X51061673Y-114584699D01*
X51240302Y-114763327D01*
X51473691Y-114860000D01*
X52064250Y-114860000D01*
X52223000Y-114701250D01*
X52223000Y-113727000D01*
X51123750Y-113727000D01*
X50965000Y-113885750D01*
X50685000Y-113885750D01*
X50685000Y-112848690D01*
X50965000Y-112848690D01*
X50965000Y-113314250D01*
X51123750Y-113473000D01*
X52223000Y-113473000D01*
X52223000Y-112498750D01*
X52064250Y-112340000D01*
X51473691Y-112340000D01*
X51240302Y-112436673D01*
X51061673Y-112615301D01*
X50965000Y-112848690D01*
X50685000Y-112848690D01*
X50685000Y-101171517D01*
X52178088Y-101171517D01*
X52246077Y-101412460D01*
X52765171Y-101597201D01*
X53315448Y-101569230D01*
X53693923Y-101412460D01*
X53761912Y-101171517D01*
X52970000Y-100379605D01*
X52178088Y-101171517D01*
X50685000Y-101171517D01*
X50685000Y-95645941D01*
X50829357Y-95790551D01*
X51393330Y-96024733D01*
X52003991Y-96025265D01*
X52568371Y-95792068D01*
X53000551Y-95360643D01*
X53234733Y-94796670D01*
X53235265Y-94186009D01*
X53002068Y-93621629D01*
X52606879Y-93225749D01*
X53013502Y-93394593D01*
X53942422Y-93395404D01*
X54800943Y-93040671D01*
X55353693Y-92488885D01*
X55371838Y-92585317D01*
X55371838Y-92585317D01*
G37*
X55371838Y-92585317D02*
X55510910Y-92801441D01*
X55723110Y-92946431D01*
X55796274Y-92961247D01*
X55625197Y-93373244D01*
X55624803Y-93824775D01*
X55797233Y-94242086D01*
X55801349Y-94246209D01*
X55747864Y-94326255D01*
X55690012Y-94617094D01*
X55715012Y-94742776D01*
X55715012Y-95731017D01*
X55676810Y-95715154D01*
X55324735Y-95714847D01*
X55021841Y-95840000D01*
X54475000Y-95840000D01*
X54184161Y-95897852D01*
X53937599Y-96062599D01*
X53072638Y-96927560D01*
X52000000Y-96927560D01*
X51764683Y-96971838D01*
X51548559Y-97110910D01*
X51403569Y-97323110D01*
X51352560Y-97575000D01*
X51352560Y-98825000D01*
X51396838Y-99060317D01*
X51535910Y-99276441D01*
X51748110Y-99421431D01*
X51866346Y-99445374D01*
X51757540Y-99476077D01*
X51572799Y-99995171D01*
X51600770Y-100545448D01*
X51757540Y-100923923D01*
X51998483Y-100991912D01*
X52790395Y-100200000D01*
X52776253Y-100185858D01*
X52955858Y-100006253D01*
X52970000Y-100020395D01*
X52984143Y-100006253D01*
X53163748Y-100185858D01*
X53149605Y-100200000D01*
X53941517Y-100991912D01*
X54073276Y-100954732D01*
X54085169Y-100983515D01*
X54474436Y-101373461D01*
X54983298Y-101584759D01*
X55534285Y-101585240D01*
X55715012Y-101510565D01*
X55715012Y-112350851D01*
X55600000Y-112327560D01*
X54100000Y-112327560D01*
X53864683Y-112371838D01*
X53648559Y-112510910D01*
X53602031Y-112579006D01*
X53459698Y-112436673D01*
X53226309Y-112340000D01*
X52635750Y-112340000D01*
X52477000Y-112498750D01*
X52477000Y-113473000D01*
X52497000Y-113473000D01*
X52497000Y-113727000D01*
X52477000Y-113727000D01*
X52477000Y-114701250D01*
X52635750Y-114860000D01*
X53226309Y-114860000D01*
X53459698Y-114763327D01*
X53600936Y-114622090D01*
X53635910Y-114676441D01*
X53848110Y-114821431D01*
X54090000Y-114870415D01*
X54090000Y-115452560D01*
X53900000Y-115452560D01*
X53664683Y-115496838D01*
X53448559Y-115635910D01*
X53402031Y-115704006D01*
X53259699Y-115561673D01*
X53026310Y-115465000D01*
X52435750Y-115465000D01*
X52277000Y-115623750D01*
X52277000Y-116723000D01*
X52297000Y-116723000D01*
X52297000Y-116977000D01*
X52277000Y-116977000D01*
X52277000Y-116997000D01*
X52023000Y-116997000D01*
X52023000Y-116977000D01*
X50923750Y-116977000D01*
X50765000Y-117135750D01*
X50765000Y-117726309D01*
X50861673Y-117959698D01*
X51002910Y-118100936D01*
X50948559Y-118135910D01*
X50803569Y-118348110D01*
X50752560Y-118600000D01*
X50752560Y-120100000D01*
X50796838Y-120335317D01*
X50935910Y-120551441D01*
X51148110Y-120696431D01*
X51390000Y-120745415D01*
X51390000Y-121029442D01*
X51164683Y-121071838D01*
X50948559Y-121210910D01*
X50803569Y-121423110D01*
X50752560Y-121675000D01*
X50752560Y-122925000D01*
X50796838Y-123160317D01*
X50935910Y-123376441D01*
X51148110Y-123521431D01*
X51400000Y-123572440D01*
X52900000Y-123572440D01*
X53135317Y-123528162D01*
X53351441Y-123389090D01*
X53397969Y-123320994D01*
X53540302Y-123463327D01*
X53773691Y-123560000D01*
X54364250Y-123560000D01*
X54523000Y-123401250D01*
X54523000Y-122427000D01*
X54777000Y-122427000D01*
X54777000Y-123401250D01*
X54935750Y-123560000D01*
X55526309Y-123560000D01*
X55759698Y-123463327D01*
X55938327Y-123284699D01*
X56035000Y-123051310D01*
X56035000Y-122585750D01*
X55876250Y-122427000D01*
X54777000Y-122427000D01*
X54523000Y-122427000D01*
X54503000Y-122427000D01*
X54503000Y-122173000D01*
X54523000Y-122173000D01*
X54523000Y-121198750D01*
X54777000Y-121198750D01*
X54777000Y-122173000D01*
X55876250Y-122173000D01*
X56035000Y-122014250D01*
X56035000Y-121548690D01*
X55938327Y-121315301D01*
X55759698Y-121136673D01*
X55526309Y-121040000D01*
X54935750Y-121040000D01*
X54777000Y-121198750D01*
X54523000Y-121198750D01*
X54364250Y-121040000D01*
X53773691Y-121040000D01*
X53540302Y-121136673D01*
X53399064Y-121277910D01*
X53364090Y-121223559D01*
X53151890Y-121078569D01*
X52910000Y-121029585D01*
X52910000Y-120745558D01*
X53135317Y-120703162D01*
X53351441Y-120564090D01*
X53397969Y-120495994D01*
X53540301Y-120638327D01*
X53773690Y-120735000D01*
X54364250Y-120735000D01*
X54523000Y-120576250D01*
X54523000Y-119477000D01*
X54777000Y-119477000D01*
X54777000Y-120576250D01*
X54935750Y-120735000D01*
X55526310Y-120735000D01*
X55759699Y-120638327D01*
X55938327Y-120459698D01*
X56035000Y-120226309D01*
X56035000Y-119635750D01*
X55876250Y-119477000D01*
X54777000Y-119477000D01*
X54523000Y-119477000D01*
X54503000Y-119477000D01*
X54503000Y-119223000D01*
X54523000Y-119223000D01*
X54523000Y-119203000D01*
X54777000Y-119203000D01*
X54777000Y-119223000D01*
X55876250Y-119223000D01*
X56035000Y-119064250D01*
X56035000Y-118960000D01*
X57594447Y-118960000D01*
X57499343Y-118999296D01*
X57250171Y-119248033D01*
X57124489Y-119550709D01*
X56712599Y-119962599D01*
X56547852Y-120209161D01*
X56490000Y-120500000D01*
X56490000Y-124429442D01*
X56264683Y-124471838D01*
X56196606Y-124515644D01*
X56089090Y-124348559D01*
X55876890Y-124203569D01*
X55625000Y-124152560D01*
X54375000Y-124152560D01*
X54139683Y-124196838D01*
X53923559Y-124335910D01*
X53778569Y-124548110D01*
X53727560Y-124800000D01*
X53727560Y-126300000D01*
X53771838Y-126535317D01*
X53910910Y-126751441D01*
X53980711Y-126799134D01*
X53923559Y-126835910D01*
X53778569Y-127048110D01*
X53727560Y-127300000D01*
X53727560Y-128800000D01*
X53771838Y-129035317D01*
X53910910Y-129251441D01*
X54123110Y-129396431D01*
X54375000Y-129447440D01*
X55272638Y-129447440D01*
X55886827Y-130061629D01*
X55742162Y-130206042D01*
X55607145Y-130531199D01*
X55606838Y-130883274D01*
X55741287Y-131208666D01*
X55990024Y-131457838D01*
X56315181Y-131592855D01*
X56667256Y-131593162D01*
X56970150Y-131468009D01*
X57173300Y-131468009D01*
X57118569Y-131548110D01*
X57067560Y-131800000D01*
X57067560Y-134315000D01*
X50685000Y-134315000D01*
X50685000Y-115973691D01*
X50765000Y-115973691D01*
X50765000Y-116564250D01*
X50923750Y-116723000D01*
X52023000Y-116723000D01*
X52023000Y-115623750D01*
X51864250Y-115465000D01*
X51273690Y-115465000D01*
X51040301Y-115561673D01*
X50861673Y-115740302D01*
X50765000Y-115973691D01*
X50685000Y-115973691D01*
X50685000Y-113885750D01*
X50965000Y-113885750D01*
X50965000Y-114351310D01*
X51061673Y-114584699D01*
X51240302Y-114763327D01*
X51473691Y-114860000D01*
X52064250Y-114860000D01*
X52223000Y-114701250D01*
X52223000Y-113727000D01*
X51123750Y-113727000D01*
X50965000Y-113885750D01*
X50685000Y-113885750D01*
X50685000Y-112848690D01*
X50965000Y-112848690D01*
X50965000Y-113314250D01*
X51123750Y-113473000D01*
X52223000Y-113473000D01*
X52223000Y-112498750D01*
X52064250Y-112340000D01*
X51473691Y-112340000D01*
X51240302Y-112436673D01*
X51061673Y-112615301D01*
X50965000Y-112848690D01*
X50685000Y-112848690D01*
X50685000Y-101171517D01*
X52178088Y-101171517D01*
X52246077Y-101412460D01*
X52765171Y-101597201D01*
X53315448Y-101569230D01*
X53693923Y-101412460D01*
X53761912Y-101171517D01*
X52970000Y-100379605D01*
X52178088Y-101171517D01*
X50685000Y-101171517D01*
X50685000Y-95645941D01*
X50829357Y-95790551D01*
X51393330Y-96024733D01*
X52003991Y-96025265D01*
X52568371Y-95792068D01*
X53000551Y-95360643D01*
X53234733Y-94796670D01*
X53235265Y-94186009D01*
X53002068Y-93621629D01*
X52606879Y-93225749D01*
X53013502Y-93394593D01*
X53942422Y-93395404D01*
X54800943Y-93040671D01*
X55353693Y-92488885D01*
X55371838Y-92585317D01*
G36*
X99315000Y-134315000D02*
X90820000Y-134315000D01*
X90820000Y-133585750D01*
X90661250Y-133427000D01*
X89312000Y-133427000D01*
X89312000Y-133447000D01*
X89058000Y-133447000D01*
X89058000Y-133427000D01*
X86542000Y-133427000D01*
X86542000Y-133447000D01*
X86288000Y-133447000D01*
X86288000Y-133427000D01*
X83772000Y-133427000D01*
X83772000Y-133447000D01*
X83518000Y-133447000D01*
X83518000Y-133427000D01*
X81002000Y-133427000D01*
X81002000Y-133447000D01*
X80748000Y-133447000D01*
X80748000Y-133427000D01*
X78232000Y-133427000D01*
X78232000Y-133447000D01*
X77978000Y-133447000D01*
X77978000Y-133427000D01*
X75462000Y-133427000D01*
X75462000Y-133447000D01*
X75208000Y-133447000D01*
X75208000Y-133427000D01*
X72692000Y-133427000D01*
X72692000Y-133447000D01*
X72438000Y-133447000D01*
X72438000Y-133427000D01*
X69922000Y-133427000D01*
X69922000Y-133447000D01*
X69668000Y-133447000D01*
X69668000Y-133427000D01*
X69648000Y-133427000D01*
X69648000Y-133173000D01*
X69668000Y-133173000D01*
X69668000Y-133153000D01*
X69922000Y-133153000D01*
X69922000Y-133173000D01*
X72438000Y-133173000D01*
X72438000Y-133153000D01*
X72692000Y-133153000D01*
X72692000Y-133173000D01*
X75208000Y-133173000D01*
X75208000Y-133153000D01*
X75462000Y-133153000D01*
X75462000Y-133173000D01*
X77978000Y-133173000D01*
X77978000Y-133153000D01*
X78232000Y-133153000D01*
X78232000Y-133173000D01*
X80748000Y-133173000D01*
X80748000Y-133153000D01*
X81002000Y-133153000D01*
X81002000Y-133173000D01*
X83518000Y-133173000D01*
X83518000Y-133153000D01*
X83772000Y-133153000D01*
X83772000Y-133173000D01*
X86288000Y-133173000D01*
X86288000Y-133153000D01*
X86542000Y-133153000D01*
X86542000Y-133173000D01*
X89058000Y-133173000D01*
X89058000Y-133153000D01*
X89312000Y-133153000D01*
X89312000Y-133173000D01*
X90661250Y-133173000D01*
X90820000Y-133014250D01*
X90820000Y-132299967D01*
X91047735Y-132205869D01*
X91296907Y-131957132D01*
X91431924Y-131631975D01*
X91432231Y-131279900D01*
X91297782Y-130954508D01*
X91049045Y-130705336D01*
X90746369Y-130579654D01*
X90276715Y-130110000D01*
X91135198Y-130110000D01*
X92839946Y-131814748D01*
X92839946Y-133750000D01*
X92848631Y-133796159D01*
X92875911Y-133838553D01*
X92917536Y-133866994D01*
X92966946Y-133877000D01*
X99166946Y-133877000D01*
X99213105Y-133868315D01*
X99255499Y-133841035D01*
X99283940Y-133799410D01*
X99293946Y-133750000D01*
X99293946Y-124950000D01*
X99285261Y-124903841D01*
X99257981Y-124861447D01*
X99216356Y-124833006D01*
X99166946Y-124823000D01*
X97460000Y-124823000D01*
X97460000Y-119100000D01*
X97411746Y-118857414D01*
X97402148Y-118809160D01*
X97237401Y-118562599D01*
X95437401Y-116762599D01*
X95190839Y-116597852D01*
X94900000Y-116540000D01*
X93714802Y-116540000D01*
X89260000Y-112085198D01*
X89260000Y-106000000D01*
X89202148Y-105709161D01*
X89037401Y-105462599D01*
X88084802Y-104510000D01*
X88920631Y-104510000D01*
X88915154Y-104523190D01*
X88914847Y-104875265D01*
X89049296Y-105200657D01*
X89298033Y-105449829D01*
X89623190Y-105584846D01*
X89975265Y-105585153D01*
X90278159Y-105460000D01*
X90700000Y-105460000D01*
X90990839Y-105402148D01*
X91237401Y-105237401D01*
X94337401Y-102137401D01*
X94502148Y-101890839D01*
X94560000Y-101600000D01*
X94560000Y-87124998D01*
X94502148Y-86834159D01*
X94337401Y-86587597D01*
X93434804Y-85685000D01*
X99315000Y-85685000D01*
X99315000Y-134315000D01*
X99315000Y-134315000D01*
G37*
X99315000Y-134315000D02*
X90820000Y-134315000D01*
X90820000Y-133585750D01*
X90661250Y-133427000D01*
X89312000Y-133427000D01*
X89312000Y-133447000D01*
X89058000Y-133447000D01*
X89058000Y-133427000D01*
X86542000Y-133427000D01*
X86542000Y-133447000D01*
X86288000Y-133447000D01*
X86288000Y-133427000D01*
X83772000Y-133427000D01*
X83772000Y-133447000D01*
X83518000Y-133447000D01*
X83518000Y-133427000D01*
X81002000Y-133427000D01*
X81002000Y-133447000D01*
X80748000Y-133447000D01*
X80748000Y-133427000D01*
X78232000Y-133427000D01*
X78232000Y-133447000D01*
X77978000Y-133447000D01*
X77978000Y-133427000D01*
X75462000Y-133427000D01*
X75462000Y-133447000D01*
X75208000Y-133447000D01*
X75208000Y-133427000D01*
X72692000Y-133427000D01*
X72692000Y-133447000D01*
X72438000Y-133447000D01*
X72438000Y-133427000D01*
X69922000Y-133427000D01*
X69922000Y-133447000D01*
X69668000Y-133447000D01*
X69668000Y-133427000D01*
X69648000Y-133427000D01*
X69648000Y-133173000D01*
X69668000Y-133173000D01*
X69668000Y-133153000D01*
X69922000Y-133153000D01*
X69922000Y-133173000D01*
X72438000Y-133173000D01*
X72438000Y-133153000D01*
X72692000Y-133153000D01*
X72692000Y-133173000D01*
X75208000Y-133173000D01*
X75208000Y-133153000D01*
X75462000Y-133153000D01*
X75462000Y-133173000D01*
X77978000Y-133173000D01*
X77978000Y-133153000D01*
X78232000Y-133153000D01*
X78232000Y-133173000D01*
X80748000Y-133173000D01*
X80748000Y-133153000D01*
X81002000Y-133153000D01*
X81002000Y-133173000D01*
X83518000Y-133173000D01*
X83518000Y-133153000D01*
X83772000Y-133153000D01*
X83772000Y-133173000D01*
X86288000Y-133173000D01*
X86288000Y-133153000D01*
X86542000Y-133153000D01*
X86542000Y-133173000D01*
X89058000Y-133173000D01*
X89058000Y-133153000D01*
X89312000Y-133153000D01*
X89312000Y-133173000D01*
X90661250Y-133173000D01*
X90820000Y-133014250D01*
X90820000Y-132299967D01*
X91047735Y-132205869D01*
X91296907Y-131957132D01*
X91431924Y-131631975D01*
X91432231Y-131279900D01*
X91297782Y-130954508D01*
X91049045Y-130705336D01*
X90746369Y-130579654D01*
X90276715Y-130110000D01*
X91135198Y-130110000D01*
X92839946Y-131814748D01*
X92839946Y-133750000D01*
X92848631Y-133796159D01*
X92875911Y-133838553D01*
X92917536Y-133866994D01*
X92966946Y-133877000D01*
X99166946Y-133877000D01*
X99213105Y-133868315D01*
X99255499Y-133841035D01*
X99283940Y-133799410D01*
X99293946Y-133750000D01*
X99293946Y-124950000D01*
X99285261Y-124903841D01*
X99257981Y-124861447D01*
X99216356Y-124833006D01*
X99166946Y-124823000D01*
X97460000Y-124823000D01*
X97460000Y-119100000D01*
X97411746Y-118857414D01*
X97402148Y-118809160D01*
X97237401Y-118562599D01*
X95437401Y-116762599D01*
X95190839Y-116597852D01*
X94900000Y-116540000D01*
X93714802Y-116540000D01*
X89260000Y-112085198D01*
X89260000Y-106000000D01*
X89202148Y-105709161D01*
X89037401Y-105462599D01*
X88084802Y-104510000D01*
X88920631Y-104510000D01*
X88915154Y-104523190D01*
X88914847Y-104875265D01*
X89049296Y-105200657D01*
X89298033Y-105449829D01*
X89623190Y-105584846D01*
X89975265Y-105585153D01*
X90278159Y-105460000D01*
X90700000Y-105460000D01*
X90990839Y-105402148D01*
X91237401Y-105237401D01*
X94337401Y-102137401D01*
X94502148Y-101890839D01*
X94560000Y-101600000D01*
X94560000Y-87124998D01*
X94502148Y-86834159D01*
X94337401Y-86587597D01*
X93434804Y-85685000D01*
X99315000Y-85685000D01*
X99315000Y-134315000D01*
G36*
X60097998Y-124035000D02*
X60115000Y-124035000D01*
X60115000Y-124175000D01*
X60167712Y-124440000D01*
X60035750Y-124440000D01*
X59877000Y-124598750D01*
X59877000Y-125573000D01*
X59897000Y-125573000D01*
X59897000Y-125827000D01*
X59877000Y-125827000D01*
X59877000Y-127773000D01*
X59897000Y-127773000D01*
X59897000Y-128027000D01*
X59877000Y-128027000D01*
X59877000Y-129001250D01*
X59900474Y-129024724D01*
X59585198Y-129340000D01*
X57314802Y-129340000D01*
X57147242Y-129172440D01*
X58000000Y-129172440D01*
X58235317Y-129128162D01*
X58451441Y-128989090D01*
X58497969Y-128920994D01*
X58640302Y-129063327D01*
X58873691Y-129160000D01*
X59464250Y-129160000D01*
X59623000Y-129001250D01*
X59623000Y-128027000D01*
X59603000Y-128027000D01*
X59603000Y-127773000D01*
X59623000Y-127773000D01*
X59623000Y-125827000D01*
X59603000Y-125827000D01*
X59603000Y-125573000D01*
X59623000Y-125573000D01*
X59623000Y-124598750D01*
X59464250Y-124440000D01*
X59135001Y-124440000D01*
X59135001Y-124036150D01*
X59256424Y-124013303D01*
X59425000Y-124047440D01*
X59725000Y-124047440D01*
X59899469Y-124014611D01*
X59948691Y-124035000D01*
X59991250Y-124035000D01*
X60097998Y-123928252D01*
X60097998Y-124035000D01*
X60097998Y-124035000D01*
G37*
X60097998Y-124035000D02*
X60115000Y-124035000D01*
X60115000Y-124175000D01*
X60167712Y-124440000D01*
X60035750Y-124440000D01*
X59877000Y-124598750D01*
X59877000Y-125573000D01*
X59897000Y-125573000D01*
X59897000Y-125827000D01*
X59877000Y-125827000D01*
X59877000Y-127773000D01*
X59897000Y-127773000D01*
X59897000Y-128027000D01*
X59877000Y-128027000D01*
X59877000Y-129001250D01*
X59900474Y-129024724D01*
X59585198Y-129340000D01*
X57314802Y-129340000D01*
X57147242Y-129172440D01*
X58000000Y-129172440D01*
X58235317Y-129128162D01*
X58451441Y-128989090D01*
X58497969Y-128920994D01*
X58640302Y-129063327D01*
X58873691Y-129160000D01*
X59464250Y-129160000D01*
X59623000Y-129001250D01*
X59623000Y-128027000D01*
X59603000Y-128027000D01*
X59603000Y-127773000D01*
X59623000Y-127773000D01*
X59623000Y-125827000D01*
X59603000Y-125827000D01*
X59603000Y-125573000D01*
X59623000Y-125573000D01*
X59623000Y-124598750D01*
X59464250Y-124440000D01*
X59135001Y-124440000D01*
X59135001Y-124036150D01*
X59256424Y-124013303D01*
X59425000Y-124047440D01*
X59725000Y-124047440D01*
X59899469Y-124014611D01*
X59948691Y-124035000D01*
X59991250Y-124035000D01*
X60097998Y-123928252D01*
X60097998Y-124035000D01*
G36*
X70635910Y-127551441D02*
X70848110Y-127696431D01*
X71100000Y-127747440D01*
X72148361Y-127747440D01*
X72065000Y-127948690D01*
X72065000Y-128414250D01*
X72223750Y-128573000D01*
X73323000Y-128573000D01*
X73323000Y-128553000D01*
X73577000Y-128553000D01*
X73577000Y-128573000D01*
X73597000Y-128573000D01*
X73597000Y-128827000D01*
X73577000Y-128827000D01*
X73577000Y-128847000D01*
X73323000Y-128847000D01*
X73323000Y-128827000D01*
X72223750Y-128827000D01*
X72065000Y-128985750D01*
X72065000Y-129090011D01*
X71184943Y-129090011D01*
X71185153Y-128849748D01*
X71050704Y-128524356D01*
X70801967Y-128275184D01*
X70499291Y-128149502D01*
X70219418Y-127869629D01*
X70537401Y-127551645D01*
X70587650Y-127476442D01*
X70635910Y-127551441D01*
X70635910Y-127551441D01*
G37*
X70635910Y-127551441D02*
X70848110Y-127696431D01*
X71100000Y-127747440D01*
X72148361Y-127747440D01*
X72065000Y-127948690D01*
X72065000Y-128414250D01*
X72223750Y-128573000D01*
X73323000Y-128573000D01*
X73323000Y-128553000D01*
X73577000Y-128553000D01*
X73577000Y-128573000D01*
X73597000Y-128573000D01*
X73597000Y-128827000D01*
X73577000Y-128827000D01*
X73577000Y-128847000D01*
X73323000Y-128847000D01*
X73323000Y-128827000D01*
X72223750Y-128827000D01*
X72065000Y-128985750D01*
X72065000Y-129090011D01*
X71184943Y-129090011D01*
X71185153Y-128849748D01*
X71050704Y-128524356D01*
X70801967Y-128275184D01*
X70499291Y-128149502D01*
X70219418Y-127869629D01*
X70537401Y-127551645D01*
X70587650Y-127476442D01*
X70635910Y-127551441D01*
G36*
X85823989Y-111598791D02*
X90564807Y-116339609D01*
X90321841Y-116440000D01*
X90214802Y-116440000D01*
X88337401Y-114562599D01*
X88090839Y-114397852D01*
X87800000Y-114340000D01*
X86177473Y-114340000D01*
X85876810Y-114215154D01*
X85524735Y-114214847D01*
X85199343Y-114349296D01*
X84950171Y-114598033D01*
X84815154Y-114923190D01*
X84814847Y-115275265D01*
X84949296Y-115600657D01*
X85198033Y-115849829D01*
X85523190Y-115984846D01*
X85875265Y-115985153D01*
X86178159Y-115860000D01*
X87485198Y-115860000D01*
X89362599Y-117737401D01*
X89609160Y-117902148D01*
X89648635Y-117910000D01*
X89900000Y-117960000D01*
X90322527Y-117960000D01*
X90623190Y-118084846D01*
X90975265Y-118085153D01*
X91300657Y-117950704D01*
X91549829Y-117701967D01*
X91660541Y-117435343D01*
X94540000Y-120314802D01*
X94540000Y-124745198D01*
X94462198Y-124823000D01*
X92966946Y-124823000D01*
X92920787Y-124831685D01*
X92878393Y-124858965D01*
X92849952Y-124900590D01*
X92839946Y-124950000D01*
X92839946Y-128040000D01*
X90214802Y-128040000D01*
X89012624Y-126837822D01*
X89012624Y-122224849D01*
X89137470Y-121924186D01*
X89137777Y-121572111D01*
X89059380Y-121382375D01*
X91182563Y-121382375D01*
X92749965Y-122949777D01*
X92874286Y-123250657D01*
X93123023Y-123499829D01*
X93448180Y-123634846D01*
X93800255Y-123635153D01*
X94125647Y-123500704D01*
X94374819Y-123251967D01*
X94509836Y-122926810D01*
X94510143Y-122574735D01*
X94375694Y-122249343D01*
X94126957Y-122000171D01*
X93824281Y-121874489D01*
X92034766Y-120084974D01*
X91788204Y-119920227D01*
X91497365Y-119862375D01*
X87712623Y-119862375D01*
X87421784Y-119920227D01*
X87175222Y-120084974D01*
X87062599Y-120197597D01*
X86897852Y-120444159D01*
X86840000Y-120734998D01*
X86840000Y-127285198D01*
X86060197Y-128065001D01*
X84885122Y-128065001D01*
X84885157Y-128024735D01*
X84750708Y-127699343D01*
X84501971Y-127450171D01*
X84176814Y-127315154D01*
X83824739Y-127314847D01*
X83521845Y-127440000D01*
X83114802Y-127440000D01*
X82760000Y-127085198D01*
X82760000Y-119014802D01*
X83529047Y-118245755D01*
X83623190Y-118284846D01*
X83975265Y-118285153D01*
X84300657Y-118150704D01*
X84549829Y-117901967D01*
X84572520Y-117847322D01*
X84740000Y-118014802D01*
X84740000Y-120722527D01*
X84615154Y-121023190D01*
X84614847Y-121375265D01*
X84749296Y-121700657D01*
X84998033Y-121949829D01*
X85323190Y-122084846D01*
X85675265Y-122085153D01*
X86000657Y-121950704D01*
X86249829Y-121701967D01*
X86384846Y-121376810D01*
X86385153Y-121024735D01*
X86260000Y-120721841D01*
X86260000Y-117700000D01*
X86235496Y-117576810D01*
X86202148Y-117409160D01*
X86037401Y-117162599D01*
X85175025Y-116300223D01*
X85050704Y-115999343D01*
X84801967Y-115750171D01*
X84476810Y-115615154D01*
X84124735Y-115614847D01*
X84085001Y-115631265D01*
X84085001Y-112789817D01*
X84193276Y-112834777D01*
X84704481Y-112835223D01*
X85176943Y-112640005D01*
X85538735Y-112278845D01*
X85734777Y-111806724D01*
X85735010Y-111539338D01*
X85823989Y-111598791D01*
X85823989Y-111598791D01*
G37*
X85823989Y-111598791D02*
X90564807Y-116339609D01*
X90321841Y-116440000D01*
X90214802Y-116440000D01*
X88337401Y-114562599D01*
X88090839Y-114397852D01*
X87800000Y-114340000D01*
X86177473Y-114340000D01*
X85876810Y-114215154D01*
X85524735Y-114214847D01*
X85199343Y-114349296D01*
X84950171Y-114598033D01*
X84815154Y-114923190D01*
X84814847Y-115275265D01*
X84949296Y-115600657D01*
X85198033Y-115849829D01*
X85523190Y-115984846D01*
X85875265Y-115985153D01*
X86178159Y-115860000D01*
X87485198Y-115860000D01*
X89362599Y-117737401D01*
X89609160Y-117902148D01*
X89648635Y-117910000D01*
X89900000Y-117960000D01*
X90322527Y-117960000D01*
X90623190Y-118084846D01*
X90975265Y-118085153D01*
X91300657Y-117950704D01*
X91549829Y-117701967D01*
X91660541Y-117435343D01*
X94540000Y-120314802D01*
X94540000Y-124745198D01*
X94462198Y-124823000D01*
X92966946Y-124823000D01*
X92920787Y-124831685D01*
X92878393Y-124858965D01*
X92849952Y-124900590D01*
X92839946Y-124950000D01*
X92839946Y-128040000D01*
X90214802Y-128040000D01*
X89012624Y-126837822D01*
X89012624Y-122224849D01*
X89137470Y-121924186D01*
X89137777Y-121572111D01*
X89059380Y-121382375D01*
X91182563Y-121382375D01*
X92749965Y-122949777D01*
X92874286Y-123250657D01*
X93123023Y-123499829D01*
X93448180Y-123634846D01*
X93800255Y-123635153D01*
X94125647Y-123500704D01*
X94374819Y-123251967D01*
X94509836Y-122926810D01*
X94510143Y-122574735D01*
X94375694Y-122249343D01*
X94126957Y-122000171D01*
X93824281Y-121874489D01*
X92034766Y-120084974D01*
X91788204Y-119920227D01*
X91497365Y-119862375D01*
X87712623Y-119862375D01*
X87421784Y-119920227D01*
X87175222Y-120084974D01*
X87062599Y-120197597D01*
X86897852Y-120444159D01*
X86840000Y-120734998D01*
X86840000Y-127285198D01*
X86060197Y-128065001D01*
X84885122Y-128065001D01*
X84885157Y-128024735D01*
X84750708Y-127699343D01*
X84501971Y-127450171D01*
X84176814Y-127315154D01*
X83824739Y-127314847D01*
X83521845Y-127440000D01*
X83114802Y-127440000D01*
X82760000Y-127085198D01*
X82760000Y-119014802D01*
X83529047Y-118245755D01*
X83623190Y-118284846D01*
X83975265Y-118285153D01*
X84300657Y-118150704D01*
X84549829Y-117901967D01*
X84572520Y-117847322D01*
X84740000Y-118014802D01*
X84740000Y-120722527D01*
X84615154Y-121023190D01*
X84614847Y-121375265D01*
X84749296Y-121700657D01*
X84998033Y-121949829D01*
X85323190Y-122084846D01*
X85675265Y-122085153D01*
X86000657Y-121950704D01*
X86249829Y-121701967D01*
X86384846Y-121376810D01*
X86385153Y-121024735D01*
X86260000Y-120721841D01*
X86260000Y-117700000D01*
X86235496Y-117576810D01*
X86202148Y-117409160D01*
X86037401Y-117162599D01*
X85175025Y-116300223D01*
X85050704Y-115999343D01*
X84801967Y-115750171D01*
X84476810Y-115615154D01*
X84124735Y-115614847D01*
X84085001Y-115631265D01*
X84085001Y-112789817D01*
X84193276Y-112834777D01*
X84704481Y-112835223D01*
X85176943Y-112640005D01*
X85538735Y-112278845D01*
X85734777Y-111806724D01*
X85735010Y-111539338D01*
X85823989Y-111598791D01*
G36*
X71652560Y-118100000D02*
X71696838Y-118335317D01*
X71780287Y-118465000D01*
X71260001Y-118465000D01*
X71260001Y-116991376D01*
X71499829Y-116751967D01*
X71634846Y-116426810D01*
X71635153Y-116074735D01*
X71500704Y-115749343D01*
X71251967Y-115500171D01*
X70926810Y-115365154D01*
X70574735Y-115364847D01*
X70249343Y-115499296D01*
X70000171Y-115748033D01*
X69865154Y-116073190D01*
X69865123Y-116108483D01*
X69797853Y-116209160D01*
X69740001Y-116499999D01*
X69740001Y-122670953D01*
X68083394Y-124327560D01*
X67500000Y-124327560D01*
X67264683Y-124371838D01*
X67048559Y-124510910D01*
X67002031Y-124579006D01*
X66859698Y-124436673D01*
X66626309Y-124340000D01*
X66035750Y-124340000D01*
X65877000Y-124498750D01*
X65877000Y-125473000D01*
X65897000Y-125473000D01*
X65897000Y-125727000D01*
X65877000Y-125727000D01*
X65877000Y-125747000D01*
X65623000Y-125747000D01*
X65623000Y-125727000D01*
X64523750Y-125727000D01*
X64365000Y-125885750D01*
X64365000Y-126340000D01*
X64235000Y-126340000D01*
X64235000Y-124848690D01*
X64365000Y-124848690D01*
X64365000Y-125314250D01*
X64523750Y-125473000D01*
X65623000Y-125473000D01*
X65623000Y-124498750D01*
X65464250Y-124340000D01*
X64873691Y-124340000D01*
X64640302Y-124436673D01*
X64461673Y-124615301D01*
X64365000Y-124848690D01*
X64235000Y-124848690D01*
X64235000Y-124047440D01*
X64275000Y-124047440D01*
X64456424Y-124013303D01*
X64625000Y-124047440D01*
X64925000Y-124047440D01*
X65106424Y-124013303D01*
X65275000Y-124047440D01*
X65575000Y-124047440D01*
X65749469Y-124014611D01*
X65798691Y-124035000D01*
X65841250Y-124035000D01*
X65986384Y-123889866D01*
X66026441Y-123864090D01*
X66074134Y-123794289D01*
X66110910Y-123851441D01*
X66155999Y-123882249D01*
X66308750Y-124035000D01*
X66351309Y-124035000D01*
X66404589Y-124012931D01*
X66575000Y-124047440D01*
X66875000Y-124047440D01*
X67110317Y-124003162D01*
X67326441Y-123864090D01*
X67471431Y-123651890D01*
X67522440Y-123400000D01*
X67522440Y-121400000D01*
X67485000Y-121201024D01*
X67485000Y-120139800D01*
X68699777Y-118925023D01*
X69000657Y-118800702D01*
X69249829Y-118551965D01*
X69384846Y-118226808D01*
X69385153Y-117874733D01*
X69250704Y-117549341D01*
X69001967Y-117300169D01*
X68676810Y-117165152D01*
X68324735Y-117164845D01*
X68299551Y-117175251D01*
X71652560Y-113822242D01*
X71652560Y-118100000D01*
X71652560Y-118100000D01*
G37*
X71652560Y-118100000D02*
X71696838Y-118335317D01*
X71780287Y-118465000D01*
X71260001Y-118465000D01*
X71260001Y-116991376D01*
X71499829Y-116751967D01*
X71634846Y-116426810D01*
X71635153Y-116074735D01*
X71500704Y-115749343D01*
X71251967Y-115500171D01*
X70926810Y-115365154D01*
X70574735Y-115364847D01*
X70249343Y-115499296D01*
X70000171Y-115748033D01*
X69865154Y-116073190D01*
X69865123Y-116108483D01*
X69797853Y-116209160D01*
X69740001Y-116499999D01*
X69740001Y-122670953D01*
X68083394Y-124327560D01*
X67500000Y-124327560D01*
X67264683Y-124371838D01*
X67048559Y-124510910D01*
X67002031Y-124579006D01*
X66859698Y-124436673D01*
X66626309Y-124340000D01*
X66035750Y-124340000D01*
X65877000Y-124498750D01*
X65877000Y-125473000D01*
X65897000Y-125473000D01*
X65897000Y-125727000D01*
X65877000Y-125727000D01*
X65877000Y-125747000D01*
X65623000Y-125747000D01*
X65623000Y-125727000D01*
X64523750Y-125727000D01*
X64365000Y-125885750D01*
X64365000Y-126340000D01*
X64235000Y-126340000D01*
X64235000Y-124848690D01*
X64365000Y-124848690D01*
X64365000Y-125314250D01*
X64523750Y-125473000D01*
X65623000Y-125473000D01*
X65623000Y-124498750D01*
X65464250Y-124340000D01*
X64873691Y-124340000D01*
X64640302Y-124436673D01*
X64461673Y-124615301D01*
X64365000Y-124848690D01*
X64235000Y-124848690D01*
X64235000Y-124047440D01*
X64275000Y-124047440D01*
X64456424Y-124013303D01*
X64625000Y-124047440D01*
X64925000Y-124047440D01*
X65106424Y-124013303D01*
X65275000Y-124047440D01*
X65575000Y-124047440D01*
X65749469Y-124014611D01*
X65798691Y-124035000D01*
X65841250Y-124035000D01*
X65986384Y-123889866D01*
X66026441Y-123864090D01*
X66074134Y-123794289D01*
X66110910Y-123851441D01*
X66155999Y-123882249D01*
X66308750Y-124035000D01*
X66351309Y-124035000D01*
X66404589Y-124012931D01*
X66575000Y-124047440D01*
X66875000Y-124047440D01*
X67110317Y-124003162D01*
X67326441Y-123864090D01*
X67471431Y-123651890D01*
X67522440Y-123400000D01*
X67522440Y-121400000D01*
X67485000Y-121201024D01*
X67485000Y-120139800D01*
X68699777Y-118925023D01*
X69000657Y-118800702D01*
X69249829Y-118551965D01*
X69384846Y-118226808D01*
X69385153Y-117874733D01*
X69250704Y-117549341D01*
X69001967Y-117300169D01*
X68676810Y-117165152D01*
X68324735Y-117164845D01*
X68299551Y-117175251D01*
X71652560Y-113822242D01*
X71652560Y-118100000D01*
G36*
X72227000Y-119973000D02*
X72247000Y-119973000D01*
X72247000Y-120227000D01*
X72227000Y-120227000D01*
X72227000Y-120247000D01*
X71973000Y-120247000D01*
X71973000Y-120227000D01*
X71953000Y-120227000D01*
X71953000Y-119973000D01*
X71973000Y-119973000D01*
X71973000Y-119953000D01*
X72227000Y-119953000D01*
X72227000Y-119973000D01*
X72227000Y-119973000D01*
G37*
X72227000Y-119973000D02*
X72247000Y-119973000D01*
X72247000Y-120227000D01*
X72227000Y-120227000D01*
X72227000Y-120247000D01*
X71973000Y-120247000D01*
X71973000Y-120227000D01*
X71953000Y-120227000D01*
X71953000Y-119973000D01*
X71973000Y-119973000D01*
X71973000Y-119953000D01*
X72227000Y-119953000D01*
X72227000Y-119973000D01*
G36*
X66827600Y-96302402D02*
X67074161Y-96467149D01*
X67122415Y-96476747D01*
X67365001Y-96525001D01*
X68026807Y-96525001D01*
X69822382Y-98320576D01*
X69803569Y-98348110D01*
X69752560Y-98600000D01*
X69752560Y-100600000D01*
X69796838Y-100835317D01*
X69935910Y-101051441D01*
X70148110Y-101196431D01*
X70400000Y-101247440D01*
X70440000Y-101247440D01*
X70440000Y-101422527D01*
X70315154Y-101723190D01*
X70314847Y-102075265D01*
X70449296Y-102400657D01*
X70698033Y-102649829D01*
X71023190Y-102784846D01*
X71375265Y-102785153D01*
X71652560Y-102670577D01*
X71652560Y-106100000D01*
X71696838Y-106335317D01*
X71835910Y-106551441D01*
X72048110Y-106696431D01*
X72300000Y-106747440D01*
X72396600Y-106747440D01*
X72365146Y-106823190D01*
X72364839Y-107175265D01*
X72499288Y-107500657D01*
X72748025Y-107749829D01*
X73073182Y-107884846D01*
X73425257Y-107885153D01*
X73728151Y-107760000D01*
X74350000Y-107760000D01*
X74640839Y-107702148D01*
X74887401Y-107537401D01*
X75537401Y-106887401D01*
X75630920Y-106747440D01*
X76987510Y-106747440D01*
X74245395Y-109489555D01*
X73977010Y-109489555D01*
X73676347Y-109364709D01*
X73324272Y-109364402D01*
X72998880Y-109498851D01*
X72749708Y-109747588D01*
X72614691Y-110072745D01*
X72614384Y-110424820D01*
X72725828Y-110694537D01*
X72709161Y-110697852D01*
X72462599Y-110862599D01*
X69835000Y-113490198D01*
X69835000Y-107541823D01*
X69779051Y-107260551D01*
X69722065Y-107175265D01*
X69619723Y-107022099D01*
X64194633Y-101597009D01*
X64195171Y-101597201D01*
X64745448Y-101569230D01*
X65123923Y-101412460D01*
X65191912Y-101171517D01*
X64400000Y-100379605D01*
X64385858Y-100393748D01*
X64206253Y-100214143D01*
X64220395Y-100200000D01*
X64206253Y-100185858D01*
X64385858Y-100006253D01*
X64400000Y-100020395D01*
X64414143Y-100006253D01*
X64593748Y-100185858D01*
X64579605Y-100200000D01*
X65371517Y-100991912D01*
X65503276Y-100954732D01*
X65515169Y-100983515D01*
X65904436Y-101373461D01*
X66413298Y-101584759D01*
X66964285Y-101585240D01*
X67473515Y-101374831D01*
X67863461Y-100985564D01*
X68074759Y-100476702D01*
X68075240Y-99925715D01*
X67864831Y-99416485D01*
X67782161Y-99333671D01*
X67851441Y-99289090D01*
X67996431Y-99076890D01*
X68047440Y-98825000D01*
X68047440Y-97575000D01*
X68003162Y-97339683D01*
X67864090Y-97123559D01*
X67651890Y-96978569D01*
X67400000Y-96927560D01*
X65900000Y-96927560D01*
X65664683Y-96971838D01*
X65448559Y-97110910D01*
X65400866Y-97180711D01*
X65364090Y-97123559D01*
X65151890Y-96978569D01*
X64900000Y-96927560D01*
X63400000Y-96927560D01*
X63164683Y-96971838D01*
X62948559Y-97110910D01*
X62803569Y-97323110D01*
X62752560Y-97575000D01*
X62752560Y-98047628D01*
X62175213Y-98624975D01*
X61935000Y-98724229D01*
X61935000Y-96515066D01*
X62084775Y-96515197D01*
X62502086Y-96342767D01*
X62821645Y-96023765D01*
X62879929Y-95883401D01*
X62937233Y-96022086D01*
X63256235Y-96341645D01*
X63673244Y-96514803D01*
X64124775Y-96515197D01*
X64542086Y-96342767D01*
X64861645Y-96023765D01*
X65034803Y-95606756D01*
X65035197Y-95155225D01*
X64913212Y-94859999D01*
X65385197Y-94859999D01*
X66827600Y-96302402D01*
X66827600Y-96302402D01*
G37*
X66827600Y-96302402D02*
X67074161Y-96467149D01*
X67122415Y-96476747D01*
X67365001Y-96525001D01*
X68026807Y-96525001D01*
X69822382Y-98320576D01*
X69803569Y-98348110D01*
X69752560Y-98600000D01*
X69752560Y-100600000D01*
X69796838Y-100835317D01*
X69935910Y-101051441D01*
X70148110Y-101196431D01*
X70400000Y-101247440D01*
X70440000Y-101247440D01*
X70440000Y-101422527D01*
X70315154Y-101723190D01*
X70314847Y-102075265D01*
X70449296Y-102400657D01*
X70698033Y-102649829D01*
X71023190Y-102784846D01*
X71375265Y-102785153D01*
X71652560Y-102670577D01*
X71652560Y-106100000D01*
X71696838Y-106335317D01*
X71835910Y-106551441D01*
X72048110Y-106696431D01*
X72300000Y-106747440D01*
X72396600Y-106747440D01*
X72365146Y-106823190D01*
X72364839Y-107175265D01*
X72499288Y-107500657D01*
X72748025Y-107749829D01*
X73073182Y-107884846D01*
X73425257Y-107885153D01*
X73728151Y-107760000D01*
X74350000Y-107760000D01*
X74640839Y-107702148D01*
X74887401Y-107537401D01*
X75537401Y-106887401D01*
X75630920Y-106747440D01*
X76987510Y-106747440D01*
X74245395Y-109489555D01*
X73977010Y-109489555D01*
X73676347Y-109364709D01*
X73324272Y-109364402D01*
X72998880Y-109498851D01*
X72749708Y-109747588D01*
X72614691Y-110072745D01*
X72614384Y-110424820D01*
X72725828Y-110694537D01*
X72709161Y-110697852D01*
X72462599Y-110862599D01*
X69835000Y-113490198D01*
X69835000Y-107541823D01*
X69779051Y-107260551D01*
X69722065Y-107175265D01*
X69619723Y-107022099D01*
X64194633Y-101597009D01*
X64195171Y-101597201D01*
X64745448Y-101569230D01*
X65123923Y-101412460D01*
X65191912Y-101171517D01*
X64400000Y-100379605D01*
X64385858Y-100393748D01*
X64206253Y-100214143D01*
X64220395Y-100200000D01*
X64206253Y-100185858D01*
X64385858Y-100006253D01*
X64400000Y-100020395D01*
X64414143Y-100006253D01*
X64593748Y-100185858D01*
X64579605Y-100200000D01*
X65371517Y-100991912D01*
X65503276Y-100954732D01*
X65515169Y-100983515D01*
X65904436Y-101373461D01*
X66413298Y-101584759D01*
X66964285Y-101585240D01*
X67473515Y-101374831D01*
X67863461Y-100985564D01*
X68074759Y-100476702D01*
X68075240Y-99925715D01*
X67864831Y-99416485D01*
X67782161Y-99333671D01*
X67851441Y-99289090D01*
X67996431Y-99076890D01*
X68047440Y-98825000D01*
X68047440Y-97575000D01*
X68003162Y-97339683D01*
X67864090Y-97123559D01*
X67651890Y-96978569D01*
X67400000Y-96927560D01*
X65900000Y-96927560D01*
X65664683Y-96971838D01*
X65448559Y-97110910D01*
X65400866Y-97180711D01*
X65364090Y-97123559D01*
X65151890Y-96978569D01*
X64900000Y-96927560D01*
X63400000Y-96927560D01*
X63164683Y-96971838D01*
X62948559Y-97110910D01*
X62803569Y-97323110D01*
X62752560Y-97575000D01*
X62752560Y-98047628D01*
X62175213Y-98624975D01*
X61935000Y-98724229D01*
X61935000Y-96515066D01*
X62084775Y-96515197D01*
X62502086Y-96342767D01*
X62821645Y-96023765D01*
X62879929Y-95883401D01*
X62937233Y-96022086D01*
X63256235Y-96341645D01*
X63673244Y-96514803D01*
X64124775Y-96515197D01*
X64542086Y-96342767D01*
X64861645Y-96023765D01*
X65034803Y-95606756D01*
X65035197Y-95155225D01*
X64913212Y-94859999D01*
X65385197Y-94859999D01*
X66827600Y-96302402D01*
G36*
X89352560Y-92000000D02*
X89396838Y-92235317D01*
X89535910Y-92451441D01*
X89748110Y-92596431D01*
X90000000Y-92647440D01*
X92000000Y-92647440D01*
X92040000Y-92639913D01*
X92040000Y-93365000D01*
X91285750Y-93365000D01*
X91127000Y-93523750D01*
X91127000Y-96873000D01*
X91147000Y-96873000D01*
X91147000Y-97127000D01*
X91127000Y-97127000D01*
X91127000Y-100476250D01*
X91285750Y-100635000D01*
X92040000Y-100635000D01*
X92040000Y-100985198D01*
X90035198Y-102990000D01*
X88070558Y-102990000D01*
X88028162Y-102764683D01*
X87889090Y-102548559D01*
X87676890Y-102403569D01*
X87425000Y-102352560D01*
X86175000Y-102352560D01*
X85939683Y-102396838D01*
X85723559Y-102535910D01*
X85598617Y-102718769D01*
X85489090Y-102548559D01*
X85276890Y-102403569D01*
X85025000Y-102352560D01*
X83775000Y-102352560D01*
X83760004Y-102355382D01*
X83760004Y-101077473D01*
X83884850Y-100776810D01*
X83885157Y-100424735D01*
X83750708Y-100099343D01*
X83501971Y-99850171D01*
X83176814Y-99715154D01*
X82824739Y-99714847D01*
X82499347Y-99849296D01*
X82250175Y-100098033D01*
X82115158Y-100423190D01*
X82114851Y-100775265D01*
X82240004Y-101078159D01*
X82240004Y-104400006D01*
X82297856Y-104690845D01*
X82462603Y-104937407D01*
X82937598Y-105412402D01*
X83127560Y-105539331D01*
X83127560Y-107000000D01*
X83171838Y-107235317D01*
X83310910Y-107451441D01*
X83523110Y-107596431D01*
X83640000Y-107620102D01*
X83640000Y-107785198D01*
X83550223Y-107874975D01*
X83249343Y-107999296D01*
X83000171Y-108248033D01*
X82874489Y-108550709D01*
X78343918Y-113081280D01*
X78303162Y-112864683D01*
X78204372Y-112711159D01*
X78204372Y-111559987D01*
X78146520Y-111269148D01*
X77981773Y-111022586D01*
X76671341Y-109712154D01*
X76424779Y-109547407D01*
X76351686Y-109532868D01*
X80662400Y-105222154D01*
X80827147Y-104975593D01*
X80837263Y-104924735D01*
X80884999Y-104684753D01*
X80884999Y-98697440D01*
X82600000Y-98697440D01*
X82835317Y-98653162D01*
X83051441Y-98514090D01*
X83196431Y-98301890D01*
X83247440Y-98050000D01*
X83247440Y-97550000D01*
X83203162Y-97314683D01*
X83109264Y-97168761D01*
X83138327Y-97139698D01*
X83185008Y-97027000D01*
X89365000Y-97027000D01*
X89365000Y-97127002D01*
X89523748Y-97127002D01*
X89365000Y-97285750D01*
X89365000Y-100126310D01*
X89461673Y-100359699D01*
X89640302Y-100538327D01*
X89873691Y-100635000D01*
X90714250Y-100635000D01*
X90873000Y-100476250D01*
X90873000Y-97127000D01*
X90853000Y-97127000D01*
X90853000Y-96873000D01*
X90873000Y-96873000D01*
X90873000Y-93523750D01*
X90714250Y-93365000D01*
X89873691Y-93365000D01*
X89640302Y-93461673D01*
X89461673Y-93640301D01*
X89365000Y-93873690D01*
X89365000Y-95973000D01*
X83160155Y-95973000D01*
X83138327Y-95920302D01*
X83108543Y-95890518D01*
X83196431Y-95761890D01*
X83247440Y-95510000D01*
X83247440Y-95010000D01*
X83203162Y-94774683D01*
X83106183Y-94623973D01*
X83196431Y-94491890D01*
X83247440Y-94240000D01*
X83247440Y-93740000D01*
X83203162Y-93504683D01*
X83064090Y-93288559D01*
X82926454Y-93194517D01*
X83051441Y-93114090D01*
X83196431Y-92901890D01*
X83247440Y-92650000D01*
X83247440Y-92150000D01*
X83203162Y-91914683D01*
X83106183Y-91763973D01*
X83196431Y-91631890D01*
X83247440Y-91380000D01*
X83247440Y-91004540D01*
X83359995Y-91276943D01*
X83721155Y-91638735D01*
X84193276Y-91834777D01*
X84704481Y-91835223D01*
X85176943Y-91640005D01*
X85538735Y-91278845D01*
X85734777Y-90806724D01*
X85735223Y-90295519D01*
X85540005Y-89823057D01*
X85477058Y-89760000D01*
X89352560Y-89760000D01*
X89352560Y-92000000D01*
X89352560Y-92000000D01*
G37*
X89352560Y-92000000D02*
X89396838Y-92235317D01*
X89535910Y-92451441D01*
X89748110Y-92596431D01*
X90000000Y-92647440D01*
X92000000Y-92647440D01*
X92040000Y-92639913D01*
X92040000Y-93365000D01*
X91285750Y-93365000D01*
X91127000Y-93523750D01*
X91127000Y-96873000D01*
X91147000Y-96873000D01*
X91147000Y-97127000D01*
X91127000Y-97127000D01*
X91127000Y-100476250D01*
X91285750Y-100635000D01*
X92040000Y-100635000D01*
X92040000Y-100985198D01*
X90035198Y-102990000D01*
X88070558Y-102990000D01*
X88028162Y-102764683D01*
X87889090Y-102548559D01*
X87676890Y-102403569D01*
X87425000Y-102352560D01*
X86175000Y-102352560D01*
X85939683Y-102396838D01*
X85723559Y-102535910D01*
X85598617Y-102718769D01*
X85489090Y-102548559D01*
X85276890Y-102403569D01*
X85025000Y-102352560D01*
X83775000Y-102352560D01*
X83760004Y-102355382D01*
X83760004Y-101077473D01*
X83884850Y-100776810D01*
X83885157Y-100424735D01*
X83750708Y-100099343D01*
X83501971Y-99850171D01*
X83176814Y-99715154D01*
X82824739Y-99714847D01*
X82499347Y-99849296D01*
X82250175Y-100098033D01*
X82115158Y-100423190D01*
X82114851Y-100775265D01*
X82240004Y-101078159D01*
X82240004Y-104400006D01*
X82297856Y-104690845D01*
X82462603Y-104937407D01*
X82937598Y-105412402D01*
X83127560Y-105539331D01*
X83127560Y-107000000D01*
X83171838Y-107235317D01*
X83310910Y-107451441D01*
X83523110Y-107596431D01*
X83640000Y-107620102D01*
X83640000Y-107785198D01*
X83550223Y-107874975D01*
X83249343Y-107999296D01*
X83000171Y-108248033D01*
X82874489Y-108550709D01*
X78343918Y-113081280D01*
X78303162Y-112864683D01*
X78204372Y-112711159D01*
X78204372Y-111559987D01*
X78146520Y-111269148D01*
X77981773Y-111022586D01*
X76671341Y-109712154D01*
X76424779Y-109547407D01*
X76351686Y-109532868D01*
X80662400Y-105222154D01*
X80827147Y-104975593D01*
X80837263Y-104924735D01*
X80884999Y-104684753D01*
X80884999Y-98697440D01*
X82600000Y-98697440D01*
X82835317Y-98653162D01*
X83051441Y-98514090D01*
X83196431Y-98301890D01*
X83247440Y-98050000D01*
X83247440Y-97550000D01*
X83203162Y-97314683D01*
X83109264Y-97168761D01*
X83138327Y-97139698D01*
X83185008Y-97027000D01*
X89365000Y-97027000D01*
X89365000Y-97127002D01*
X89523748Y-97127002D01*
X89365000Y-97285750D01*
X89365000Y-100126310D01*
X89461673Y-100359699D01*
X89640302Y-100538327D01*
X89873691Y-100635000D01*
X90714250Y-100635000D01*
X90873000Y-100476250D01*
X90873000Y-97127000D01*
X90853000Y-97127000D01*
X90853000Y-96873000D01*
X90873000Y-96873000D01*
X90873000Y-93523750D01*
X90714250Y-93365000D01*
X89873691Y-93365000D01*
X89640302Y-93461673D01*
X89461673Y-93640301D01*
X89365000Y-93873690D01*
X89365000Y-95973000D01*
X83160155Y-95973000D01*
X83138327Y-95920302D01*
X83108543Y-95890518D01*
X83196431Y-95761890D01*
X83247440Y-95510000D01*
X83247440Y-95010000D01*
X83203162Y-94774683D01*
X83106183Y-94623973D01*
X83196431Y-94491890D01*
X83247440Y-94240000D01*
X83247440Y-93740000D01*
X83203162Y-93504683D01*
X83064090Y-93288559D01*
X82926454Y-93194517D01*
X83051441Y-93114090D01*
X83196431Y-92901890D01*
X83247440Y-92650000D01*
X83247440Y-92150000D01*
X83203162Y-91914683D01*
X83106183Y-91763973D01*
X83196431Y-91631890D01*
X83247440Y-91380000D01*
X83247440Y-91004540D01*
X83359995Y-91276943D01*
X83721155Y-91638735D01*
X84193276Y-91834777D01*
X84704481Y-91835223D01*
X85176943Y-91640005D01*
X85538735Y-91278845D01*
X85734777Y-90806724D01*
X85735223Y-90295519D01*
X85540005Y-89823057D01*
X85477058Y-89760000D01*
X89352560Y-89760000D01*
X89352560Y-92000000D01*
G36*
X58857233Y-96022086D02*
X59176235Y-96341645D01*
X59593244Y-96514803D01*
X59935001Y-96515101D01*
X59935001Y-99748235D01*
X59990950Y-100029507D01*
X60150278Y-100267958D01*
X67914989Y-108032670D01*
X67914989Y-111963230D01*
X67901967Y-111950185D01*
X67576810Y-111815168D01*
X67224735Y-111814861D01*
X66899343Y-111949310D01*
X66835000Y-112013541D01*
X66835000Y-107375000D01*
X66777148Y-107084161D01*
X66612401Y-106837599D01*
X61837401Y-102062599D01*
X61590839Y-101897852D01*
X61300000Y-101840000D01*
X60477473Y-101840000D01*
X60176810Y-101715154D01*
X59824735Y-101714847D01*
X59499343Y-101849296D01*
X59250171Y-102098033D01*
X59115154Y-102423190D01*
X59114847Y-102775265D01*
X59249296Y-103100657D01*
X59498033Y-103349829D01*
X59823190Y-103484846D01*
X60175265Y-103485153D01*
X60478159Y-103360000D01*
X60985198Y-103360000D01*
X62086820Y-104461622D01*
X61950171Y-104598033D01*
X61815154Y-104923190D01*
X61814847Y-105275265D01*
X61949296Y-105600657D01*
X62198033Y-105849829D01*
X62500709Y-105975511D01*
X63890198Y-107365000D01*
X63498690Y-107365000D01*
X63265301Y-107461673D01*
X63086673Y-107640302D01*
X62990000Y-107873691D01*
X62990000Y-108464250D01*
X63148750Y-108623000D01*
X64123000Y-108623000D01*
X64123000Y-108603000D01*
X64377000Y-108603000D01*
X64377000Y-108623000D01*
X64397000Y-108623000D01*
X64397000Y-108877000D01*
X64377000Y-108877000D01*
X64377000Y-108897000D01*
X64123000Y-108897000D01*
X64123000Y-108877000D01*
X63148750Y-108877000D01*
X63052750Y-108973000D01*
X62697250Y-108973000D01*
X62601250Y-108877000D01*
X61627000Y-108877000D01*
X61627000Y-108897000D01*
X61373000Y-108897000D01*
X61373000Y-108877000D01*
X60398750Y-108877000D01*
X60302750Y-108973000D01*
X59947250Y-108973000D01*
X59851250Y-108877000D01*
X58877000Y-108877000D01*
X58877000Y-108897000D01*
X58623000Y-108897000D01*
X58623000Y-108877000D01*
X58603000Y-108877000D01*
X58603000Y-108623000D01*
X58623000Y-108623000D01*
X58623000Y-107523750D01*
X58877000Y-107523750D01*
X58877000Y-108623000D01*
X59851250Y-108623000D01*
X60010000Y-108464250D01*
X60010000Y-107873691D01*
X60240000Y-107873691D01*
X60240000Y-108464250D01*
X60398750Y-108623000D01*
X61373000Y-108623000D01*
X61373000Y-107523750D01*
X61627000Y-107523750D01*
X61627000Y-108623000D01*
X62601250Y-108623000D01*
X62760000Y-108464250D01*
X62760000Y-107873691D01*
X62663327Y-107640302D01*
X62484699Y-107461673D01*
X62251310Y-107365000D01*
X61785750Y-107365000D01*
X61627000Y-107523750D01*
X61373000Y-107523750D01*
X61214250Y-107365000D01*
X60748690Y-107365000D01*
X60515301Y-107461673D01*
X60336673Y-107640302D01*
X60240000Y-107873691D01*
X60010000Y-107873691D01*
X59913327Y-107640302D01*
X59734699Y-107461673D01*
X59501310Y-107365000D01*
X59035750Y-107365000D01*
X58877000Y-107523750D01*
X58623000Y-107523750D01*
X58464250Y-107365000D01*
X57998690Y-107365000D01*
X57765301Y-107461673D01*
X57635023Y-107591952D01*
X57635023Y-96564423D01*
X57684529Y-96514918D01*
X58004775Y-96515197D01*
X58422086Y-96342767D01*
X58741645Y-96023765D01*
X58799929Y-95883401D01*
X58857233Y-96022086D01*
X58857233Y-96022086D01*
G37*
X58857233Y-96022086D02*
X59176235Y-96341645D01*
X59593244Y-96514803D01*
X59935001Y-96515101D01*
X59935001Y-99748235D01*
X59990950Y-100029507D01*
X60150278Y-100267958D01*
X67914989Y-108032670D01*
X67914989Y-111963230D01*
X67901967Y-111950185D01*
X67576810Y-111815168D01*
X67224735Y-111814861D01*
X66899343Y-111949310D01*
X66835000Y-112013541D01*
X66835000Y-107375000D01*
X66777148Y-107084161D01*
X66612401Y-106837599D01*
X61837401Y-102062599D01*
X61590839Y-101897852D01*
X61300000Y-101840000D01*
X60477473Y-101840000D01*
X60176810Y-101715154D01*
X59824735Y-101714847D01*
X59499343Y-101849296D01*
X59250171Y-102098033D01*
X59115154Y-102423190D01*
X59114847Y-102775265D01*
X59249296Y-103100657D01*
X59498033Y-103349829D01*
X59823190Y-103484846D01*
X60175265Y-103485153D01*
X60478159Y-103360000D01*
X60985198Y-103360000D01*
X62086820Y-104461622D01*
X61950171Y-104598033D01*
X61815154Y-104923190D01*
X61814847Y-105275265D01*
X61949296Y-105600657D01*
X62198033Y-105849829D01*
X62500709Y-105975511D01*
X63890198Y-107365000D01*
X63498690Y-107365000D01*
X63265301Y-107461673D01*
X63086673Y-107640302D01*
X62990000Y-107873691D01*
X62990000Y-108464250D01*
X63148750Y-108623000D01*
X64123000Y-108623000D01*
X64123000Y-108603000D01*
X64377000Y-108603000D01*
X64377000Y-108623000D01*
X64397000Y-108623000D01*
X64397000Y-108877000D01*
X64377000Y-108877000D01*
X64377000Y-108897000D01*
X64123000Y-108897000D01*
X64123000Y-108877000D01*
X63148750Y-108877000D01*
X63052750Y-108973000D01*
X62697250Y-108973000D01*
X62601250Y-108877000D01*
X61627000Y-108877000D01*
X61627000Y-108897000D01*
X61373000Y-108897000D01*
X61373000Y-108877000D01*
X60398750Y-108877000D01*
X60302750Y-108973000D01*
X59947250Y-108973000D01*
X59851250Y-108877000D01*
X58877000Y-108877000D01*
X58877000Y-108897000D01*
X58623000Y-108897000D01*
X58623000Y-108877000D01*
X58603000Y-108877000D01*
X58603000Y-108623000D01*
X58623000Y-108623000D01*
X58623000Y-107523750D01*
X58877000Y-107523750D01*
X58877000Y-108623000D01*
X59851250Y-108623000D01*
X60010000Y-108464250D01*
X60010000Y-107873691D01*
X60240000Y-107873691D01*
X60240000Y-108464250D01*
X60398750Y-108623000D01*
X61373000Y-108623000D01*
X61373000Y-107523750D01*
X61627000Y-107523750D01*
X61627000Y-108623000D01*
X62601250Y-108623000D01*
X62760000Y-108464250D01*
X62760000Y-107873691D01*
X62663327Y-107640302D01*
X62484699Y-107461673D01*
X62251310Y-107365000D01*
X61785750Y-107365000D01*
X61627000Y-107523750D01*
X61373000Y-107523750D01*
X61214250Y-107365000D01*
X60748690Y-107365000D01*
X60515301Y-107461673D01*
X60336673Y-107640302D01*
X60240000Y-107873691D01*
X60010000Y-107873691D01*
X59913327Y-107640302D01*
X59734699Y-107461673D01*
X59501310Y-107365000D01*
X59035750Y-107365000D01*
X58877000Y-107523750D01*
X58623000Y-107523750D01*
X58464250Y-107365000D01*
X57998690Y-107365000D01*
X57765301Y-107461673D01*
X57635023Y-107591952D01*
X57635023Y-96564423D01*
X57684529Y-96514918D01*
X58004775Y-96515197D01*
X58422086Y-96342767D01*
X58741645Y-96023765D01*
X58799929Y-95883401D01*
X58857233Y-96022086D01*
G36*
X78487595Y-95312397D02*
X78734157Y-95477144D01*
X79024996Y-95534996D01*
X79125200Y-95534996D01*
X79364999Y-95774795D01*
X79364999Y-104369951D01*
X78347440Y-105387510D01*
X78347440Y-101100000D01*
X78304622Y-100872440D01*
X78700000Y-100872440D01*
X78935317Y-100828162D01*
X79151441Y-100689090D01*
X79296431Y-100476890D01*
X79347440Y-100225000D01*
X79347440Y-98975000D01*
X79303162Y-98739683D01*
X79164090Y-98523559D01*
X78951890Y-98378569D01*
X78710000Y-98329585D01*
X78710000Y-98230000D01*
X78652148Y-97939161D01*
X78487401Y-97692599D01*
X77247440Y-96452638D01*
X77247440Y-96280000D01*
X77203162Y-96044683D01*
X77109264Y-95898761D01*
X77138327Y-95869698D01*
X77235000Y-95636309D01*
X77235000Y-95543750D01*
X77076250Y-95385000D01*
X75727000Y-95385000D01*
X75727000Y-95407000D01*
X75473000Y-95407000D01*
X75473000Y-95385000D01*
X74123750Y-95385000D01*
X73965000Y-95543750D01*
X73965000Y-95636309D01*
X73988963Y-95694161D01*
X73884999Y-95590197D01*
X73884999Y-94929803D01*
X73988963Y-94825839D01*
X73965000Y-94883691D01*
X73965000Y-94976250D01*
X74123750Y-95135000D01*
X75473000Y-95135000D01*
X75473000Y-95113000D01*
X75727000Y-95113000D01*
X75727000Y-95135000D01*
X77076250Y-95135000D01*
X77235000Y-94976250D01*
X77235000Y-94883691D01*
X77138327Y-94650302D01*
X77108543Y-94620518D01*
X77196431Y-94491890D01*
X77247440Y-94240000D01*
X77247440Y-94072242D01*
X78487595Y-95312397D01*
X78487595Y-95312397D01*
G37*
X78487595Y-95312397D02*
X78734157Y-95477144D01*
X79024996Y-95534996D01*
X79125200Y-95534996D01*
X79364999Y-95774795D01*
X79364999Y-104369951D01*
X78347440Y-105387510D01*
X78347440Y-101100000D01*
X78304622Y-100872440D01*
X78700000Y-100872440D01*
X78935317Y-100828162D01*
X79151441Y-100689090D01*
X79296431Y-100476890D01*
X79347440Y-100225000D01*
X79347440Y-98975000D01*
X79303162Y-98739683D01*
X79164090Y-98523559D01*
X78951890Y-98378569D01*
X78710000Y-98329585D01*
X78710000Y-98230000D01*
X78652148Y-97939161D01*
X78487401Y-97692599D01*
X77247440Y-96452638D01*
X77247440Y-96280000D01*
X77203162Y-96044683D01*
X77109264Y-95898761D01*
X77138327Y-95869698D01*
X77235000Y-95636309D01*
X77235000Y-95543750D01*
X77076250Y-95385000D01*
X75727000Y-95385000D01*
X75727000Y-95407000D01*
X75473000Y-95407000D01*
X75473000Y-95385000D01*
X74123750Y-95385000D01*
X73965000Y-95543750D01*
X73965000Y-95636309D01*
X73988963Y-95694161D01*
X73884999Y-95590197D01*
X73884999Y-94929803D01*
X73988963Y-94825839D01*
X73965000Y-94883691D01*
X73965000Y-94976250D01*
X74123750Y-95135000D01*
X75473000Y-95135000D01*
X75473000Y-95113000D01*
X75727000Y-95113000D01*
X75727000Y-95135000D01*
X77076250Y-95135000D01*
X77235000Y-94976250D01*
X77235000Y-94883691D01*
X77138327Y-94650302D01*
X77108543Y-94620518D01*
X77196431Y-94491890D01*
X77247440Y-94240000D01*
X77247440Y-94072242D01*
X78487595Y-95312397D01*
G36*
X89352560Y-88240000D02*
X84110000Y-88240000D01*
X83819161Y-88297852D01*
X83572599Y-88462599D01*
X83247440Y-88787758D01*
X83247440Y-88340000D01*
X83203162Y-88104683D01*
X83064090Y-87888559D01*
X82851890Y-87743569D01*
X82600000Y-87692560D01*
X80600000Y-87692560D01*
X80364683Y-87736838D01*
X80148559Y-87875910D01*
X80003569Y-88088110D01*
X79952560Y-88340000D01*
X79952560Y-88840000D01*
X79996838Y-89075317D01*
X80079779Y-89204211D01*
X79902599Y-89322599D01*
X79268716Y-89956482D01*
X79384846Y-89676810D01*
X79385153Y-89324735D01*
X79250704Y-88999343D01*
X79001967Y-88750171D01*
X78676810Y-88615154D01*
X78324735Y-88614847D01*
X77999343Y-88749296D01*
X77750171Y-88998033D01*
X77707831Y-89100000D01*
X77190890Y-89100000D01*
X77196431Y-89091890D01*
X77247440Y-88840000D01*
X77247440Y-88340000D01*
X77203162Y-88104683D01*
X77064090Y-87888559D01*
X76851890Y-87743569D01*
X76600000Y-87692560D01*
X74600000Y-87692560D01*
X74364683Y-87736838D01*
X74148559Y-87875910D01*
X74003569Y-88088110D01*
X73959508Y-88305690D01*
X73872440Y-88392758D01*
X73872440Y-87900000D01*
X73828162Y-87664683D01*
X73689090Y-87448559D01*
X73476890Y-87303569D01*
X73225000Y-87252560D01*
X71975000Y-87252560D01*
X71739683Y-87296838D01*
X71523559Y-87435910D01*
X71378569Y-87648110D01*
X71327560Y-87900000D01*
X71327560Y-88019080D01*
X71187599Y-88112599D01*
X70635000Y-88665198D01*
X70635000Y-88485750D01*
X70476250Y-88327000D01*
X69377000Y-88327000D01*
X69377000Y-89301250D01*
X69535750Y-89460000D01*
X69840198Y-89460000D01*
X68781815Y-90518383D01*
X68617068Y-90764945D01*
X68559216Y-91055784D01*
X68559216Y-93076743D01*
X68266670Y-92955267D01*
X67656009Y-92954735D01*
X67538313Y-93003366D01*
X68158362Y-92384398D01*
X68514593Y-91526498D01*
X68515404Y-90597578D01*
X68160671Y-89739057D01*
X67805339Y-89383104D01*
X67951441Y-89289090D01*
X67997969Y-89220994D01*
X68140302Y-89363327D01*
X68373691Y-89460000D01*
X68964250Y-89460000D01*
X69123000Y-89301250D01*
X69123000Y-88327000D01*
X69103000Y-88327000D01*
X69103000Y-88073000D01*
X69123000Y-88073000D01*
X69123000Y-87098750D01*
X69377000Y-87098750D01*
X69377000Y-88073000D01*
X70476250Y-88073000D01*
X70635000Y-87914250D01*
X70635000Y-87448690D01*
X70538327Y-87215301D01*
X70359698Y-87036673D01*
X70126309Y-86940000D01*
X69535750Y-86940000D01*
X69377000Y-87098750D01*
X69123000Y-87098750D01*
X68964250Y-86940000D01*
X68373691Y-86940000D01*
X68140302Y-87036673D01*
X67999064Y-87177910D01*
X67964090Y-87123559D01*
X67751890Y-86978569D01*
X67500000Y-86927560D01*
X66000000Y-86927560D01*
X65764683Y-86971838D01*
X65548559Y-87110910D01*
X65403569Y-87323110D01*
X65379898Y-87440000D01*
X63900000Y-87440000D01*
X63609161Y-87497852D01*
X63609159Y-87497853D01*
X63609160Y-87497853D01*
X63362598Y-87662599D01*
X63322637Y-87702560D01*
X62613772Y-87702560D01*
X62635000Y-87651310D01*
X62635000Y-87185750D01*
X62476250Y-87027000D01*
X61377000Y-87027000D01*
X61377000Y-87047000D01*
X61123000Y-87047000D01*
X61123000Y-87027000D01*
X61103000Y-87027000D01*
X61103000Y-86773000D01*
X61123000Y-86773000D01*
X61123000Y-86753000D01*
X61377000Y-86753000D01*
X61377000Y-86773000D01*
X62476250Y-86773000D01*
X62635000Y-86614250D01*
X62635000Y-86360000D01*
X89352560Y-86360000D01*
X89352560Y-88240000D01*
X89352560Y-88240000D01*
G37*
X89352560Y-88240000D02*
X84110000Y-88240000D01*
X83819161Y-88297852D01*
X83572599Y-88462599D01*
X83247440Y-88787758D01*
X83247440Y-88340000D01*
X83203162Y-88104683D01*
X83064090Y-87888559D01*
X82851890Y-87743569D01*
X82600000Y-87692560D01*
X80600000Y-87692560D01*
X80364683Y-87736838D01*
X80148559Y-87875910D01*
X80003569Y-88088110D01*
X79952560Y-88340000D01*
X79952560Y-88840000D01*
X79996838Y-89075317D01*
X80079779Y-89204211D01*
X79902599Y-89322599D01*
X79268716Y-89956482D01*
X79384846Y-89676810D01*
X79385153Y-89324735D01*
X79250704Y-88999343D01*
X79001967Y-88750171D01*
X78676810Y-88615154D01*
X78324735Y-88614847D01*
X77999343Y-88749296D01*
X77750171Y-88998033D01*
X77707831Y-89100000D01*
X77190890Y-89100000D01*
X77196431Y-89091890D01*
X77247440Y-88840000D01*
X77247440Y-88340000D01*
X77203162Y-88104683D01*
X77064090Y-87888559D01*
X76851890Y-87743569D01*
X76600000Y-87692560D01*
X74600000Y-87692560D01*
X74364683Y-87736838D01*
X74148559Y-87875910D01*
X74003569Y-88088110D01*
X73959508Y-88305690D01*
X73872440Y-88392758D01*
X73872440Y-87900000D01*
X73828162Y-87664683D01*
X73689090Y-87448559D01*
X73476890Y-87303569D01*
X73225000Y-87252560D01*
X71975000Y-87252560D01*
X71739683Y-87296838D01*
X71523559Y-87435910D01*
X71378569Y-87648110D01*
X71327560Y-87900000D01*
X71327560Y-88019080D01*
X71187599Y-88112599D01*
X70635000Y-88665198D01*
X70635000Y-88485750D01*
X70476250Y-88327000D01*
X69377000Y-88327000D01*
X69377000Y-89301250D01*
X69535750Y-89460000D01*
X69840198Y-89460000D01*
X68781815Y-90518383D01*
X68617068Y-90764945D01*
X68559216Y-91055784D01*
X68559216Y-93076743D01*
X68266670Y-92955267D01*
X67656009Y-92954735D01*
X67538313Y-93003366D01*
X68158362Y-92384398D01*
X68514593Y-91526498D01*
X68515404Y-90597578D01*
X68160671Y-89739057D01*
X67805339Y-89383104D01*
X67951441Y-89289090D01*
X67997969Y-89220994D01*
X68140302Y-89363327D01*
X68373691Y-89460000D01*
X68964250Y-89460000D01*
X69123000Y-89301250D01*
X69123000Y-88327000D01*
X69103000Y-88327000D01*
X69103000Y-88073000D01*
X69123000Y-88073000D01*
X69123000Y-87098750D01*
X69377000Y-87098750D01*
X69377000Y-88073000D01*
X70476250Y-88073000D01*
X70635000Y-87914250D01*
X70635000Y-87448690D01*
X70538327Y-87215301D01*
X70359698Y-87036673D01*
X70126309Y-86940000D01*
X69535750Y-86940000D01*
X69377000Y-87098750D01*
X69123000Y-87098750D01*
X68964250Y-86940000D01*
X68373691Y-86940000D01*
X68140302Y-87036673D01*
X67999064Y-87177910D01*
X67964090Y-87123559D01*
X67751890Y-86978569D01*
X67500000Y-86927560D01*
X66000000Y-86927560D01*
X65764683Y-86971838D01*
X65548559Y-87110910D01*
X65403569Y-87323110D01*
X65379898Y-87440000D01*
X63900000Y-87440000D01*
X63609161Y-87497852D01*
X63609159Y-87497853D01*
X63609160Y-87497853D01*
X63362598Y-87662599D01*
X63322637Y-87702560D01*
X62613772Y-87702560D01*
X62635000Y-87651310D01*
X62635000Y-87185750D01*
X62476250Y-87027000D01*
X61377000Y-87027000D01*
X61377000Y-87047000D01*
X61123000Y-87047000D01*
X61123000Y-87027000D01*
X61103000Y-87027000D01*
X61103000Y-86773000D01*
X61123000Y-86773000D01*
X61123000Y-86753000D01*
X61377000Y-86753000D01*
X61377000Y-86773000D01*
X62476250Y-86773000D01*
X62635000Y-86614250D01*
X62635000Y-86360000D01*
X89352560Y-86360000D01*
X89352560Y-88240000D01*
M02*
